<svg width="1656" height="108" viewBox="0 0 1656 108" fill="none" xmlns="http://www.w3.org/2000/svg">
<path d="M0.153171 25.2703C0.285737 11.965 11.1014 1.22127 24.4073 1.18493L83.1352 1.02453C95.245 0.99146 106.982 4.94935 116.532 12.3955C139.25 30.1085 183.089 64.6156 210.41 88.211C218.416 95.1251 213.584 106.999 203.006 106.983L24.2298 106.702C11.4961 106.682 0.913816 96.822 0.490925 84.0953C-0.157635 64.5772 -0.0418905 44.8483 0.153171 25.2703Z" fill="#355C4B"/>
<path d="M180.488 26.928C171.253 19.0603 178.179 2.19137 190.308 2.44444C214.737 2.95412 242.207 2.59623 262.887 2.45649C270.209 2.40702 277.42 4.22294 283.578 8.1829C312.606 26.8477 348.269 58.7095 379.799 84.7024C388.832 92.1486 383.623 107.694 371.917 107.806C344.302 108.069 316.273 108.208 289.289 107.254C284.066 107.069 278.978 105.515 274.658 102.573C249.911 85.7146 211.368 53.235 180.488 26.928Z" fill="#355C4B"/>
<path d="M358.533 26.928C349.298 19.0603 356.224 2.19137 368.353 2.44444C392.782 2.95412 420.252 2.59623 440.932 2.45649C448.254 2.40702 455.465 4.22294 461.623 8.1829C490.651 26.8477 526.314 58.7095 557.844 84.7024C566.877 92.1486 561.667 107.694 549.962 107.806C522.347 108.069 494.318 108.208 467.334 107.254C462.111 107.069 457.022 105.515 452.703 102.573C427.956 85.7146 389.413 53.235 358.533 26.928Z" fill="#355C4B"/>
<path d="M536.578 26.928C527.343 19.0603 534.269 2.19137 546.398 2.44444C570.827 2.95412 598.297 2.59623 618.977 2.45649C626.299 2.40702 633.51 4.22294 639.668 8.1829C668.695 26.8477 704.359 58.7095 735.889 84.7024C744.922 92.1486 739.712 107.694 728.007 107.806C700.392 108.069 672.363 108.208 645.379 107.254C640.156 107.069 635.067 105.515 630.748 102.573C606.001 85.7146 567.458 53.235 536.578 26.928Z" fill="#355C4B"/>
<path d="M714.623 26.928C705.388 19.0603 712.313 2.19137 724.443 2.44444C748.872 2.95412 776.342 2.59623 797.022 2.45649C804.344 2.40702 811.554 4.22294 817.713 8.1829C846.74 26.8477 882.404 58.7095 913.934 84.7024C922.966 92.1486 917.757 107.694 906.052 107.806C878.437 108.069 850.408 108.208 823.424 107.254C818.201 107.069 813.112 105.515 808.793 102.573C784.046 85.7146 745.503 53.235 714.623 26.928Z" fill="#355C4B"/>
<path d="M892.669 26.928C883.434 19.0603 890.359 2.19137 902.489 2.44444C926.918 2.95412 954.388 2.59623 975.068 2.45649C982.39 2.40702 989.6 4.22294 995.759 8.1829C1024.79 26.8477 1060.45 58.7095 1091.98 84.7024C1101.01 92.1486 1095.8 107.694 1084.1 107.806C1056.48 108.069 1028.45 108.208 1001.47 107.254C996.247 107.069 991.158 105.515 986.839 102.573C962.092 85.7146 923.549 53.235 892.669 26.928Z" fill="#355C4B"/>
<path d="M1070.71 26.928C1061.48 19.0603 1068.4 2.19137 1080.53 2.44444C1104.96 2.95412 1132.43 2.59623 1153.11 2.45649C1160.43 2.40702 1167.65 4.22294 1173.8 8.1829C1202.83 26.8477 1238.49 58.7095 1270.02 84.7024C1279.06 92.1486 1273.85 107.694 1262.14 107.806C1234.53 108.069 1206.5 108.208 1179.52 107.254C1174.29 107.069 1169.2 105.515 1164.88 102.573C1140.14 85.7146 1101.59 53.235 1070.71 26.928Z" fill="#355C4B"/>
<path d="M1248.76 26.928C1239.52 19.0603 1246.45 2.19137 1258.58 2.44444C1283.01 2.95412 1310.48 2.59623 1331.16 2.45649C1338.48 2.40702 1345.69 4.22294 1351.85 8.1829C1380.88 26.8477 1416.54 58.7095 1448.07 84.7024C1457.1 92.1486 1451.89 107.694 1440.19 107.806C1412.57 108.069 1384.54 108.208 1357.56 107.254C1352.34 107.069 1347.25 105.515 1342.93 102.573C1318.18 85.7146 1279.64 53.235 1248.76 26.928Z" fill="#355C4B"/>
<path d="M1426.8 26.928C1417.57 19.0603 1424.49 2.19137 1436.62 2.44444C1461.05 2.95412 1488.52 2.59623 1509.2 2.45649C1516.52 2.40702 1523.74 4.22294 1529.89 8.1829C1558.92 26.8477 1594.58 58.7095 1626.11 84.7024C1635.15 92.1486 1629.94 107.694 1618.23 107.806C1590.62 108.069 1562.59 108.208 1535.6 107.254C1530.38 107.069 1525.29 105.515 1520.97 102.573C1496.23 85.7146 1457.68 53.235 1426.8 26.928Z" fill="#355C4B"/>
</svg>
