<svg width="32" height="32" viewBox="0 0 32 32" fill="none" xmlns="http://www.w3.org/2000/svg">
<path d="M26.875 27.2249L24.1875 27.9462L22.6437 22.1887C23.6737 21.7841 24.5188 21.0147 25.0181 20.0272C25.5173 19.0397 25.6359 17.903 25.3512 16.8337C23.795 11.0299 20.5625 5.94369 20.4263 5.72994C20.3692 5.64011 20.285 5.57082 20.1858 5.53215C20.0867 5.49348 19.9778 5.48745 19.875 5.51494L16.5075 6.35619C16.5363 4.91494 16.4963 4.00119 16.4963 3.98119C16.4916 3.87408 16.4526 3.77131 16.3851 3.68804C16.3176 3.60476 16.2251 3.54539 16.1213 3.51869L12.1213 2.51869C12.0197 2.49322 11.9127 2.50027 11.8154 2.53884C11.718 2.57741 11.6353 2.64557 11.5787 2.73369C11.4425 2.94744 8.21 8.03369 6.65375 13.8374C6.36906 14.9068 6.48765 16.0434 6.98694 17.0309C7.48623 18.0185 8.33133 18.7878 9.36125 19.1924L7.8175 24.9462L5.125 24.2249C5.00008 24.2008 4.87066 24.2252 4.76309 24.2931C4.65551 24.361 4.57789 24.4674 4.54602 24.5906C4.51415 24.7138 4.53043 24.8445 4.59156 24.9561C4.65268 25.0676 4.75404 25.1517 4.875 25.1912L10.875 26.7987C10.9157 26.8101 10.9577 26.816 11 26.8162C11.1206 26.8147 11.2367 26.7697 11.3267 26.6894C11.4168 26.6092 11.4748 26.499 11.49 26.3793C11.5052 26.2596 11.4767 26.1385 11.4096 26.0382C11.3425 25.9379 11.2414 25.8653 11.125 25.8337L8.77875 25.2087L10.3225 19.4499C11.4189 19.6216 12.54 19.3797 13.4681 18.7713C14.3962 18.1629 15.0651 17.2313 15.345 16.1574C15.495 15.5424 15.6263 14.9237 15.7413 14.3062C15.9263 15.9462 16.2292 17.5709 16.6475 19.1674C16.9058 20.1241 17.4722 20.969 18.2589 21.5714C19.0457 22.1738 20.0091 22.5001 21 22.4999C21.2252 22.4994 21.4501 22.4814 21.6725 22.4462L23.2162 28.2049L20.87 28.8299C20.7536 28.8615 20.6525 28.9342 20.5854 29.0345C20.5183 29.1347 20.4898 29.2559 20.505 29.3756C20.5202 29.4953 20.5782 29.6054 20.6683 29.6857C20.7583 29.766 20.8744 29.811 20.995 29.8124C21.0373 29.8122 21.0793 29.8064 21.12 29.7949L27.12 28.1874C27.2344 28.1436 27.3287 28.0593 27.3851 27.9505C27.4414 27.8417 27.4558 27.716 27.4256 27.5972C27.3954 27.4785 27.3226 27.375 27.2211 27.3063C27.1196 27.2377 26.9964 27.2088 26.875 27.2249ZM19.7663 6.57369C20.115 7.14869 20.905 8.49869 21.775 10.2912L16.525 11.6037C16.4237 9.78119 16.4488 8.31494 16.475 7.56869C16.475 7.50994 16.475 7.45244 16.475 7.39494L19.7663 6.57369ZM12.2338 3.57369L15.5125 4.39369C15.5237 4.89369 15.5337 5.86494 15.4913 7.12744C15.4838 7.27494 15.4725 7.51369 15.4637 7.83119C15.455 8.14869 15.43 8.48869 15.4075 8.83119L10.1175 7.51369C11.03 5.60994 11.875 4.17244 12.2338 3.57369ZM10.095 18.3749C9.20046 18.1336 8.43813 17.5474 7.97511 16.7448C7.5121 15.9423 7.3862 14.9889 7.625 14.0937C8.15973 12.156 8.84946 10.2645 9.6875 8.43744L15.33 9.84744C15.1691 11.8879 14.8519 13.913 14.3813 15.9049C14.1399 16.8006 13.553 17.5638 12.7493 18.027C11.9456 18.4901 10.9909 18.6153 10.095 18.3749ZM17.6187 18.8999C17.0886 16.8392 16.7455 14.7348 16.5938 12.6124L22.21 11.2124C23.0932 13.1096 23.8174 15.0767 24.375 17.0937C24.5575 17.9688 24.3981 18.8807 23.9297 19.6421C23.4612 20.4035 22.7192 20.9568 21.8558 21.1885C20.9923 21.4201 20.073 21.3127 19.2863 20.888C18.4996 20.4634 17.9052 19.7539 17.625 18.9049L17.6187 18.8999ZM23.5525 5.22369C23.5231 5.16493 23.5055 5.10095 23.5008 5.0354C23.4962 4.96985 23.5044 4.90403 23.5252 4.84168C23.546 4.77934 23.5789 4.72171 23.6219 4.67208C23.665 4.62245 23.7175 4.58179 23.7763 4.55244L25.7763 3.55244C25.835 3.52306 25.899 3.50554 25.9645 3.50088C26.0301 3.49622 26.0959 3.50452 26.1582 3.5253C26.2205 3.54607 26.2782 3.57892 26.3278 3.62197C26.3774 3.66502 26.4181 3.71742 26.4475 3.77619C26.4769 3.83496 26.4944 3.89894 26.4991 3.96447C26.5037 4.03001 26.4954 4.09583 26.4746 4.15816C26.4539 4.22049 26.421 4.27812 26.378 4.32775C26.3349 4.37739 26.2825 4.41806 26.2237 4.44744L24.2237 5.44744C24.165 5.47687 24.101 5.49442 24.0355 5.4991C23.9699 5.50378 23.9041 5.49549 23.8417 5.47471C23.7794 5.45393 23.7218 5.42107 23.6721 5.37799C23.6225 5.33492 23.5819 5.28249 23.5525 5.22369ZM28.5 8.99994C28.5 9.13255 28.4473 9.25973 28.3536 9.3535C28.2598 9.44726 28.1326 9.49994 28 9.49994H26C25.8674 9.49994 25.7402 9.44726 25.6464 9.3535C25.5527 9.25973 25.5 9.13255 25.5 8.99994C25.5 8.86733 25.5527 8.74016 25.6464 8.64639C25.7402 8.55262 25.8674 8.49994 26 8.49994H28C28.1326 8.49994 28.2598 8.55262 28.3536 8.64639C28.4473 8.74016 28.5 8.86733 28.5 8.99994ZM4.5525 2.77619C4.58185 2.7174 4.6225 2.66496 4.67213 2.62189C4.72177 2.57882 4.7794 2.54595 4.84174 2.52517C4.90409 2.50439 4.96991 2.4961 5.03546 2.50078C5.10101 2.50546 5.16499 2.52302 5.22375 2.55244L7.22375 3.55244C7.34243 3.61178 7.43268 3.71584 7.47465 3.84173C7.51661 3.96761 7.50684 4.10501 7.4475 4.22369C7.38816 4.34238 7.2841 4.43263 7.15822 4.47459C7.03233 4.51655 6.89493 4.50678 6.77625 4.44744L4.77625 3.44744C4.71745 3.41809 4.66502 3.37744 4.62195 3.32781C4.57888 3.27818 4.54601 3.22054 4.52523 3.1582C4.50445 3.09586 4.49616 3.03003 4.50084 2.96448C4.50552 2.89893 4.52307 2.83495 4.5525 2.77619ZM5 8.49994H3C2.86739 8.49994 2.74021 8.44726 2.64645 8.3535C2.55268 8.25973 2.5 8.13255 2.5 7.99994C2.5 7.86733 2.55268 7.74016 2.64645 7.64639C2.74021 7.55262 2.86739 7.49994 3 7.49994H5C5.13261 7.49994 5.25979 7.55262 5.35355 7.64639C5.44732 7.74016 5.5 7.86733 5.5 7.99994C5.5 8.13255 5.44732 8.25973 5.35355 8.3535C5.25979 8.44726 5.13261 8.49994 5 8.49994Z" fill="#F0F0F0"/>
</svg>
