<svg xmlns="http://www.w3.org/2000/svg" viewBox="0 0 32 32" width="32" height="32" fill="none">
<svg x="0" y="0" width="28.814" height="28.949" viewBox="0 0 28.814 28.949" overflow="visible"><path d="M 28.814 17.721 C 28.814 15.492 27.029 13.676 24.815 13.618 C 23.19 9.497 19.198 6.562 14.521 6.5 C 14.898 6.033 15.264 5.442 15.279 4.883 C 15.309 3.683 14.557 3.245 14.008 2.925 C 13.511 2.635 13.272 2.474 13.271 1.996 C 13.269 1.051 14.173 0.964 14.352 0.956 C 14.616 0.948 14.824 0.728 14.816 0.464 C 14.807 0.2 14.589 -0.004 14.323 0 C 13.627 0.021 12.311 0.466 12.314 1.998 C 12.317 3.046 13.016 3.454 13.527 3.752 C 14.075 4.071 14.338 4.252 14.323 4.859 C 14.31 5.315 13.648 6.108 13.149 6.564 C 8.937 7.021 5.42 9.818 3.922 13.623 C 1.743 13.723 0 15.52 0 17.722 C 0 19.926 1.743 21.724 3.922 21.824 C 5.563 25.991 9.626 28.949 14.369 28.949 C 19.111 28.949 23.172 25.993 24.815 21.828 C 27.029 21.77 28.814 19.952 28.814 17.721 Z M 0.956 17.721 C 0.956 16.163 2.094 14.869 3.583 14.617 C 3.298 15.604 3.143 16.645 3.143 17.722 C 3.143 18.8 3.298 19.841 3.583 20.829 C 2.095 20.576 0.956 19.281 0.956 17.721 Z M 14.369 27.992 C 8.706 27.992 4.099 23.385 4.099 17.722 C 4.099 12.059 8.706 7.452 14.369 7.452 C 20.032 7.452 24.638 12.059 24.638 17.722 C 24.638 23.385 20.032 27.992 14.369 27.992 Z M 25.151 20.841 C 25.438 19.85 25.595 18.804 25.595 17.722 C 25.595 16.64 25.438 15.595 25.151 14.605 C 26.678 14.822 27.857 16.135 27.857 17.721 C 27.858 19.31 26.678 20.624 25.151 20.841 Z" fill="currentColor" fill-rule="nonzero"></path></svg>
<svg x="7.937" y="14.285" width="4.447" height="2.701" viewBox="0 0 4.447 2.701" overflow="visible"><path d="M 3.49 2.223 C 3.49 2.487 3.704 2.701 3.968 2.701 C 4.233 2.701 4.447 2.487 4.447 2.223 C 4.447 0.997 3.45 0 2.224 0 C 0.997 0 0 0.997 0 2.223 C 0 2.487 0.214 2.701 0.478 2.701 C 0.743 2.701 0.957 2.487 0.957 2.223 C 0.957 1.525 1.525 0.957 2.224 0.957 C 2.922 0.957 3.49 1.525 3.49 2.223 Z" fill="currentColor" fill-rule="nonzero"></path></svg>
<svg x="16.236" y="14.285" width="4.447" height="2.701" viewBox="0 0 4.447 2.701" overflow="visible"><path d="M 2.224 0 C 0.997 0 0 0.997 0 2.223 C 0 2.487 0.214 2.701 0.478 2.701 C 0.742 2.701 0.957 2.487 0.957 2.223 C 0.957 1.525 1.525 0.957 2.224 0.957 C 2.922 0.957 3.49 1.525 3.49 2.223 C 3.49 2.487 3.704 2.701 3.968 2.701 C 4.232 2.701 4.447 2.487 4.447 2.223 C 4.447 0.997 3.449 0 2.224 0 Z" fill="currentColor" fill-rule="nonzero"></path></svg>
<svg x="9.421" y="19.659" width="9.896" height="5.427" viewBox="0 0 9.896 5.427" overflow="visible"><path d="M 9.418 0 C 9.154 0 8.94 0.214 8.94 0.478 C 8.94 2.68 7.149 4.471 4.948 4.471 C 2.747 4.471 0.957 2.68 0.957 0.478 C 0.957 0.214 0.743 0 0.478 0 C 0.214 0 0 0.214 0 0.478 C 0 3.207 2.22 5.427 4.948 5.427 C 7.677 5.427 9.896 3.207 9.896 0.478 C 9.896 0.214 9.682 0 9.418 0 Z" fill="currentColor" fill-rule="nonzero"></path></svg>
</svg>