<svg xmlns="http://www.w3.org/2000/svg" viewBox="0 0 32 32" width="32" height="32" fill="none">
<svg x="1.562" y="5.569" width="28.876" height="20.86" viewBox="0 0 28.876 20.860" overflow="visible"><path d="M 24.229 12.419 C 24.21 12.055 24.183 11.674 24.143 11.277 C 23.903 8.899 23.17 5.56 21.041 3.157 C 19.185 1.062 16.59 0 13.328 0 C 11.731 0 10.257 0.339 8.982 0.823 C 8.928 0.834 8.879 0.854 8.833 0.881 C 6.378 1.846 4.69 3.331 4.326 3.903 C 1.568 6.241 0 9.606 0 13.253 C 0 13.293 0.005 13.333 0.015 13.372 C 0.042 13.475 0.694 15.901 3.512 17.175 C 7.445 18.953 12.446 20.86 17.785 20.86 C 18.845 20.86 19.918 20.786 20.998 20.619 C 27.98 19.546 28.876 17.932 28.876 16.645 C 28.876 16.359 28.876 15.493 24.229 12.419 Z M 20.32 3.791 C 23.643 7.538 23.356 13.933 23.235 15.442 L 17.643 16.841 C 17.704 15.504 17.792 12.365 17.45 9.507 C 17.036 6.047 15.963 2.157 11.633 1.096 C 12.173 1.01 12.739 0.96 13.328 0.96 C 16.302 0.96 18.655 1.912 20.32 3.791 Z M 9.164 1.774 C 13.645 1.788 15.842 4.14 16.497 9.621 C 16.815 12.287 16.746 15.285 16.688 16.663 L 14.948 15.678 C 15.092 14.182 15.482 8.021 12.529 5.109 C 10.663 3.269 8.691 2.717 7.141 2.792 C 7.712 2.438 8.393 2.079 9.164 1.774 Z M 5.085 4.523 C 5.119 4.498 5.152 4.473 5.181 4.447 C 5.276 4.371 5.369 4.294 5.467 4.221 C 6.563 3.509 9.309 3.283 11.856 5.793 C 14.394 8.296 14.136 13.853 14.004 15.446 C 12.748 15.393 9.044 15.143 6.025 14.018 C 4.014 13.269 2.451 11.987 1.375 10.208 C 1.987 7.996 3.263 6.021 5.085 4.523 Z M 20.852 19.67 C 14.58 20.636 8.501 18.376 3.908 16.3 C 1.709 15.307 1.064 13.521 0.961 13.186 C 0.964 12.62 1.013 12.062 1.096 11.513 C 2.524 13.426 4.341 14.415 5.69 14.918 C 9.225 16.235 13.508 16.399 14.307 16.418 L 16.892 17.882 C 16.895 17.884 16.899 17.884 16.902 17.886 C 16.934 17.903 16.968 17.918 17.004 17.927 C 17.01 17.929 17.016 17.929 17.023 17.931 C 17.047 17.936 17.071 17.941 17.096 17.943 C 17.107 17.944 17.117 17.944 17.127 17.944 C 17.127 17.944 17.128 17.944 17.128 17.944 C 17.128 17.944 17.129 17.944 17.129 17.944 C 17.165 17.944 17.201 17.939 17.235 17.931 C 17.238 17.93 17.241 17.931 17.244 17.93 L 23.798 16.291 C 23.991 16.243 24.134 16.081 24.158 15.884 C 24.164 15.829 24.268 14.938 24.263 13.599 C 26.555 15.159 27.832 16.306 27.916 16.645 C 27.916 17.932 25.539 18.95 20.852 19.67 Z" fill="currentColor" fill-rule="nonzero"></path></svg>
</svg>