<svg width="24" height="24" viewBox="0 0 24 24" fill="none" xmlns="http://www.w3.org/2000/svg">
<path d="M12.6624 17.0791H8.99543C8.79647 17.0791 8.63543 17.2404 8.63543 17.4391V21.4889H7.35287V17.4391C7.35287 17.2404 7.19183 17.0791 6.99287 17.0791H2.42951L5.98487 13.5233C6.08783 13.4203 6.11879 13.2655 6.06287 13.1309C6.00719 12.9963 5.87591 12.9087 5.73023 12.9087H3.55727L7.19567 9.27025C7.22927 9.23689 7.25591 9.19657 7.27439 9.15217C7.27511 9.15049 7.27535 9.14857 7.27607 9.14665C7.29215 9.10585 7.30151 9.06169 7.30175 9.01537C7.30175 8.96881 7.29215 8.92465 7.27607 8.88385C7.27535 8.88217 7.27511 8.88025 7.27439 8.87857C7.23791 8.78977 7.16711 8.71897 7.07831 8.68249C7.07663 8.68177 7.07471 8.68153 7.07303 8.68081C7.03223 8.66473 6.98807 8.65513 6.94151 8.65513H4.85135L8.02223 5.48449L9.89471 7.37521C10.0346 7.51609 10.2624 7.51753 10.404 7.37761C10.5451 7.23769 10.5463 7.00969 10.4064 6.86833L8.27927 4.72057C8.21183 4.65265 8.12015 4.61425 8.02439 4.61401C7.91783 4.61473 7.83671 4.65193 7.76903 4.71937L3.72767 8.76073C3.62471 8.86369 3.59375 9.01849 3.64967 9.15313C3.70535 9.28777 3.83663 9.37537 3.98231 9.37537H6.07271L2.43383 13.0143C2.33063 13.117 2.29991 13.272 2.35559 13.4064C2.41127 13.5411 2.54255 13.6287 2.68823 13.6287H4.86143L1.30583 17.1847C1.20287 17.2877 1.17191 17.4425 1.22783 17.5771C1.28351 17.7118 1.41479 17.7994 1.56047 17.7994H6.63287V21.8491C6.63287 22.0479 6.79391 22.2091 6.99287 22.2091H8.99543C9.19439 22.2091 9.35543 22.0479 9.35543 21.8491V17.7991H12.6624C12.8611 17.7991 13.0224 17.6379 13.0224 17.4391C13.0224 17.2404 12.8611 17.0791 12.6624 17.0791Z" fill="#F0F0F0"/>
<path d="M22.6951 14.5877L19.0987 10.9555H21.2915C21.4367 10.9555 21.5678 10.8682 21.6239 10.7343C21.6796 10.6001 21.6496 10.4455 21.5474 10.3423L17.8665 6.62546H19.9737C20.1189 6.62546 20.2499 6.5381 20.3061 6.40418C20.3618 6.27002 20.3318 6.11546 20.2295 6.01226L16.1551 1.8977C16.0879 1.82978 15.9959 1.79138 15.9002 1.79114C15.8997 1.79114 15.8995 1.79114 15.8992 1.79114C15.8039 1.79114 15.7123 1.82906 15.6446 1.8965L11.5307 6.01082C11.4278 6.11378 11.3968 6.26858 11.4527 6.40322C11.5084 6.53786 11.6397 6.62546 11.7854 6.62546H13.9291L10.2131 10.3409C10.1102 10.4439 10.0792 10.5987 10.1351 10.7333C10.1908 10.8677 10.3221 10.9555 10.4678 10.9555H12.6955L9.06498 14.5865C8.96203 14.6895 8.93106 14.8443 8.98698 14.9789C9.04266 15.1135 9.17395 15.2011 9.31963 15.2011H14.4904V19.3303C14.4904 19.5291 14.6517 19.6903 14.8504 19.6903H16.8885C17.0872 19.6903 17.2485 19.5291 17.2485 19.3303V15.2011H22.4395C22.5847 15.2011 22.7157 15.1138 22.7719 14.9796C22.8275 14.8455 22.7975 14.6911 22.6951 14.5877ZM16.8885 14.4811C16.6898 14.4811 16.5285 14.6424 16.5285 14.8411V18.9703H15.2104V14.8411C15.2104 14.6424 15.0491 14.4811 14.8504 14.4811H10.1887L13.8189 10.8502C13.9219 10.7472 13.9528 10.5924 13.8969 10.4578C13.841 10.3231 13.7099 10.2355 13.5643 10.2355H11.3366L15.0523 6.52034C15.0856 6.48698 15.1125 6.4469 15.1307 6.4025C15.1315 6.40058 15.1317 6.39866 15.1324 6.39698C15.1485 6.35618 15.1579 6.31226 15.1579 6.2657C15.1579 6.21914 15.1483 6.17522 15.1322 6.13442C15.1315 6.13274 15.1312 6.13082 15.1305 6.12914C15.094 6.04034 15.0232 5.96978 14.9344 5.93306C14.9327 5.93234 14.9308 5.9321 14.9289 5.93138C14.8881 5.9153 14.8439 5.9057 14.7976 5.9057H12.6539L15.8978 2.66162L19.1102 5.9057H17.0051C16.8064 5.9057 16.6451 6.06674 16.6451 6.2657C16.6451 6.26594 16.6451 6.26642 16.6451 6.26666C16.6451 6.31058 16.6543 6.35234 16.6689 6.39122C16.6706 6.39602 16.6713 6.40082 16.6732 6.40538C16.6895 6.44426 16.7133 6.47882 16.7414 6.5093C16.7447 6.5129 16.7457 6.5177 16.7493 6.5213L20.4275 10.2358H18.2349C18.0897 10.2358 17.9587 10.3231 17.9025 10.4571C17.8468 10.5912 17.8768 10.7458 17.9791 10.849L21.5755 14.4814L16.8885 14.4811Z" fill="#F0F0F0"/>
</svg>
