<svg width="24" height="24" viewBox="0 0 24 24" fill="none" xmlns="http://www.w3.org/2000/svg">
<path d="M17.0836 2.80651C17.0287 2.68411 16.9106 2.60227 16.7767 2.59435C16.6399 2.58427 16.5153 2.65339 16.4464 2.76835L14.9995 5.17723C14.897 5.34764 14.9524 5.56891 15.1228 5.67115C15.293 5.77363 15.5145 5.71868 15.617 5.54804L16.3406 4.34323C16.0787 6.7418 14.8387 9.1322 12.8457 11.0227C10.4846 13.2624 7.4337 14.4957 4.25514 14.4957C4.05618 14.4957 3.89514 14.657 3.89514 14.8557C3.89514 15.0544 4.05618 15.2157 4.25514 15.2157C7.61898 15.2157 10.8458 13.912 13.3413 11.5452C15.4379 9.55652 16.7527 7.03604 17.05 4.49323L17.5871 5.69372C17.6469 5.8274 17.7784 5.90683 17.9159 5.90683C17.9651 5.90683 18.0151 5.89676 18.0626 5.8754C18.2443 5.79428 18.3256 5.58116 18.2443 5.39971L17.0836 2.80651Z" fill="#F0F0F0"/>
<path d="M4.34437 17.1437C4.14541 17.1437 3.98438 17.305 3.98438 17.5037V21.0466C3.98438 21.2453 4.14541 21.4066 4.34437 21.4066C4.54333 21.4066 4.70437 21.2453 4.70437 21.0466V17.5037C4.70437 17.305 4.54333 17.1437 4.34437 17.1437Z" fill="#F0F0F0"/>
<path d="M9.76894 15.642C9.56998 15.642 9.40894 15.8032 9.40894 16.002V21.0465C9.40894 21.2452 9.56998 21.4065 9.76894 21.4065C9.9679 21.4065 10.1289 21.2452 10.1289 21.0465V16.002C10.1289 15.8032 9.9679 15.642 9.76894 15.642Z" fill="#F0F0F0"/>
<path d="M15.0704 12.0609C14.8717 12.0609 14.7104 12.2222 14.7104 12.4209V21.0463C14.7104 21.245 14.8717 21.4063 15.0704 21.4063C15.2692 21.4063 15.4304 21.245 15.4304 21.0463V12.4209C15.4304 12.2222 15.2692 12.0609 15.0704 12.0609Z" fill="#F0F0F0"/>
<path d="M19.745 3.43579C19.5463 3.43579 19.385 3.59683 19.385 3.79579V21.0463C19.385 21.245 19.5463 21.4063 19.745 21.4063C19.9437 21.4063 20.105 21.245 20.105 21.0463V3.79579C20.105 3.59683 19.944 3.43579 19.745 3.43579Z" fill="#F0F0F0"/>
</svg>
