<svg xmlns="http://www.w3.org/2000/svg" viewBox="0 0 32 32" width="32" height="32" fill="none">
<svg x="0" y="0" width="28.455" height="28.456" viewBox="0 0 28.455 28.456" overflow="visible"><path d="M 14.228 0 C 6.383 0 0 6.383 0 14.228 C 0 22.074 6.383 28.456 14.228 28.456 C 22.073 28.456 28.455 22.073 28.455 14.228 C 28.455 6.383 22.073 0 14.228 0 Z M 14.228 27.499 C 6.91 27.499 0.957 21.546 0.957 14.228 C 0.957 6.91 6.91 0.957 14.228 0.957 C 21.545 0.957 27.499 6.91 27.499 14.228 C 27.499 21.546 21.545 27.499 14.228 27.499 Z" fill="currentColor" fill-rule="nonzero"></path></svg>
<svg x="7.9" y="16.539" width="12.656" height="6.807" viewBox="0 0 12.656 6.807" overflow="visible"><path d="M 12.178 0 L 0.478 0 C 0.214 0 0 0.214 0 0.478 C 0 3.968 2.838 6.807 6.327 6.807 C 9.817 6.807 12.656 3.968 12.656 0.478 C 12.656 0.214 12.442 0 12.178 0 Z M 6.327 5.85 C 3.527 5.85 1.221 3.695 0.978 0.957 L 11.678 0.957 C 11.435 3.695 9.128 5.85 6.327 5.85 Z" fill="currentColor" fill-rule="nonzero"></path></svg>
<svg x="6.09" y="7.621" width="4.679" height="4.679" viewBox="0 0 4.679 4.679" overflow="visible"><path d="M 4.679 2.34 C 4.679 1.05 3.629 0 2.34 0 C 1.05 0 0 1.05 0 2.34 C 0 3.629 1.05 4.679 2.34 4.679 C 3.63 4.679 4.679 3.629 4.679 2.34 Z M 0.957 2.34 C 0.957 1.577 1.577 0.957 2.34 0.957 C 3.102 0.957 3.723 1.577 3.723 2.34 C 3.723 3.102 3.102 3.723 2.34 3.723 C 1.577 3.723 0.957 3.102 0.957 2.34 Z" fill="currentColor" fill-rule="nonzero"></path></svg>
<svg x="17.421" y="7.621" width="4.679" height="4.679" viewBox="0 0 4.679 4.679" overflow="visible"><path d="M 2.34 0 C 1.049 0 0 1.05 0 2.34 C 0 3.629 1.049 4.679 2.34 4.679 C 3.63 4.679 4.679 3.629 4.679 2.34 C 4.679 1.05 3.629 0 2.34 0 Z M 2.34 3.723 C 1.577 3.723 0.957 3.102 0.957 2.34 C 0.957 1.577 1.577 0.957 2.34 0.957 C 3.102 0.957 3.723 1.577 3.723 2.34 C 3.723 3.102 3.102 3.723 2.34 3.723 Z" fill="currentColor" fill-rule="nonzero"></path></svg>
</svg>