<svg width="32" height="18" viewBox="0 0 32 18" fill="none" xmlns="http://www.w3.org/2000/svg">
<path d="M15.2588 0.5C16.5379 0.538783 16.9011 0.614338 17.3789 0.724609C17.6809 0.794342 17.8145 0.900412 17.8936 1.01367C17.9858 1.14594 18.0561 1.36399 18.0859 1.75586C18.1155 2.14529 18.1015 2.63676 18.0771 3.27637C18.0531 3.90665 18.0205 4.66162 18.0205 5.54395C18.0205 6.04131 17.971 6.78889 18.0225 7.41211C18.0727 8.01944 18.2301 8.76855 18.8369 9.16699V9.16797C19.045 9.30667 19.3104 9.36264 19.6084 9.28613C19.8809 9.21617 20.1564 9.04266 20.4453 8.78125C21.0232 8.25835 21.7967 7.2538 22.8711 5.44336L22.873 5.43945C23.3817 4.56449 23.8269 3.61423 24.1426 2.8877C24.3009 2.52331 24.4281 2.21206 24.5156 1.99219C24.5594 1.88239 24.5931 1.79458 24.6162 1.73438C24.6277 1.70442 24.6365 1.68099 24.6426 1.66504H24.6416C24.644 1.66033 24.6485 1.65334 24.6533 1.64453C24.666 1.62122 24.6858 1.58674 24.7129 1.54785C24.7681 1.46852 24.8378 1.3922 24.9141 1.3418C24.9632 1.31575 25.0361 1.29672 25.1191 1.29004C25.1586 1.28688 25.193 1.28735 25.2158 1.28809C25.2254 1.2884 25.233 1.28876 25.2373 1.28906L25.2666 1.29199H25.2969L30.0488 1.25195H30.0742L30.0996 1.24902C30.101 1.24888 30.1046 1.24939 30.1084 1.24902C30.1162 1.24828 30.1289 1.24642 30.1455 1.24512C30.1789 1.2425 30.2285 1.23949 30.2891 1.2373C30.412 1.23287 30.5735 1.2333 30.7363 1.25C30.9039 1.26718 31.0456 1.29889 31.1445 1.34277C31.2018 1.36822 31.2268 1.38911 31.2363 1.39941C31.2515 1.45774 31.2615 1.58214 31.2061 1.80762C31.1474 2.04583 31.0278 2.35378 30.832 2.73828C30.4407 3.50689 29.7779 4.51975 28.8145 5.79785L28.8135 5.79883C28.0333 6.839 27.378 7.65807 26.9414 8.25195C26.5048 8.84596 26.176 9.355 26.0713 9.8457C25.9513 10.4081 26.1337 10.87 26.4785 11.3164C26.8003 11.733 27.316 12.2031 27.9629 12.8018L27.9639 12.8027C30.453 15.0974 30.9318 16.1981 30.9834 16.3018L30.9932 16.3213L31.0049 16.3398C31.2353 16.7153 31.233 16.9141 31.2148 16.9951C31.198 17.07 31.1432 17.1495 31.0039 17.2314C30.8616 17.3151 30.6788 17.3702 30.5137 17.4033C30.4346 17.4192 30.3666 17.4292 30.3193 17.4346C30.2958 17.4372 30.2777 17.4386 30.2666 17.4395H30.2646L26.04 17.4795H25.9893L25.9395 17.4902C25.9381 17.4904 25.9364 17.491 25.9346 17.4912C25.9205 17.4932 25.8944 17.4961 25.8574 17.498C25.7832 17.502 25.6653 17.5016 25.5127 17.4795C25.21 17.4357 24.7592 17.3053 24.2324 16.9365L24.2256 16.9316L23.9619 16.7354C23.6961 16.5209 23.4234 16.2526 23.1426 15.9521C22.7587 15.5416 22.4144 15.1324 22.0342 14.7129C21.6743 14.3158 21.2968 13.9271 20.9199 13.6621C20.5529 13.4041 20.074 13.1844 19.5605 13.3438L19.5508 13.3467C19.0929 13.4993 18.789 13.8473 18.5908 14.2031C18.3927 14.559 18.2737 14.9689 18.1992 15.3359C18.1239 15.7072 18.089 16.0609 18.0732 16.3193C18.0653 16.449 18.0619 16.5566 18.0605 16.6328V16.75C18.0605 16.7514 18.0597 16.7543 18.0596 16.7588C18.0592 16.7682 18.0592 16.7843 18.0576 16.8047C18.0544 16.8461 18.0476 16.9036 18.0352 16.9658C18.0065 17.1091 17.962 17.197 17.9297 17.2295C17.8514 17.3078 17.7185 17.3764 17.5703 17.4258C17.5019 17.4486 17.4408 17.4642 17.3975 17.4736C17.3868 17.4759 17.3771 17.4779 17.3691 17.4795H15.4941L15.4775 17.4805H15.4736C15.4684 17.4807 15.459 17.481 15.4463 17.4814C15.4205 17.4823 15.3796 17.4834 15.3252 17.4834C15.2162 17.4834 15.0517 17.4801 14.8418 17.4639C14.4218 17.4313 13.8189 17.3494 13.1045 17.1514C11.6775 16.7557 9.80151 15.8957 8.03223 14.0312L8.03027 14.0293L7.66504 13.6367C5.84836 11.6208 4.12828 8.78214 2.82812 6.3623C2.13765 5.07718 1.5706 3.91996 1.17676 3.08496C0.980056 2.66792 0.826734 2.33139 0.722656 2.09961C0.670597 1.98367 0.631059 1.89347 0.604492 1.83301C0.591262 1.8029 0.580823 1.77983 0.574219 1.76465C0.571043 1.75735 0.568967 1.75171 0.567383 1.74805C0.566578 1.74619 0.564828 1.74403 0.564453 1.74316H0.56543L0.560547 1.7334V1.73242L0.55957 1.73145C0.559121 1.73039 0.558285 1.72915 0.557617 1.72754C0.55448 1.71994 0.549954 1.70647 0.543945 1.68945C0.531432 1.654 0.517585 1.60697 0.508789 1.55859C0.499917 1.50966 0.498639 1.47449 0.500977 1.4541L0.505859 1.44824C0.498673 1.45782 0.505903 1.44281 0.557617 1.41895C0.607021 1.39615 0.672773 1.37639 0.748047 1.36133C0.821515 1.34663 0.891849 1.33885 0.944336 1.33496C0.970114 1.33305 0.991046 1.33245 1.00391 1.33203H1.02148L5.25488 1.29199C5.42833 1.29208 5.59071 1.31566 5.72363 1.35254C5.86335 1.39135 5.94335 1.4373 5.97168 1.45996L5.98828 1.47363L6.00586 1.48535C6.03729 1.5063 6.09121 1.56443 6.14844 1.6543C6.1734 1.69352 6.19369 1.73007 6.20703 1.75586C6.21355 1.76847 6.21801 1.77853 6.2207 1.78418C6.22197 1.78685 6.22335 1.78846 6.22363 1.78906C6.22433 1.79077 6.22479 1.79297 6.22559 1.79492C6.23158 1.80958 6.24054 1.83085 6.25195 1.8584C6.27495 1.9139 6.30823 1.99494 6.35156 2.09668C6.43829 2.3003 6.56432 2.58879 6.71973 2.92969C7.02993 3.61013 7.46262 4.50658 7.94824 5.35645L7.94922 5.35938C8.90084 7.00487 9.62137 8.05293 10.2041 8.64648C10.4952 8.94298 10.7883 9.16418 11.0957 9.26855C11.4279 9.38127 11.7451 9.34567 12.0254 9.19043L12.0264 9.19141C12.2694 9.0597 12.4279 8.84009 12.5342 8.63379C12.6431 8.42219 12.7223 8.17585 12.7812 7.9248C12.8993 7.42206 12.9552 6.82326 12.9805 6.26465C13.0059 5.70147 13.0016 5.15739 12.9902 4.75586C12.9845 4.5547 12.9766 4.3882 12.9707 4.27148C12.9678 4.21332 12.9657 4.16741 12.9639 4.13574C12.9629 4.1199 12.9615 4.1071 12.9609 4.09863C12.9607 4.09449 12.9611 4.09113 12.9609 4.08887L12.96 4.08789C12.9598 4.07609 12.9604 4.0609 12.96 4.04297C12.9589 3.99758 12.9571 3.93327 12.9531 3.85449C12.9452 3.69692 12.9294 3.47824 12.8975 3.23633C12.8374 2.78132 12.7088 2.14 12.3965 1.69531H12.3975C12.145 1.33068 11.7823 1.11313 11.4697 0.983398C11.436 0.969404 11.4015 0.958664 11.3682 0.946289C11.4197 0.909886 11.4738 0.875373 11.5303 0.84668C11.8589 0.690774 12.3454 0.596206 13.0029 0.547852C13.6504 0.500242 14.4078 0.500005 15.2588 0.5ZM25.9424 17.4902L25.9443 17.4893C25.9434 17.4894 25.9421 17.49 25.9404 17.4902H25.9424Z" stroke="#F0F0F0" stroke-width="2"/>
</svg>
