<svg xmlns="http://www.w3.org/2000/svg" viewBox="0 0 32 32" width="32" height="32" fill="none">
<svg x="2.416" y="3.896" width="27.055" height="24.093" viewBox="0 0 27.055 24.093" overflow="visible"><path d="M 27.05 18.271 C 26.989 16.539 26.45 14.453 25.531 12.397 C 23.513 7.876 20.498 5.131 18.52 6.016 L 17.37 6.529 L 17.37 3.801 C 17.37 1.634 13.636 0 8.685 0 C 3.734 0 0 1.634 0 3.801 L 0 8.685 C 0 8.711 0.004 8.736 0.008 8.76 C 0.004 8.785 0 8.81 0 8.836 C 0 8.88 0.004 8.924 0.007 8.967 C 0.004 8.99 0 9.013 0 9.037 L 0 13.921 C 0 13.947 0.004 13.972 0.008 13.997 C 0.004 14.022 0 14.046 0 14.072 C 0 14.127 0.004 14.182 0.009 14.236 C 0.004 14.265 0 14.294 0 14.324 L 0 19.207 C 0 19.233 0.004 19.258 0.008 19.283 C 0.004 19.308 0 19.332 0 19.358 C 0 21.525 3.734 23.16 8.685 23.16 C 11.823 23.16 14.684 22.445 16.196 21.314 C 17.545 23.063 18.996 24.093 20.212 24.093 C 20.489 24.093 20.755 24.04 21.004 23.928 L 25.601 21.876 C 26.601 21.431 27.116 20.15 27.05 18.271 Z M 8.685 0.957 C 13.239 0.957 16.413 2.456 16.413 3.801 C 16.413 5.147 13.239 6.646 8.685 6.646 C 4.131 6.646 0.957 5.147 0.957 3.801 C 0.957 2.456 4.13 0.957 8.685 0.957 Z M 0.957 8.685 L 0.957 5.59 C 2.371 6.807 5.231 7.603 8.685 7.603 C 12.139 7.603 14.999 6.807 16.413 5.59 L 16.413 6.956 L 13.921 8.068 C 12.963 8.497 12.477 9.676 12.459 11.29 C 11.306 11.542 10.015 11.681 8.685 11.681 C 4.13 11.681 0.956 10.182 0.956 8.837 C 0.956 8.811 0.953 8.786 0.949 8.761 C 0.953 8.736 0.957 8.711 0.957 8.685 Z M 0.957 13.922 L 0.957 10.625 C 2.371 11.842 5.231 12.638 8.685 12.638 C 10.018 12.638 11.324 12.51 12.501 12.267 C 12.61 13.45 12.927 14.8 13.453 16.227 C 12.04 16.684 10.44 16.917 8.685 16.917 C 4.13 16.917 0.957 15.418 0.957 14.073 C 0.957 14.047 0.953 14.022 0.949 13.997 C 0.953 13.972 0.957 13.948 0.957 13.922 Z M 8.685 22.204 C 4.13 22.204 0.957 20.705 0.957 19.359 C 0.957 19.333 0.953 19.308 0.949 19.284 C 0.953 19.259 0.957 19.234 0.957 19.208 L 0.957 15.861 C 2.371 17.078 5.231 17.874 8.685 17.874 C 10.564 17.874 12.282 17.617 13.805 17.117 C 13.865 17.261 13.927 17.404 13.992 17.549 C 14.49 18.665 15.051 19.668 15.64 20.54 C 14.321 21.544 11.605 22.204 8.685 22.204 Z M 20.614 23.056 C 19.385 23.604 16.722 21.317 14.866 17.159 C 13.009 13 13.083 9.49 14.31 8.942 L 17.282 7.616 C 17.117 8.171 17.044 8.845 17.071 9.622 C 17.132 11.354 17.671 13.44 18.59 15.496 C 19.999 18.652 21.892 20.937 23.581 21.732 L 20.614 23.056 Z M 25.211 21.004 C 23.983 21.551 21.32 19.265 19.463 15.106 C 18.594 13.159 18.084 11.2 18.027 9.588 C 17.977 8.146 18.298 7.162 18.91 6.889 C 19.031 6.835 19.165 6.809 19.312 6.809 C 20.655 6.809 22.984 9.037 24.659 12.787 C 25.528 14.734 26.038 16.693 26.094 18.304 C 26.145 19.747 25.823 20.73 25.211 21.004 Z" fill="currentColor" fill-rule="nonzero"></path></svg>
</svg>