<svg width="32" height="32" viewBox="0 0 32 32" fill="none" xmlns="http://www.w3.org/2000/svg">
<path d="M21.3538 12.6462C21.4002 12.6927 21.4371 12.7478 21.4623 12.8085C21.4874 12.8692 21.5004 12.9343 21.5004 13C21.5004 13.0657 21.4874 13.1308 21.4623 13.1915C21.4371 13.2522 21.4002 13.3073 21.3538 13.3538L14.3538 20.3538C14.3073 20.4002 14.2522 20.4371 14.1915 20.4623C14.1308 20.4874 14.0657 20.5004 14 20.5004C13.9343 20.5004 13.8692 20.4874 13.8085 20.4623C13.7478 20.4371 13.6927 20.4002 13.6463 20.3538L10.6463 17.3538C10.5524 17.2599 10.4997 17.1327 10.4997 17C10.4997 16.8673 10.5524 16.7401 10.6463 16.6462C10.7401 16.5524 10.8673 16.4997 11 16.4997C11.1327 16.4997 11.2599 16.5524 11.3538 16.6462L14 19.2925L20.6463 12.6462C20.6927 12.5998 20.7478 12.5629 20.8085 12.5377C20.8692 12.5126 20.9343 12.4996 21 12.4996C21.0657 12.4996 21.1308 12.5126 21.1915 12.5377C21.2522 12.5629 21.3073 12.5998 21.3538 12.6462ZM28.5 16C28.5 18.4723 27.7669 20.889 26.3934 22.9446C25.0199 25.0002 23.0676 26.6024 20.7835 27.5485C18.4995 28.4946 15.9861 28.7421 13.5614 28.2598C11.1366 27.7775 8.90933 26.587 7.16117 24.8388C5.41301 23.0907 4.2225 20.8634 3.74019 18.4386C3.25787 16.0139 3.50542 13.5005 4.45151 11.2165C5.39761 8.93238 6.99976 6.98015 9.05538 5.60663C11.111 4.23311 13.5277 3.5 16 3.5C19.3141 3.50364 22.4914 4.82177 24.8348 7.16518C27.1782 9.5086 28.4964 12.6859 28.5 16ZM27.5 16C27.5 13.7255 26.8255 11.5021 25.5619 9.61094C24.2983 7.71978 22.5022 6.24579 20.4009 5.37539C18.2995 4.50498 15.9872 4.27724 13.7565 4.72097C11.5257 5.1647 9.47658 6.25997 7.86828 7.86827C6.25997 9.47658 5.1647 11.5257 4.72097 13.7565C4.27724 15.9872 4.50498 18.2995 5.37539 20.4009C6.2458 22.5022 7.71978 24.2983 9.61095 25.5619C11.5021 26.8255 13.7255 27.5 16 27.5C19.049 27.4967 21.9721 26.284 24.1281 24.1281C26.284 21.9721 27.4967 19.049 27.5 16Z" fill="#355C4B"/>
</svg>
