<svg width="32" height="32" viewBox="0 0 32 32" fill="none" xmlns="http://www.w3.org/2000/svg">
<path d="M24.5 9.455V5C24.5 4.60218 24.342 4.22064 24.0607 3.93934C23.7794 3.65804 23.3978 3.5 23 3.5H9C8.60218 3.5 8.22064 3.65804 7.93934 3.93934C7.65804 4.22064 7.5 4.60218 7.5 5V9.5C7.5 9.73287 7.55422 9.96254 7.65836 10.1708C7.7625 10.3791 7.91371 10.5603 8.1 10.7L15.1663 16L8.1 21.3C7.91371 21.4397 7.7625 21.6209 7.65836 21.8292C7.55422 22.0375 7.5 22.2671 7.5 22.5V27C7.5 27.3978 7.65804 27.7794 7.93934 28.0607C8.22064 28.342 8.60218 28.5 9 28.5H23C23.3978 28.5 23.7794 28.342 24.0607 28.0607C24.342 27.7794 24.5 27.3978 24.5 27V22.545C24.4995 22.3133 24.4456 22.0848 24.3424 21.8773C24.2392 21.6698 24.0895 21.4889 23.905 21.3487L16.8288 16L23.905 10.6512C24.0895 10.5111 24.2392 10.3302 24.3424 10.1227C24.4456 9.91522 24.4995 9.68673 24.5 9.455ZM16 15.375L10.8337 11.5H21.125L16 15.375ZM23.5 22.5462V27C23.5 27.1326 23.4473 27.2598 23.3536 27.3536C23.2598 27.4473 23.1326 27.5 23 27.5H9C8.86739 27.5 8.74021 27.4473 8.64645 27.3536C8.55268 27.2598 8.5 27.1326 8.5 27V22.5C8.5 22.4224 8.51807 22.3458 8.55279 22.2764C8.5875 22.207 8.6379 22.1466 8.7 22.1L15.5 17V21C15.5 21.1326 15.5527 21.2598 15.6464 21.3536C15.7402 21.4473 15.8674 21.5 16 21.5C16.1326 21.5 16.2598 21.4473 16.3536 21.3536C16.4473 21.2598 16.5 21.1326 16.5 21V17L23.3013 22.1413C23.3636 22.1883 23.4141 22.2494 23.4486 22.3195C23.4831 22.3896 23.5007 22.4669 23.5 22.545V22.5462ZM23.5 9.45625C23.5 9.53356 23.482 9.6098 23.4475 9.67899C23.413 9.74817 23.363 9.80842 23.3013 9.855L22.4475 10.5H9.5L8.7 9.9C8.6379 9.85343 8.5875 9.79303 8.55279 9.72361C8.51807 9.65418 8.5 9.57762 8.5 9.5V5C8.5 4.86739 8.55268 4.74021 8.64645 4.64645C8.74021 4.55268 8.86739 4.5 9 4.5H23C23.1326 4.5 23.2598 4.55268 23.3536 4.64645C23.4473 4.74021 23.5 4.86739 23.5 5V9.45625Z" fill="#355C4B"/>
</svg>
