<svg xmlns="http://www.w3.org/2000/svg" viewBox="0 0 32 32" width="32" height="32" fill="none">
<svg x="4.047" y="2.106" width="22.991" height="28.19" viewBox="0 0 22.991 28.190" overflow="visible"><path d="M 22.513 14.455 L 11.975 14.455 L 11.975 11.238 L 17.503 11.238 C 17.608 11.238 17.71 11.203 17.794 11.139 L 22.804 7.3 C 22.923 7.209 22.992 7.068 22.991 6.918 C 22.991 6.769 22.92 6.628 22.801 6.538 L 17.79 2.767 C 17.707 2.705 17.606 2.671 17.503 2.671 L 11.975 2.671 L 11.975 0.478 C 11.975 0.214 11.761 0 11.496 0 C 11.232 0 11.018 0.214 11.018 0.478 L 11.018 2.671 L 0.478 2.671 C 0.214 2.671 0 2.885 0 3.149 L 0 10.76 C 0 11.024 0.214 11.238 0.478 11.238 L 11.018 11.238 L 11.018 14.455 L 5.49 14.455 C 5.385 14.455 5.283 14.489 5.2 14.553 L 0.188 18.393 C 0.069 18.484 -0.001 18.625 0 18.774 C 0.001 18.924 0.071 19.065 0.191 19.154 L 5.203 22.925 C 5.286 22.988 5.387 23.021 5.49 23.021 L 11.018 23.021 L 11.018 27.233 L 4.419 27.233 C 4.154 27.233 3.94 27.447 3.94 27.711 C 3.94 27.975 4.154 28.19 4.419 28.19 L 18.574 28.19 C 18.838 28.19 19.052 27.975 19.052 27.711 C 19.052 27.447 18.838 27.233 18.574 27.233 L 11.975 27.233 L 11.975 23.022 L 22.513 23.022 C 22.777 23.022 22.991 22.807 22.991 22.543 L 22.991 14.933 C 22.991 14.669 22.777 14.455 22.513 14.455 Z M 0.957 3.628 L 17.343 3.628 L 21.722 6.924 L 17.34 10.281 L 0.957 10.281 L 0.957 3.628 Z M 22.035 22.065 L 5.65 22.065 L 1.269 18.769 L 5.652 15.411 L 22.035 15.411 L 22.035 22.065 Z" fill="currentColor" fill-rule="nonzero"></path></svg>
</svg>