<svg xmlns="http://www.w3.org/2000/svg" viewBox="0 0 32 32" width="32" height="32" fill="none">
<svg x="9.26" y="10.684" width="10.632" height="8.644" viewBox="0 0 10.632 8.644" overflow="visible"><path d="M 9.844 0.1 L 0.18 7.78 C -0.012 7.94 -0.076 8.26 0.116 8.452 C 0.212 8.58 0.34 8.644 0.5 8.644 C 0.596 8.644 0.724 8.612 0.788 8.548 L 10.452 0.868 C 10.644 0.708 10.708 0.388 10.516 0.196 C 10.356 -0.028 10.068 -0.06 9.844 0.1 Z" fill="currentColor" fill-rule="nonzero"></path></svg>
<svg x="9.605" y="9.317" width="4.861" height="4.891" viewBox="0 0 4.861 4.891" overflow="visible"><path d="M 2.427 4.891 C 2.555 4.891 2.683 4.891 2.811 4.859 C 4.123 4.667 5.051 3.419 4.827 2.075 C 4.731 1.435 4.379 0.859 3.867 0.475 C 3.355 0.091 2.715 -0.069 2.075 0.027 C 1.435 0.123 0.859 0.475 0.475 0.987 C 0.091 1.499 -0.069 2.139 0.027 2.779 C 0.219 4.027 1.275 4.891 2.427 4.891 Z M 2.203 1.019 C 2.267 1.019 2.363 0.987 2.427 0.987 C 3.131 0.987 3.771 1.499 3.867 2.235 C 3.995 3.035 3.451 3.771 2.651 3.899 C 1.851 4.027 1.115 3.483 0.987 2.683 C 0.859 1.883 1.435 1.147 2.203 1.019 Z" fill="currentColor" fill-rule="nonzero"></path></svg>
<svg x="14.72" y="15.808" width="4.864" height="4.864" viewBox="0 0 4.864 4.864" overflow="visible"><path d="M 2.432 0 C 1.088 0 0 1.088 0 2.432 C 0 3.776 1.088 4.864 2.432 4.864 C 3.776 4.864 4.864 3.776 4.864 2.432 C 4.832 1.088 3.744 0 2.432 0 Z M 2.432 3.872 C 1.632 3.872 0.96 3.2 0.96 2.4 C 0.96 1.6 1.632 0.928 2.432 0.928 C 3.232 0.928 3.904 1.6 3.904 2.4 C 3.872 3.232 3.232 3.872 2.432 3.872 Z" fill="currentColor" fill-rule="nonzero"></path></svg>
<svg x="0" y="0" width="29.152" height="29.376" viewBox="0 0 29.152 29.376" overflow="visible"><path d="M 29.12 14.688 C 29.12 14.656 29.152 14.592 29.152 14.56 C 29.152 13.184 27.712 12.48 26.464 11.872 C 25.568 11.424 24.608 10.944 24.352 10.368 C 24.096 9.76 24.448 8.768 24.8 7.84 C 25.28 6.528 25.76 5.184 24.864 4.288 C 23.968 3.392 22.688 3.712 21.408 4 C 20.512 4.192 19.584 4.416 18.976 4.16 C 18.368 3.904 17.856 3.104 17.376 2.336 C 16.672 1.248 15.904 0 14.56 0 C 13.216 0 12.448 1.248 11.776 2.368 C 11.296 3.168 10.816 3.968 10.208 4.224 C 9.6 4.48 8.64 4.256 7.744 4.032 C 6.464 3.712 5.152 3.392 4.288 4.256 C 3.392 5.152 3.84 6.496 4.256 7.808 C 4.576 8.768 4.864 9.728 4.608 10.368 C 4.352 10.976 3.456 11.424 2.592 11.872 C 1.376 12.512 0 13.216 0 14.56 C 0 14.592 0 14.656 0.032 14.688 C 0.032 14.72 0 14.784 0 14.816 C 0 16.16 1.376 16.896 2.592 17.504 C 3.456 17.952 4.352 18.4 4.608 19.008 C 4.864 19.616 4.544 20.608 4.256 21.568 C 3.84 22.88 3.392 24.224 4.288 25.12 C 5.184 26.016 6.496 25.664 7.744 25.344 C 8.64 25.12 9.6 24.896 10.208 25.152 C 10.816 25.408 11.296 26.208 11.776 27.008 C 12.448 28.128 13.216 29.376 14.56 29.376 C 15.904 29.376 16.704 28.128 17.376 27.04 C 17.856 26.272 18.368 25.472 18.976 25.216 C 19.616 24.96 20.512 25.152 21.408 25.376 C 22.656 25.664 23.968 25.984 24.864 25.088 C 25.76 24.192 25.28 22.848 24.8 21.536 C 24.448 20.576 24.096 19.616 24.352 19.008 C 24.608 18.4 25.536 17.952 26.464 17.504 C 27.712 16.864 29.152 16.16 29.152 14.816 C 29.152 14.752 29.12 14.72 29.12 14.688 Z M 26.016 16.64 C 24.96 17.184 23.84 17.728 23.456 18.656 C 23.04 19.616 23.488 20.768 23.872 21.888 C 24.256 22.944 24.64 23.968 24.16 24.416 C 23.648 24.928 22.656 24.704 21.6 24.448 C 20.544 24.192 19.488 23.968 18.56 24.352 C 17.664 24.736 17.088 25.632 16.544 26.528 C 15.936 27.488 15.36 28.416 14.528 28.416 C 13.728 28.416 13.152 27.488 12.544 26.496 C 12 25.568 11.424 24.64 10.528 24.256 C 9.6 23.872 8.512 24.128 7.456 24.416 C 6.4 24.672 5.408 24.928 4.896 24.448 C 4.416 23.968 4.736 22.944 5.088 21.888 C 5.44 20.768 5.824 19.616 5.408 18.688 C 5.024 17.76 3.968 17.216 2.944 16.704 C 1.888 16.16 0.896 15.648 0.896 14.848 C 0.896 14.816 0.896 14.752 0.864 14.72 C 0.864 14.688 0.896 14.624 0.896 14.592 C 0.896 13.824 1.888 13.312 2.944 12.736 C 3.968 12.224 5.024 11.68 5.408 10.752 C 5.792 9.792 5.44 8.64 5.088 7.552 C 4.736 6.464 4.416 5.44 4.896 4.992 C 5.408 4.48 6.4 4.736 7.456 5.024 C 8.512 5.28 9.6 5.568 10.528 5.184 C 11.424 4.8 12 3.872 12.544 2.944 C 13.152 1.952 13.696 1.024 14.528 1.024 C 15.36 1.024 15.936 1.952 16.544 2.912 C 17.12 3.808 17.696 4.704 18.56 5.088 C 19.488 5.472 20.544 5.216 21.6 4.992 C 22.656 4.736 23.648 4.512 24.16 5.024 C 24.64 5.472 24.256 6.496 23.872 7.552 C 23.456 8.672 23.04 9.824 23.456 10.784 C 23.84 11.712 24.96 12.256 26.016 12.8 C 27.136 13.344 28.16 13.888 28.16 14.656 C 28.16 14.688 28.16 14.752 28.192 14.784 C 28.192 14.816 28.16 14.88 28.16 14.912 C 28.192 15.552 27.136 16.096 26.016 16.64 Z" fill="currentColor" fill-rule="nonzero"></path></svg>
</svg>