<svg width="85" height="51" viewBox="0 0 85 51" fill="none" xmlns="http://www.w3.org/2000/svg">
<path d="M10.4318 17.3628C10.4061 17.3628 10.2 17.4659 9.8136 17.672C9.42718 17.8523 8.78318 18.0325 7.88163 18.2129C6.98006 18.3932 6.03984 18.4834 5.06099 18.4834C1.73804 18.4834 0.0765583 16.7317 0.0765583 13.2285V6.54388H2.8972V13.1512C2.8972 14.4392 3.14192 15.3922 3.63135 16.0105C4.14653 16.6287 4.94508 16.9378 6.02697 16.9378C6.8255 16.9378 7.54676 16.8606 8.19075 16.706C8.83478 16.5514 9.33701 16.3969 9.69768 16.2423C10.0841 16.0877 10.3288 15.9847 10.4318 15.9332V6.54388H13.2525V25.8634H10.4318V17.3628ZM21.4784 26.2498C19.7782 26.2498 18.413 25.8376 17.3826 25.0134C16.3522 24.1633 15.8371 22.9912 15.8371 21.4972C15.8371 17.7105 19.482 15.4309 26.7719 14.6581V12.6103C26.7719 10.7814 26.4757 9.53204 25.8832 8.86229C25.2908 8.19255 24.2475 7.85762 22.7534 7.85762C22.0837 7.85762 21.401 7.98646 20.7055 8.24404C20.01 8.47587 19.4176 8.73345 18.9281 9.01678C18.4645 9.27436 18.1682 9.44187 18.0395 9.51911L17.7304 7.93487C17.8591 7.83187 18.1811 7.63872 18.6963 7.35529C19.2373 7.07196 19.9071 6.80146 20.7055 6.54388C21.5299 6.2863 22.3542 6.15756 23.1784 6.15756C25.3938 6.15756 27.0166 6.62123 28.047 7.54855C29.0774 8.47587 29.5926 10.1116 29.5926 12.4557V21.9223C29.5926 22.9526 29.6827 23.6481 29.8631 24.0087C30.069 24.3694 30.3138 24.5496 30.5971 24.5496C30.829 24.5496 31.1124 24.5111 31.4472 24.4337C31.7821 24.3307 32.001 24.2535 32.1041 24.2019L32.22 25.5156C32.014 25.593 31.576 25.7347 30.9063 25.9407C30.2366 26.1468 29.6698 26.2498 29.2061 26.2498C28.5364 26.2498 28.0212 26.0437 27.6606 25.6316C27.3 25.1936 27.081 24.4337 27.0037 23.3519H26.9651C26.9651 23.4549 26.759 23.7512 26.3468 24.2406C25.9348 24.73 25.3165 25.1936 24.4922 25.6316C23.6937 26.0437 22.689 26.2498 21.4784 26.2498ZM22.3284 24.5496C23.2558 24.5496 24.0543 24.3437 24.724 23.9315C25.3938 23.5193 25.8961 23.0685 26.2309 22.5791C26.5916 22.0897 26.7719 21.8063 26.7719 21.729V16.0877C24.4278 16.3453 22.4959 16.8476 20.976 17.5946C19.482 18.3417 18.735 19.5266 18.735 21.1494C18.735 22.2571 19.057 23.1072 19.701 23.6997C20.345 24.2663 21.2208 24.5496 22.3284 24.5496ZM34.3668 25.8634V6.54388H37.1489V21.9608L46.5768 6.54388H49.0883V25.8634H46.2676V10.0214L36.5307 25.8634H34.3668ZM53.3483 25.8634V6.54388H56.1303V15.3922L58.5259 14.0785L64.09 6.54388H66.0605L60.3419 14.4649L67.2197 25.8634H63.9741L58.2554 16.1651L56.1303 17.1696V25.8634H53.3483ZM73.4041 26.2498C71.7039 26.2498 70.3387 25.8376 69.3083 25.0134C68.278 24.1633 67.7628 22.9912 67.7628 21.4972C67.7628 17.7105 71.4077 15.4309 78.6976 14.6581V12.6103C78.6976 10.7814 78.4014 9.53204 77.8089 8.86229C77.2165 8.19255 76.1732 7.85762 74.6792 7.85762C74.0094 7.85762 73.3267 7.98646 72.6312 8.24404C71.9358 8.47587 71.3434 8.73345 70.8538 9.01678C70.3902 9.27436 70.0939 9.44187 69.9652 9.51911L69.6561 7.93487C69.7849 7.83187 70.1069 7.63872 70.622 7.35529C71.163 7.07196 71.8328 6.80146 72.6312 6.54388C73.4556 6.2863 74.2799 6.15756 75.1041 6.15756C77.3195 6.15756 78.9423 6.62123 79.9727 7.54855C81.0031 8.47587 81.5183 10.1116 81.5183 12.4557V21.9223C81.5183 22.9526 81.6084 23.6481 81.7888 24.0087C81.9947 24.3694 82.2395 24.5496 82.5228 24.5496C82.7547 24.5496 83.0381 24.5111 83.3729 24.4337C83.7078 24.3307 83.9267 24.2535 84.0298 24.2019L84.1457 25.5156C83.9397 25.593 83.5018 25.7347 82.832 25.9407C82.1623 26.1468 81.5955 26.2498 81.1318 26.2498C80.4621 26.2498 79.9469 26.0437 79.5863 25.6316C79.2257 25.1936 79.0067 24.4337 78.9294 23.3519H78.8908C78.8908 23.4549 78.6847 23.7512 78.2725 24.2406C77.8605 24.73 77.2422 25.1936 76.4179 25.6316C75.6194 26.0437 74.6147 26.2498 73.4041 26.2498ZM74.2541 24.5496C75.1815 24.5496 75.98 24.3437 76.6497 23.9315C77.3195 23.5193 77.8218 23.0685 78.1566 22.5791C78.5173 22.0897 78.6976 21.8063 78.6976 21.729V16.0877C76.3535 16.3453 74.4216 16.8476 72.9018 17.5946C71.4077 18.3417 70.6607 19.5266 70.6607 21.1494C70.6607 22.2571 70.9827 23.1072 71.6267 23.6997C72.2707 24.2663 73.1465 24.5496 74.2541 24.5496Z" fill="#F0F0F0"/>
<path d="M48.0349 0.0256482C48.2418 0.00410819 49.0577 -0.0336629 49.2319 0.0630168C49.0955 0.136053 48.818 0.302663 48.5998 0.3765C48.0482 0.563147 47.4604 0.841063 46.9592 1.13281C45.6627 1.88761 44.4867 3.15887 43.7011 4.4114C43.4178 4.86294 43.1782 5.68897 43.038 6.21074C42.4177 6.21074 41.9987 6.18159 41.4407 5.95958C40.3902 5.5416 39.9091 4.54956 39.1774 3.78654C38.809 3.40262 38.3945 3.13883 37.9389 2.87615C36.7156 2.21311 35.6151 2.02516 34.2404 1.97056C34.7209 1.67952 35.5877 1.49879 36.1319 1.35802C37.2901 1.06177 38.4708 1.03723 39.5411 1.59336C40.571 2.12836 41.3252 3.5537 42.6167 2.76434C43.2573 2.34536 43.8044 1.80796 44.4236 1.35221C45.6252 0.46817 46.5188 0.106398 48.0349 0.0256482Z" fill="#D96B2B"/>
<path d="M0.164388 30.4495C0.17119 29.7675 0.72552 29.2169 1.40748 29.215L4.41744 29.2068C5.03811 29.2051 5.63965 29.4079 6.12912 29.7895C7.29348 30.6974 9.5403 32.466 10.9406 33.6753C11.351 34.0297 11.1033 34.6383 10.5612 34.6374L1.39838 34.623C0.745748 34.622 0.20338 34.1167 0.1817 33.4644C0.148458 32.464 0.154399 31.4528 0.164388 30.4495Z" fill="#D96B2B"/>
<path d="M9.40709 30.5344C8.93371 30.1311 9.28867 29.2665 9.91033 29.2795C11.1624 29.3057 12.5703 29.2873 13.6302 29.2801C14.0054 29.2776 14.375 29.3707 14.6907 29.5736C16.1784 30.5303 18.0063 32.1633 19.6223 33.4955C20.0852 33.8771 19.8182 34.6739 19.2183 34.6796C17.8029 34.6931 16.3664 34.7002 14.9834 34.6513C14.7157 34.6418 14.4549 34.5622 14.2335 34.4114C12.9652 33.5474 10.9897 31.8827 9.40709 30.5344Z" fill="#D96B2B"/>
<path d="M18.5325 30.5344C18.0591 30.1311 18.414 29.2665 19.0357 29.2795C20.2877 29.3057 21.6956 29.2873 22.7556 29.2801C23.1308 29.2776 23.5004 29.3707 23.8161 29.5736C25.3037 30.5303 27.1316 32.1633 28.7476 33.4955C29.2106 33.8771 28.9436 34.6739 28.3437 34.6796C26.9283 34.6931 25.4918 34.7002 24.1087 34.6513C23.841 34.6418 23.5802 34.5622 23.3588 34.4114C22.0906 33.5474 20.1151 31.8827 18.5325 30.5344Z" fill="#D96B2B"/>
<path d="M27.6578 30.5344C27.1844 30.1311 27.5394 29.2665 28.161 29.2795C29.4131 29.3057 30.821 29.2873 31.881 29.2801C32.2562 29.2776 32.6257 29.3707 32.9414 29.5736C34.4291 30.5303 36.257 32.1633 37.873 33.4955C38.336 33.8771 38.069 34.6739 37.469 34.6796C36.0536 34.6931 34.6171 34.7002 33.2341 34.6513C32.9664 34.6418 32.7056 34.5622 32.4842 34.4114C31.2159 33.5474 29.2405 31.8827 27.6578 30.5344Z" fill="#D96B2B"/>
<path d="M36.7829 30.5344C36.3096 30.1311 36.6645 29.2665 37.2862 29.2795C38.5382 29.3057 39.9461 29.2873 41.006 29.2801C41.3813 29.2776 41.7509 29.3707 42.0665 29.5736C43.5542 30.5303 45.3821 32.1633 46.9981 33.4955C47.461 33.8771 47.194 34.6739 46.5941 34.6796C45.1788 34.6931 43.7422 34.7002 42.3592 34.6513C42.0915 34.6418 41.8307 34.5622 41.6093 34.4114C40.341 33.5474 38.3655 31.8827 36.7829 30.5344Z" fill="#D96B2B"/>
<path d="M45.9082 30.5344C45.4349 30.1311 45.7899 29.2665 46.4115 29.2795C47.6636 29.3057 49.0715 29.2873 50.1314 29.2801C50.5067 29.2776 50.8762 29.3707 51.1918 29.5736C52.6796 30.5303 54.5075 32.1633 56.1234 33.4955C56.5864 33.8771 56.3194 34.6739 55.7194 34.6796C54.3041 34.6931 52.8675 34.7002 51.4846 34.6513C51.2169 34.6418 50.9561 34.5622 50.7347 34.4114C49.4663 33.5474 47.4909 31.8827 45.9082 30.5344Z" fill="#D96B2B"/>
<path d="M55.0336 30.5344C54.5602 30.1311 54.9153 29.2665 55.537 29.2795C56.789 29.3057 58.1969 29.2873 59.2568 29.2801C59.6321 29.2776 60.0016 29.3707 60.3172 29.5736C61.805 30.5303 63.6329 32.1633 65.2488 33.4955C65.7118 33.8771 65.4448 34.6739 64.8449 34.6796C63.4295 34.6931 61.993 34.7002 60.61 34.6513C60.3423 34.6418 60.0815 34.5622 59.8601 34.4114C58.5917 33.5474 56.6163 31.8827 55.0336 30.5344Z" fill="#D96B2B"/>
<path d="M64.1588 30.5344C63.6854 30.1311 64.0403 29.2665 64.662 29.2795C65.914 29.3057 67.3219 29.2873 68.3819 29.2801C68.7572 29.2776 69.1267 29.3707 69.4424 29.5736C70.93 30.5303 72.7579 32.1633 74.3739 33.4955C74.8369 33.8771 74.5699 34.6739 73.97 34.6796C72.5546 34.6931 71.1181 34.7002 69.7351 34.6513C69.4673 34.6418 69.2065 34.5622 68.9851 34.4114C67.7169 33.5474 65.7414 31.8827 64.1588 30.5344Z" fill="#D96B2B"/>
<path d="M73.2841 30.5344C72.8107 30.1311 73.1657 29.2665 73.7873 29.2795C75.0394 29.3057 76.4473 29.2873 77.5073 29.2801C77.8825 29.2776 78.252 29.3707 78.5677 29.5736C80.0554 30.5303 81.8833 32.1633 83.4993 33.4955C83.9623 33.8771 83.6953 34.6739 83.0953 34.6796C81.6799 34.6931 80.2435 34.7002 78.8604 34.6513C78.5927 34.6418 78.3319 34.5622 78.1105 34.4114C76.8422 33.5474 74.8668 31.8827 73.2841 30.5344Z" fill="#D96B2B"/>
<path d="M0 41.2979H2.16749C2.91579 41.2979 3.46196 41.4485 3.80601 41.7495C4.15006 42.0505 4.32208 42.459 4.32208 42.9752C4.32208 43.3536 4.21456 43.6547 3.99954 43.8783C3.79311 44.1019 3.53508 44.2739 3.22543 44.3943C3.61248 44.4889 3.93073 44.6652 4.18016 44.9233C4.4382 45.1814 4.56722 45.4996 4.56722 45.8781C4.56722 46.4544 4.3823 46.9102 4.01244 47.2456C3.6512 47.5811 3.02331 47.7488 2.12879 47.7488H0V41.2979ZM2.30941 44.2266C2.30941 44.2439 2.40833 44.2223 2.60615 44.1621C2.81258 44.1019 2.9932 43.9858 3.14802 43.8138C3.31144 43.6331 3.39316 43.3751 3.39316 43.0396C3.39316 42.2226 2.9803 41.814 2.15459 41.814H0.928926V44.2266H2.30941ZM2.11588 47.2327C2.67496 47.2327 3.06201 47.1037 3.27704 46.8457C3.50068 46.5876 3.61248 46.2479 3.61248 45.8264C3.61248 45.4737 3.49637 45.1899 3.26414 44.9749C3.0319 44.7513 2.68787 44.6395 2.232 44.6395H0.928926V47.2327H2.11588ZM7.76453 47.8778C6.90441 47.8778 6.22922 47.6112 5.73896 47.0779C5.24869 46.536 5.00356 45.7275 5.00356 44.6524C5.00356 43.5686 5.24009 42.7171 5.71315 42.0979C6.18622 41.4785 6.83131 41.1689 7.64841 41.1689C8.38815 41.1689 8.95581 41.4269 9.35144 41.943C9.75569 42.4505 9.95787 43.173 9.95787 44.1105C9.95787 44.2739 9.94925 44.4073 9.93202 44.5104C9.91479 44.6136 9.90196 44.6782 9.89335 44.704H5.98409C5.98409 46.4414 6.61197 47.3102 7.86774 47.3102C8.21179 47.3102 8.50427 47.2499 8.74501 47.1295C8.99448 47.0005 9.18804 46.8671 9.32559 46.7296C9.46325 46.5833 9.53208 46.4973 9.53208 46.4715L9.90617 46.7812C9.90617 46.8155 9.82452 46.9273 9.66112 47.1166C9.49761 47.2972 9.25687 47.4692 8.93857 47.6327C8.62038 47.7961 8.22899 47.8778 7.76453 47.8778ZM9.08054 44.1621L9.09336 43.9169C9.09336 42.4548 8.61177 41.7237 7.64841 41.7237C7.14094 41.7237 6.74959 41.9258 6.47435 42.3301C6.19912 42.7257 6.04 43.3364 5.99699 44.1621H9.08054ZM10.8239 41.2979H11.5979L11.714 42.072C11.8345 41.8828 12.0409 41.685 12.3334 41.4785C12.6258 41.2721 13.0301 41.1689 13.5461 41.1689C14.303 41.1689 14.9051 41.4485 15.3524 42.0075C15.8082 42.5666 16.0362 43.345 16.0362 44.3427C16.0362 45.4265 15.8082 46.2866 15.3524 46.923C14.8965 47.5596 14.2514 47.8778 13.4171 47.8778C13.0644 47.8778 12.7634 47.8348 12.514 47.7488C12.2732 47.6542 12.0882 47.5553 11.9592 47.452C11.8301 47.3402 11.7657 47.2757 11.7657 47.2586H11.7528V50.9743L10.8239 51V41.2979ZM13.1074 47.2586C13.7784 47.2586 14.2686 47.022 14.5783 46.5489C14.8879 46.0672 15.0427 45.3405 15.0427 44.3686C15.0427 43.4654 14.8879 42.8117 14.5783 42.4074C14.2686 42.0032 13.8213 41.8011 13.2365 41.8011C12.9269 41.8011 12.6602 41.8656 12.4366 41.9946C12.213 42.1236 12.0409 42.2656 11.9205 42.4204C11.8087 42.5666 11.7528 42.6526 11.7528 42.6784V46.6909C11.8474 46.8112 12.0022 46.936 12.2173 47.065C12.4409 47.194 12.7376 47.2586 13.1074 47.2586ZM19.2309 47.8778C18.3708 47.8778 17.6957 47.6112 17.2053 47.0779C16.7151 46.536 16.47 45.7275 16.47 44.6524C16.47 43.5686 16.7065 42.7171 17.1796 42.0979C17.6527 41.4785 18.2978 41.1689 19.1148 41.1689C19.8546 41.1689 20.4222 41.4269 20.8179 41.943C21.2221 42.4505 21.4243 43.173 21.4243 44.1105C21.4243 44.2739 21.4157 44.4073 21.3984 44.5104C21.3812 44.6136 21.3684 44.6782 21.3598 44.704H17.4505C17.4505 46.4414 18.0784 47.3102 19.3342 47.3102C19.6782 47.3102 19.9707 47.2499 20.2115 47.1295C20.4609 47.0005 20.6544 46.8671 20.7921 46.7296C20.9297 46.5833 20.9985 46.4973 20.9985 46.4715L21.3727 46.7812C21.3727 46.8155 21.2909 46.9273 21.1275 47.1166C20.9641 47.2972 20.7233 47.4692 20.405 47.6327C20.0868 47.7961 19.6954 47.8778 19.2309 47.8778ZM20.5469 44.1621L20.5599 43.9169C20.5599 42.4548 20.0782 41.7237 19.1148 41.7237C18.6073 41.7237 18.216 41.9258 17.9408 42.3301C17.6655 42.7257 17.5064 43.3364 17.4634 44.1621H20.5469ZM18.1859 39.9433C18.0655 39.9433 17.9494 39.9003 17.8375 39.8142C17.7429 39.7196 17.6956 39.5949 17.6956 39.44C17.6956 39.2766 17.7429 39.1477 17.8375 39.053C17.9494 38.967 18.0655 38.924 18.1859 38.924C18.2978 38.924 18.4096 38.967 18.5214 39.053C18.616 39.1648 18.6632 39.2939 18.6632 39.44C18.6632 39.5777 18.616 39.7024 18.5214 39.8142C18.4096 39.9003 18.2978 39.9433 18.1859 39.9433ZM20.1598 39.9433C20.048 39.9433 19.9362 39.9003 19.8244 39.8142C19.7298 39.7196 19.6825 39.5949 19.6825 39.44C19.6825 39.2766 19.7298 39.1477 19.8244 39.053C19.9362 38.967 20.048 38.924 20.1598 38.924C20.2717 38.924 20.3835 38.967 20.4954 39.053C20.5985 39.1562 20.6501 39.2852 20.6501 39.44C20.6501 39.5863 20.5985 39.711 20.4954 39.8142C20.3835 39.9003 20.2717 39.9433 20.1598 39.9433ZM22.2903 41.2979H24.4577C25.2061 41.2979 25.7522 41.4485 26.0963 41.7495C26.4403 42.0505 26.6123 42.459 26.6123 42.9752C26.6123 43.3536 26.5048 43.6547 26.2898 43.8783C26.0833 44.1019 25.8254 44.2739 25.5157 44.3943C25.9028 44.4889 26.221 44.6652 26.4705 44.9233C26.7284 45.1814 26.8575 45.4996 26.8575 45.8781C26.8575 46.4544 26.6725 46.9102 26.3027 47.2456C25.9415 47.5811 25.3136 47.7488 24.419 47.7488H22.2903V41.2979ZM24.5997 44.2266C24.5997 44.2439 24.6986 44.2223 24.8964 44.1621C25.1028 44.1019 25.2835 43.9858 25.4383 43.8138C25.6017 43.6331 25.6834 43.3751 25.6834 43.0396C25.6834 42.2226 25.2705 41.814 24.4449 41.814H23.2192V44.2266H24.5997ZM24.4061 47.2327C24.9653 47.2327 25.3523 47.1037 25.5673 46.8457C25.7909 46.5876 25.9028 46.2479 25.9028 45.8264C25.9028 45.4737 25.7867 45.1899 25.5545 44.9749C25.3222 44.7513 24.9782 44.6395 24.5222 44.6395H23.2192V47.2327H24.4061ZM30.0419 47.8778C29.1473 47.8778 28.4636 47.5854 27.9905 47.0005C27.526 46.4156 27.2938 45.5899 27.2938 44.5234C27.2938 43.4568 27.526 42.6311 27.9905 42.0463C28.4636 41.4614 29.1473 41.1689 30.0419 41.1689C30.9365 41.1689 31.6159 41.4614 32.0804 42.0463C32.5535 42.6311 32.79 43.4568 32.79 44.5234C32.79 45.5813 32.5492 46.407 32.0675 47.0005C31.5944 47.5854 30.9192 47.8778 30.0419 47.8778ZM30.0419 47.3102C30.644 47.3102 31.0869 47.0822 31.3708 46.6264C31.6546 46.1619 31.7966 45.4609 31.7966 44.5234C31.7966 43.5944 31.6546 42.8978 31.3708 42.4333C31.0869 41.9688 30.644 41.7366 30.0419 41.7366C29.4398 41.7366 28.9969 41.9688 28.713 42.4333C28.4292 42.8891 28.2872 43.5858 28.2872 44.5234C28.2872 45.4609 28.4292 46.1619 28.713 46.6264C28.9969 47.0822 29.4398 47.3102 30.0419 47.3102ZM36.8279 44.9104C36.8193 44.9104 36.7505 44.9449 36.6215 45.0136C36.4925 45.0738 36.2775 45.134 35.9764 45.1942C35.6754 45.2544 35.3614 45.2846 35.0346 45.2846C33.925 45.2846 33.3703 44.6997 33.3703 43.5299V41.2979H34.312V43.5041C34.312 43.9342 34.3938 44.2525 34.5572 44.4589C34.7292 44.6652 34.9959 44.7685 35.3571 44.7685C35.6238 44.7685 35.8646 44.7427 36.0796 44.6911C36.2946 44.6395 36.4623 44.5879 36.5828 44.5363C36.7118 44.4847 36.7935 44.4502 36.8279 44.433V41.2979H37.7698V47.7488H36.8279V44.9104ZM39.1875 47.7488V41.2979H40.1164V44.1364H42.9936V41.2979H43.9353V47.7488H42.9936V44.7169H40.1164V47.7488H39.1875ZM45.3365 41.2979H46.2654V43.7363H47.2717C48.0545 43.7363 48.6737 43.8912 49.1296 44.2008C49.5855 44.5018 49.8134 44.9921 49.8134 45.6716C49.8134 47.0564 48.9748 47.7488 47.2976 47.7488H45.3365V41.2979ZM50.923 47.7488V41.2979H51.8648V47.7488H50.923ZM47.2717 47.2327C47.7793 47.2327 48.1663 47.1123 48.4329 46.8714C48.6996 46.6307 48.8329 46.2306 48.8329 45.6716C48.8329 45.1469 48.6823 44.777 48.3813 44.562C48.0888 44.347 47.7104 44.2395 47.246 44.2395H46.2654V47.2327H47.2717ZM53.2746 47.7488V41.2979H54.2035V46.4457L57.3516 41.2979H58.1902V47.7488H57.2484V42.459L53.9971 47.7488H53.2746ZM55.7518 40.3174C55.2528 40.3174 54.8658 40.2228 54.5906 40.0335C54.3239 39.8444 54.1476 39.6508 54.0616 39.4529C53.9756 39.2466 53.9326 39.1089 53.9326 39.0401L54.7067 38.9627V39.0273C54.7067 39.0444 54.711 39.0875 54.7196 39.1562C54.7368 39.2164 54.7626 39.2809 54.797 39.3498C54.9776 39.6594 55.2958 39.8142 55.7518 39.8142C56.2592 39.8142 56.586 39.6465 56.7323 39.3111C56.7667 39.2423 56.7882 39.182 56.7968 39.1305C56.8053 39.0789 56.8096 39.0444 56.8096 39.0273V38.9627L57.5838 39.0401C57.5838 39.1089 57.5408 39.2466 57.4547 39.4529C57.3688 39.6508 57.1881 39.8444 56.9129 40.0335C56.6462 40.2228 56.2592 40.3174 55.7518 40.3174ZM62.1078 47.7488V41.2979H66.7524V47.7488H65.8235V41.9043H63.0367V47.7488H62.1078ZM69.4974 47.8778C68.9298 47.8778 68.4739 47.7402 68.1299 47.4649C67.7858 47.1811 67.6138 46.7898 67.6138 46.2909C67.6138 45.0265 68.8309 44.2653 71.265 44.0073V43.3235C71.265 42.7128 71.166 42.2956 70.9683 42.072C70.7704 41.8484 70.422 41.7366 69.9232 41.7366C69.6996 41.7366 69.4716 41.7796 69.2393 41.8656C69.0071 41.943 68.8093 42.029 68.6459 42.1236C68.4911 42.2097 68.3922 42.2656 68.3492 42.2913L68.246 41.7623C68.289 41.728 68.3965 41.6635 68.5685 41.5689C68.7491 41.4742 68.9728 41.3839 69.2393 41.2979C69.5147 41.2119 69.7899 41.1689 70.0651 41.1689C70.8049 41.1689 71.3467 41.3237 71.6907 41.6334C72.0347 41.943 72.2068 42.4892 72.2068 43.2718V46.4328C72.2068 46.7769 72.2369 47.0091 72.2971 47.1295C72.366 47.2499 72.4476 47.3102 72.5423 47.3102C72.6196 47.3102 72.7143 47.2972 72.8261 47.2714C72.9379 47.237 73.011 47.2113 73.0454 47.194L73.0841 47.6327C73.0153 47.6585 72.8691 47.7058 72.6455 47.7746C72.4219 47.8434 72.2326 47.8778 72.0778 47.8778C71.8541 47.8778 71.6821 47.809 71.5617 47.6714C71.4413 47.5252 71.3682 47.2714 71.3424 46.9102H71.3294C71.3294 46.9446 71.2607 47.0435 71.123 47.207C70.9854 47.3704 70.779 47.5252 70.5038 47.6714C70.2371 47.809 69.9017 47.8778 69.4974 47.8778ZM69.7813 47.3102C70.0909 47.3102 70.3575 47.2413 70.5811 47.1037C70.8049 46.9661 70.9726 46.8155 71.0844 46.6521C71.2048 46.4887 71.265 46.3942 71.265 46.3683V44.4847C70.4822 44.5707 69.8372 44.7384 69.3297 44.9878C68.8309 45.2373 68.5814 45.6329 68.5814 46.1747C68.5814 46.5446 68.6889 46.8285 68.9039 47.0263C69.119 47.2155 69.4115 47.3102 69.7813 47.3102ZM73.8009 41.2979H74.5751L74.6912 42.072C74.8116 41.8828 75.018 41.685 75.3104 41.4785C75.6029 41.2721 76.0071 41.1689 76.5233 41.1689C77.2801 41.1689 77.8822 41.4485 78.3294 42.0075C78.7854 42.5666 79.0133 43.345 79.0133 44.3427C79.0133 45.4265 78.7854 46.2866 78.3294 46.923C77.8736 47.5596 77.2285 47.8778 76.3942 47.8778C76.0416 47.8778 75.7405 47.8348 75.4911 47.7488C75.2502 47.6542 75.0654 47.5553 74.9363 47.452C74.8073 47.3402 74.7428 47.2757 74.7428 47.2586H74.7298V50.9743L73.8009 51V41.2979ZM76.0846 47.2586C76.7554 47.2586 77.2457 47.022 77.5554 46.5489C77.865 46.0672 78.0199 45.3405 78.0199 44.3686C78.0199 43.4654 77.865 42.8117 77.5554 42.4074C77.2457 42.0032 76.7985 41.8011 76.2136 41.8011C75.9039 41.8011 75.6373 41.8656 75.4137 41.9946C75.19 42.1236 75.018 42.2656 74.8977 42.4204C74.7857 42.5666 74.7298 42.6526 74.7298 42.6784V46.6909C74.8245 46.8112 74.9793 46.936 75.1943 47.065C75.418 47.194 75.7147 47.2586 76.0846 47.2586ZM79.9373 47.7488V41.2979H80.8663V44.2525L81.6661 43.8138L83.524 41.2979H84.182L82.2726 43.9428L84.569 47.7488H83.4853L81.5759 44.5104L80.8663 44.8459V47.7488H79.9373Z" fill="#F0F0F0"/>
</svg>
