<svg width="25" height="352" viewBox="0 0 25 352" fill="none" xmlns="http://www.w3.org/2000/svg">
<path d="M18.3689 17.8251C20.1515 15.7326 23.9736 17.3018 23.9162 20.05C23.8008 25.5849 23.8819 31.809 23.9135 36.4947C23.9247 38.1535 23.5133 39.7873 22.6161 41.1826C18.3871 47.7595 11.168 55.84 5.27868 62.9839C3.59156 65.0304 0.0693512 63.8502 0.044075 61.198C-0.0155563 54.9411 -0.047102 48.5905 0.1691 42.4767C0.210951 41.2932 0.563053 40.1402 1.22976 39.1615C5.04934 33.5546 12.4084 24.8217 18.3689 17.8251Z" fill="#D96B2B"/>
<path d="M18.3689 58.1654C20.1515 56.0729 23.9736 57.6421 23.9162 60.3904C23.8008 65.9253 23.8819 72.1493 23.9135 76.835C23.9247 78.4939 23.5133 80.1276 22.6161 81.523C18.3871 88.0999 11.168 96.1804 5.27868 103.324C3.59156 105.371 0.0693512 104.19 0.044075 101.538C-0.0155563 95.2814 -0.047102 88.9308 0.1691 82.817C0.210951 81.6335 0.563053 80.4806 1.22976 79.5019C5.04934 73.8949 12.4084 65.162 18.3689 58.1654Z" fill="#D96B2B"/>
<path d="M18.3689 98.506C20.1515 96.4135 23.9736 97.9827 23.9162 100.731C23.8008 106.266 23.8819 112.49 23.9135 117.176C23.9247 118.834 23.5133 120.468 22.6161 121.864C18.3871 128.44 11.168 136.521 5.27868 143.665C3.59156 145.711 0.0693512 144.531 0.044075 141.879C-0.0155563 135.622 -0.047102 129.271 0.1691 123.158C0.210951 121.974 0.563053 120.821 1.22976 119.842C5.04934 114.236 12.4084 105.503 18.3689 98.506Z" fill="#D96B2B"/>
<path d="M18.3689 138.846C20.1515 136.754 23.9736 138.323 23.9162 141.071C23.8008 146.606 23.8819 152.83 23.9135 157.516C23.9247 159.175 23.5133 160.809 22.6161 162.204C18.3871 168.781 11.168 176.861 5.27868 184.005C3.59156 186.052 0.0693512 184.871 0.044075 182.219C-0.0155563 175.962 -0.047102 169.612 0.1691 163.498C0.210951 162.314 0.563053 161.161 1.22976 160.183C5.04934 154.576 12.4084 145.843 18.3689 138.846Z" fill="#D96B2B"/>
<path d="M18.3689 179.187C20.1515 177.094 23.9736 178.664 23.9162 181.412C23.8008 186.947 23.8819 193.171 23.9135 197.856C23.9247 199.515 23.5133 201.149 22.6161 202.544C18.3871 209.121 11.168 217.202 5.27868 224.346C3.59156 226.392 0.0693512 225.212 0.044075 222.56C-0.0155563 216.303 -0.047102 209.952 0.1691 203.838C0.210951 202.655 0.563053 201.502 1.22976 200.523C5.04934 194.916 12.4084 186.183 18.3689 179.187Z" fill="#D96B2B"/>
<path d="M18.3689 219.527C20.1515 217.435 23.9736 219.004 23.9162 221.752C23.8008 227.287 23.8819 233.511 23.9135 238.197C23.9247 239.856 23.5133 241.49 22.6161 242.885C18.3871 249.462 11.168 257.542 5.27868 264.686C3.59156 266.733 0.0693512 265.553 0.044075 262.9C-0.0155563 256.643 -0.047102 250.293 0.1691 244.179C0.210951 242.996 0.563053 241.843 1.22976 240.864C5.04934 235.257 12.4084 226.524 18.3689 219.527Z" fill="#D96B2B"/>
<path d="M18.3689 259.868C20.1515 257.775 23.9736 259.345 23.9162 262.093C23.8008 267.628 23.8819 273.852 23.9135 278.537C23.9247 280.196 23.5133 281.83 22.6161 283.225C18.3871 289.802 11.168 297.883 5.27868 305.027C3.59156 307.073 0.0693512 305.893 0.044075 303.241C-0.0155563 296.984 -0.047102 290.633 0.1691 284.519C0.210951 283.336 0.563053 282.183 1.22976 281.204C5.04934 275.597 12.4084 266.864 18.3689 259.868Z" fill="#D96B2B"/>
</svg>
