<svg width="747" height="52" viewBox="0 0 747 52" fill="none" xmlns="http://www.w3.org/2000/svg">
<path d="M37.8273 12.4489C33.3868 8.66592 36.7169 0.554906 42.5491 0.676589C54.295 0.921654 67.5035 0.749574 77.4472 0.682381C80.9676 0.658593 84.4347 1.53174 87.3958 3.43579C101.353 12.4104 118.501 27.7304 133.662 40.2285C138.005 43.8088 135.5 51.2835 129.872 51.3371C116.593 51.4637 103.116 51.5306 90.142 51.0718C87.6305 50.983 85.1837 50.2358 83.1068 48.8209C71.2079 40.7152 52.6752 25.0981 37.8273 12.4489Z" fill="#D96B2B"/>
<path d="M123.436 12.4489C118.996 8.66592 122.326 0.554906 128.158 0.676589C139.904 0.921654 153.112 0.749574 163.056 0.682381C166.577 0.658593 170.044 1.53174 173.005 3.43579C186.962 12.4104 204.11 27.7304 219.271 40.2285C223.614 43.8088 221.109 51.2835 215.481 51.3371C202.202 51.4637 188.725 51.5306 175.751 51.0718C173.239 50.983 170.793 50.2358 168.716 48.8209C156.817 40.7152 138.284 25.0981 123.436 12.4489Z" fill="#D96B2B"/>
<path d="M209.045 12.4489C204.605 8.66592 207.935 0.554906 213.767 0.676589C225.513 0.921654 238.721 0.749574 248.665 0.682381C252.186 0.658593 255.653 1.53174 258.614 3.43579C272.571 12.4104 289.719 27.7304 304.88 40.2285C309.223 43.8088 306.718 51.2835 301.09 51.3371C287.811 51.4637 274.334 51.5306 261.36 51.0718C258.848 50.983 256.402 50.2358 254.325 48.8209C242.426 40.7152 223.893 25.0981 209.045 12.4489Z" fill="#D96B2B"/>
<path d="M294.654 12.4489C290.213 8.66592 293.544 0.554906 299.376 0.676589C311.122 0.921654 324.33 0.749574 334.274 0.682381C337.794 0.658593 341.261 1.53174 344.223 3.43579C358.18 12.4104 375.328 27.7304 390.488 40.2285C394.831 43.8088 392.327 51.2835 386.698 51.3371C373.42 51.4637 359.943 51.5306 346.969 51.0718C344.457 50.983 342.01 50.2358 339.933 48.8209C328.035 40.7152 309.502 25.0981 294.654 12.4489Z" fill="#D96B2B"/>
<path d="M380.263 12.4489C375.822 8.66592 379.153 0.554906 384.985 0.676589C396.731 0.921654 409.939 0.749574 419.883 0.682381C423.403 0.658593 426.87 1.53174 429.832 3.43579C443.789 12.4104 460.937 27.7304 476.097 40.2285C480.44 43.8088 477.936 51.2835 472.307 51.3371C459.029 51.4637 445.552 51.5306 432.578 51.0718C430.066 50.983 427.619 50.2358 425.542 48.8209C413.644 40.7152 395.111 25.0981 380.263 12.4489Z" fill="#D96B2B"/>
<path d="M465.872 12.4489C461.431 8.66592 464.762 0.554906 470.594 0.676589C482.34 0.921654 495.548 0.749574 505.492 0.682381C509.012 0.658593 512.479 1.53174 515.44 3.43579C529.398 12.4104 546.546 27.7304 561.706 40.2285C566.049 43.8088 563.545 51.2835 557.916 51.3371C544.638 51.4637 531.161 51.5306 518.187 51.0718C515.675 50.983 513.228 50.2358 511.151 48.8209C499.253 40.7152 480.72 25.0981 465.872 12.4489Z" fill="#D96B2B"/>
<path d="M551.481 12.4489C547.04 8.66592 550.37 0.554906 556.203 0.676589C567.948 0.921654 581.157 0.749574 591.101 0.682381C594.621 0.658593 598.088 1.53174 601.049 3.43579C615.006 12.4104 632.155 27.7304 647.315 40.2285C651.658 43.8088 649.153 51.2835 643.525 51.3371C630.247 51.4637 616.77 51.5306 603.795 51.0718C601.284 50.983 598.837 50.2358 596.76 48.8209C584.861 40.7152 566.329 25.0981 551.481 12.4489Z" fill="#D96B2B"/>
<path d="M637.09 12.4489C632.649 8.66592 635.979 0.554906 641.812 0.676589C653.557 0.921654 666.766 0.749574 676.71 0.682381C680.23 0.658593 683.697 1.53174 686.658 3.43579C700.615 12.4104 717.764 27.7304 732.924 40.2285C737.267 43.8088 734.762 51.2835 729.134 51.3371C715.856 51.4637 702.379 51.5306 689.404 51.0718C686.893 50.983 684.446 50.2358 682.369 48.8209C670.47 40.7152 651.938 25.0981 637.09 12.4489Z" fill="#D96B2B"/>
</svg>
