<svg xmlns="http://www.w3.org/2000/svg" viewBox="0.000 0.000 315.072 190.229" width="315.1" height="190.2" fill="none" color="rgba(21,21,21,0.8)">
<svg x="0" y="3.764" width="15.763" height="23.46" viewBox="0 0 15.763 23.460" overflow="visible"><path d="M 15.283 16.62 L 10.393 16.62 C 10.128 16.62 9.913 16.835 9.913 17.1 L 9.913 22.5 L 8.203 22.5 L 8.203 17.1 C 8.203 16.835 7.989 16.62 7.723 16.62 L 1.639 16.62 L 6.379 11.879 C 6.517 11.742 6.558 11.535 6.483 11.356 C 6.409 11.176 6.234 11.06 6.04 11.06 L 3.143 11.06 L 7.994 6.208 C 8.039 6.164 8.074 6.11 8.099 6.051 C 8.1 6.049 8.1 6.046 8.101 6.044 C 8.122 5.989 8.135 5.93 8.135 5.868 C 8.135 5.806 8.122 5.748 8.101 5.693 C 8.1 5.691 8.1 5.688 8.099 5.686 C 8.05 5.568 7.956 5.473 7.837 5.425 C 7.835 5.424 7.833 5.423 7.83 5.422 C 7.776 5.401 7.717 5.388 7.655 5.388 L 4.868 5.388 L 9.096 1.161 L 11.593 3.682 C 11.779 3.869 12.083 3.871 12.272 3.685 C 12.46 3.498 12.461 3.194 12.275 3.006 L 9.439 0.142 C 9.349 0.052 9.226 0 9.099 0 C 8.957 0.001 8.849 0.051 8.758 0.14 L 3.37 5.529 C 3.233 5.666 3.191 5.873 3.266 6.052 C 3.34 6.232 3.515 6.348 3.709 6.348 L 6.497 6.348 L 1.645 11.2 C 1.507 11.337 1.466 11.544 1.54 11.723 C 1.615 11.903 1.79 12.02 1.984 12.02 L 4.881 12.02 L 0.141 16.761 C 0.003 16.898 -0.038 17.105 0.037 17.284 C 0.111 17.464 0.286 17.58 0.48 17.58 L 7.243 17.58 L 7.243 22.98 C 7.243 23.245 7.458 23.46 7.723 23.46 L 10.393 23.46 C 10.659 23.46 10.873 23.245 10.873 22.98 L 10.873 17.58 L 15.283 17.58 C 15.548 17.58 15.763 17.365 15.763 17.1 C 15.763 16.835 15.548 16.62 15.283 16.62 Z" fill="currentColor" fill-rule="nonzero"></path></svg>
<svg x="10.346" y="0" width="18.453" height="23.866" viewBox="0 0 18.453 23.866" overflow="visible"><path d="M 18.314 17.062 L 13.519 12.219 L 16.443 12.219 C 16.636 12.219 16.811 12.103 16.886 11.924 C 16.96 11.745 16.92 11.539 16.784 11.402 L 11.876 6.446 L 14.686 6.446 C 14.879 6.446 15.054 6.329 15.129 6.151 C 15.203 5.972 15.163 5.766 15.027 5.628 L 9.594 0.142 C 9.505 0.052 9.382 0 9.254 0 C 9.254 0 9.253 0 9.253 0 C 9.126 0 9.004 0.051 8.913 0.14 L 3.428 5.626 C 3.291 5.764 3.25 5.97 3.324 6.149 C 3.399 6.329 3.574 6.446 3.768 6.446 L 6.626 6.446 L 1.672 11.4 C 1.534 11.537 1.493 11.743 1.568 11.923 C 1.642 12.102 1.817 12.219 2.011 12.219 L 4.981 12.219 L 0.141 17.06 C 0.003 17.198 -0.038 17.404 0.037 17.584 C 0.111 17.763 0.286 17.88 0.48 17.88 L 7.375 17.88 L 7.375 23.386 C 7.375 23.651 7.59 23.866 7.855 23.866 L 10.572 23.866 C 10.837 23.866 11.052 23.651 11.052 23.386 L 11.052 17.88 L 17.973 17.88 C 18.167 17.88 18.342 17.764 18.417 17.585 C 18.491 17.406 18.451 17.2 18.314 17.062 Z M 10.572 16.92 C 10.307 16.92 10.092 17.135 10.092 17.4 L 10.092 22.906 L 8.335 22.906 L 8.335 17.4 C 8.335 17.135 8.12 16.92 7.855 16.92 L 1.639 16.92 L 6.479 12.079 C 6.617 11.941 6.658 11.735 6.583 11.556 C 6.509 11.376 6.334 11.259 6.14 11.259 L 3.169 11.259 L 8.124 6.306 C 8.168 6.261 8.204 6.208 8.228 6.148 C 8.229 6.146 8.23 6.143 8.231 6.141 C 8.252 6.087 8.265 6.028 8.265 5.966 C 8.265 5.904 8.252 5.845 8.23 5.791 C 8.229 5.789 8.229 5.786 8.228 5.784 C 8.179 5.666 8.085 5.572 7.967 5.523 C 7.964 5.522 7.962 5.521 7.959 5.52 C 7.905 5.499 7.846 5.486 7.784 5.486 L 4.926 5.486 L 9.251 1.161 L 13.534 5.486 L 10.728 5.486 C 10.463 5.486 10.248 5.701 10.248 5.966 C 10.248 5.966 10.248 5.967 10.248 5.967 C 10.248 6.026 10.26 6.082 10.279 6.133 C 10.281 6.14 10.282 6.146 10.285 6.152 C 10.307 6.204 10.338 6.25 10.376 6.291 C 10.38 6.296 10.382 6.302 10.386 6.307 L 15.291 11.26 L 12.367 11.26 C 12.174 11.26 11.999 11.376 11.924 11.555 C 11.85 11.733 11.89 11.94 12.026 12.077 L 16.821 16.92 L 10.572 16.92 Z" fill="currentColor" fill-rule="nonzero"></path></svg>
<svg x="0" y="0" width="58.897" height="24.47" viewBox="0 0 58.897 24.470" overflow="visible"><path d="M 7.175 6.101 C 5.082 4.319 6.652 0.497 9.4 0.554 C 14.935 0.669 21.159 0.588 25.845 0.557 C 27.503 0.545 29.137 0.957 30.532 1.854 C 37.109 6.083 45.19 13.302 52.334 19.191 C 54.38 20.879 53.2 24.401 50.548 24.426 C 44.291 24.486 37.94 24.517 31.827 24.301 C 30.643 24.259 29.49 23.907 28.511 23.24 C 22.904 19.421 14.172 12.062 7.175 6.101 Z" fill="currentColor" fill-rule="nonzero"></path></svg>
<svg x="0" y="0" width="58.897" height="24.47" viewBox="0 0 58.897 24.470" overflow="visible"><path d="M 7.175 6.101 C 5.082 4.319 6.652 0.497 9.4 0.554 C 14.935 0.669 21.159 0.588 25.845 0.557 C 27.503 0.545 29.137 0.957 30.532 1.854 C 37.109 6.083 45.19 13.302 52.334 19.191 C 54.38 20.879 53.2 24.401 50.548 24.426 C 44.291 24.486 37.94 24.517 31.827 24.301 C 30.643 24.259 29.49 23.907 28.511 23.24 C 22.904 19.421 14.172 12.062 7.175 6.101 Z" fill="currentColor" fill-rule="nonzero"></path></svg>
<svg x="0" y="0" width="58.897" height="24.47" viewBox="0 0 58.897 24.470" overflow="visible"><path d="M 7.175 6.101 C 5.082 4.319 6.652 0.497 9.4 0.554 C 14.935 0.669 21.159 0.588 25.845 0.557 C 27.503 0.545 29.137 0.957 30.532 1.854 C 37.109 6.083 45.19 13.302 52.334 19.191 C 54.38 20.879 53.2 24.401 50.548 24.426 C 44.291 24.486 37.94 24.517 31.827 24.301 C 30.643 24.259 29.49 23.907 28.511 23.24 C 22.904 19.421 14.172 12.062 7.175 6.101 Z" fill="currentColor" fill-rule="nonzero"></path></svg>
<svg x="0" y="0" width="58.897" height="24.47" viewBox="0 0 58.897 24.470" overflow="visible"><path d="M 7.175 6.101 C 5.082 4.319 6.652 0.497 9.4 0.554 C 14.935 0.669 21.159 0.588 25.845 0.557 C 27.503 0.545 29.137 0.957 30.532 1.854 C 37.109 6.083 45.19 13.302 52.334 19.191 C 54.38 20.879 53.2 24.401 50.548 24.426 C 44.291 24.486 37.94 24.517 31.827 24.301 C 30.643 24.259 29.49 23.907 28.511 23.24 C 22.904 19.421 14.172 12.062 7.175 6.101 Z" fill="currentColor" fill-rule="nonzero"></path></svg>
<svg x="0" y="0" width="58.897" height="24.47" viewBox="0 0 58.897 24.470" overflow="visible"><path d="M 7.175 6.101 C 5.082 4.319 6.652 0.497 9.4 0.554 C 14.935 0.669 21.159 0.588 25.845 0.557 C 27.503 0.545 29.137 0.957 30.532 1.854 C 37.109 6.083 45.19 13.302 52.334 19.191 C 54.38 20.879 53.2 24.401 50.548 24.426 C 44.291 24.486 37.94 24.517 31.827 24.301 C 30.643 24.259 29.49 23.907 28.511 23.24 C 22.904 19.421 14.172 12.062 7.175 6.101 Z" fill="currentColor" fill-rule="nonzero"></path></svg>
<svg x="0" y="0" width="58.897" height="24.47" viewBox="0 0 58.897 24.470" overflow="visible"><path d="M 7.175 6.101 C 5.082 4.319 6.652 0.497 9.4 0.554 C 14.935 0.669 21.159 0.588 25.845 0.557 C 27.503 0.545 29.137 0.957 30.532 1.854 C 37.109 6.083 45.19 13.302 52.334 19.191 C 54.38 20.879 53.2 24.401 50.548 24.426 C 44.291 24.486 37.94 24.517 31.827 24.301 C 30.643 24.259 29.49 23.907 28.511 23.24 C 22.904 19.421 14.172 12.062 7.175 6.101 Z" fill="currentColor" fill-rule="nonzero"></path></svg>
<svg x="0" y="0" width="58.897" height="24.47" viewBox="0 0 58.897 24.470" overflow="visible"><path d="M 7.175 6.101 C 5.082 4.319 6.652 0.497 9.4 0.554 C 14.935 0.669 21.159 0.588 25.845 0.557 C 27.503 0.545 29.137 0.957 30.532 1.854 C 37.109 6.083 45.19 13.302 52.334 19.191 C 54.38 20.879 53.2 24.401 50.548 24.426 C 44.291 24.486 37.94 24.517 31.827 24.301 C 30.643 24.259 29.49 23.907 28.511 23.24 C 22.904 19.421 14.172 12.062 7.175 6.101 Z" fill="currentColor" fill-rule="nonzero"></path></svg>
<svg x="1" y="1" width="10" height="10" viewBox="0 0 10 10" overflow="visible"><path d="M 5 0 C 5.436 0 5.789 0.353 5.789 0.789 L 5.789 4.211 L 9.211 4.211 C 9.647 4.211 10 4.564 10 5 C 10 5.436 9.647 5.789 9.211 5.789 L 5.789 5.789 L 5.789 9.211 C 5.789 9.647 5.436 10 5 10 C 4.564 10 4.211 9.647 4.211 9.211 L 4.211 5.789 L 0.789 5.789 C 0.353 5.789 0 5.436 0 5 C 0 4.564 0.353 4.211 0.789 4.211 L 4.211 4.211 L 4.211 0.789 C 4.211 0.353 4.564 0 5 0 Z" fill="currentColor" fill-rule="nonzero"></path></svg>
<svg x="1" y="1" width="10" height="10" viewBox="0 0 10 10" overflow="visible"><path d="M 5 0 C 5.436 0 5.789 0.353 5.789 0.789 L 5.789 4.211 L 9.211 4.211 C 9.647 4.211 10 4.564 10 5 C 10 5.436 9.647 5.789 9.211 5.789 L 5.789 5.789 L 5.789 9.211 C 5.789 9.647 5.436 10 5 10 C 4.564 10 4.211 9.647 4.211 9.211 L 4.211 5.789 L 0.789 5.789 C 0.353 5.789 0 5.436 0 5 C 0 4.564 0.353 4.211 0.789 4.211 L 4.211 4.211 L 4.211 0.789 C 4.211 0.353 4.564 0 5 0 Z" fill="currentColor" fill-rule="nonzero"></path></svg>
<svg x="1" y="1" width="10" height="10" viewBox="0 0 10 10" overflow="visible"><path d="M 5 0 C 5.436 0 5.789 0.353 5.789 0.789 L 5.789 4.211 L 9.211 4.211 C 9.647 4.211 10 4.564 10 5 C 10 5.436 9.647 5.789 9.211 5.789 L 5.789 5.789 L 5.789 9.211 C 5.789 9.647 5.436 10 5 10 C 4.564 10 4.211 9.647 4.211 9.211 L 4.211 5.789 L 0.789 5.789 C 0.353 5.789 0 5.436 0 5 C 0 4.564 0.353 4.211 0.789 4.211 L 4.211 4.211 L 4.211 0.789 C 4.211 0.353 4.564 0 5 0 Z" fill="currentColor" fill-rule="nonzero"></path></svg>
<svg x="1" y="1" width="10" height="10" viewBox="0 0 10 10" overflow="visible"><path d="M 5 0 C 5.436 0 5.789 0.353 5.789 0.789 L 5.789 4.211 L 9.211 4.211 C 9.647 4.211 10 4.564 10 5 C 10 5.436 9.647 5.789 9.211 5.789 L 5.789 5.789 L 5.789 9.211 C 5.789 9.647 5.436 10 5 10 C 4.564 10 4.211 9.647 4.211 9.211 L 4.211 5.789 L 0.789 5.789 C 0.353 5.789 0 5.436 0 5 C 0 4.564 0.353 4.211 0.789 4.211 L 4.211 4.211 L 4.211 0.789 C 4.211 0.353 4.564 0 5 0 Z" fill="currentColor" fill-rule="nonzero"></path></svg>
<svg x="126.581" y="12.394" width="38.038" height="72.703" viewBox="0 0 38.038 72.703" overflow="visible"><path d="M 35.533 0 C 36.281 0.55 37.133 0.941 38.038 1.152 L 14.729 47.937 C 10.823 55.811 6.529 65.051 2.365 72.703 C 1.648 72.222 0.845 71.882 0 71.703 C 1.684 69.296 9.066 53.372 10.858 49.704 C 18.955 33.073 27.18 16.505 35.533 0 Z" fill="currentColor" fill-rule="nonzero"></path></svg>
<svg x="226.696" y="75.908" width="75.415" height="26.566" viewBox="0 0 75.415 26.566" overflow="visible"><path d="M 0 24.168 C 15.572 18.845 31.202 13.698 46.89 8.725 C 55.966 5.885 65.78 3.171 74.672 0 C 74.765 0.853 75.017 1.682 75.415 2.442 C 50.391 10.205 25.455 18.247 0.611 26.566 C 0.555 25.736 0.348 24.923 0 24.168 Z" fill="currentColor" fill-rule="nonzero"></path></svg>
<svg x="13.404" y="64.885" width="74.632" height="7.001" viewBox="0 0 74.632 7.001" overflow="visible"><path d="M 0 4.69 C 9.413 4.417 20.177 3.355 29.675 2.725 L 74.632 0 L 74.53 2.293 L 0.088 7.001 C 0.192 6.231 0.162 5.449 0 4.69 Z" fill="currentColor" fill-rule="nonzero"></path></svg>
<svg x="167.138" y="12.797" width="16.978" height="73.407" viewBox="0 0 16.978 73.407" overflow="visible"><path d="M 0 0.859 C 0.874 0.736 1.717 0.444 2.482 0 C 8.165 24.261 13 48.713 16.978 73.313 C 16.181 73.202 15.371 73.234 14.585 73.407 C 12.602 64.743 11.011 53.775 9.283 44.814 C 6.382 30.123 3.287 15.47 0 0.859 Z" fill="currentColor" fill-rule="nonzero"></path></svg>
<svg x="301.327" y="68.294" width="13.745" height="13.745" viewBox="0 0 13.745 13.745" overflow="visible"><path d="M 0.041 7.614 C -0.342 4.088 2.021 0.85 5.496 0.14 C 8.971 -0.57 12.416 1.481 13.447 4.875 C 14.478 8.269 12.757 11.889 9.474 13.233 C 6.191 14.575 2.426 13.2 0.783 10.057 C 0.385 9.296 0.133 8.468 0.041 7.614 Z" fill="currentColor" fill-rule="nonzero"></path></svg>
<svg x="303.602" y="70.529" width="9.219" height="9.219" viewBox="0 0 9.219 9.219" overflow="visible"><path d="M 3.386 0.166 C 4.998 -0.279 6.725 0.186 7.898 1.379 C 9.07 2.572 9.504 4.308 9.031 5.912 C 8.557 7.517 7.252 8.739 5.619 9.106 C 3.178 9.654 0.745 8.154 0.138 5.726 C -0.468 3.299 0.973 0.831 3.386 0.166 Z" fill="currentColor" fill-rule="nonzero"></path></svg>
<svg x="159.311" y="0" width="13.725" height="13.725" viewBox="0 0 13.725 13.725" overflow="visible"><path d="M 2.802 12.394 C 0.356 10.599 -0.621 7.41 0.401 4.552 C 1.423 1.695 4.2 -0.153 7.23 0.01 C 10.261 0.173 12.824 2.306 13.534 5.257 C 14.244 8.207 12.933 11.273 10.308 12.797 C 9.544 13.241 8.701 13.533 7.827 13.657 C 6.987 13.776 6.133 13.738 5.308 13.546 C 4.403 13.336 3.551 12.944 2.802 12.394 Z" fill="currentColor" fill-rule="nonzero"></path></svg>
<svg x="161.577" y="2.247" width="9.246" height="9.246" viewBox="0 0 9.246 9.246" overflow="visible"><path d="M 3.172 0.235 C 5.553 -0.553 8.128 0.703 8.974 3.065 C 9.82 5.426 8.629 8.031 6.289 8.935 C 4.724 9.541 2.953 9.249 1.663 8.175 C 0.373 7.1 -0.232 5.41 0.081 3.761 C 0.395 2.111 1.578 0.762 3.172 0.235 Z" fill="currentColor" fill-rule="nonzero"></path></svg>
<svg x="213.657" y="96.101" width="13.665" height="13.664" viewBox="0 0 13.665 13.664" overflow="visible"><path d="M 0.637 3.951 C 1.76 1.537 4.183 -0.005 6.845 0 C 9.508 0.005 11.925 1.556 13.038 3.975 C 13.386 4.73 13.593 5.543 13.649 6.373 C 13.82 8.908 12.569 11.329 10.403 12.657 C 8.237 13.985 5.512 14.001 3.33 12.698 C 1.149 11.396 -0.13 8.99 0.011 6.453 C 0.059 5.587 0.271 4.738 0.637 3.951 Z" fill="currentColor" fill-rule="nonzero"></path></svg>
<svg x="215.837" y="98.311" width="9.236" height="9.236" viewBox="0 0 9.236 9.236" overflow="visible"><path d="M 2.698 0.419 C 4.237 -0.285 6.037 -0.091 7.391 0.925 C 8.744 1.94 9.434 3.616 9.187 5.29 C 8.941 6.964 7.798 8.37 6.21 8.953 C 3.881 9.807 1.293 8.669 0.349 6.375 C -0.596 4.08 0.442 1.451 2.698 0.419 Z" fill="currentColor" fill-rule="nonzero"></path></svg>
<svg x="16.635" y="176.564" width="13.665" height="13.665" viewBox="0 0 13.665 13.665" overflow="visible"><path d="M 7.64 0.048 C 8.477 0.148 9.289 0.402 10.034 0.798 C 13.152 2.451 14.496 6.207 13.137 9.464 C 11.778 12.72 8.162 14.406 4.793 13.353 C 1.425 12.299 -0.586 8.854 0.152 5.403 C 0.89 1.952 4.136 -0.369 7.64 0.048 Z" fill="currentColor" fill-rule="nonzero"></path></svg>
<svg x="18.924" y="178.802" width="9.133" height="9.132" viewBox="0 0 9.133 9.132" overflow="visible"><path d="M 3.291 0.183 C 5.673 -0.51 8.172 0.826 8.919 3.191 C 9.667 5.555 8.39 8.084 6.044 8.887 C 4.476 9.423 2.741 9.068 1.51 7.959 C 0.279 6.851 -0.254 5.162 0.115 3.547 C 0.485 1.933 1.701 0.645 3.291 0.183 Z" fill="currentColor" fill-rule="nonzero"></path></svg>
<svg x="87.933" y="59.034" width="13.559" height="13.555" viewBox="0 0 13.559 13.555" overflow="visible"><path d="M 0.103 5.851 C 2.574 -4.846 16.989 0.639 12.8 10.189 L 11.303 11.932 C 6.206 14.872 1.994 13.939 0 8.144 L 0.103 5.851 Z" fill="currentColor" fill-rule="nonzero"></path></svg>
<svg x="90.128" y="61.277" width="9.171" height="9.171" viewBox="0 0 9.171 9.171" overflow="visible"><path d="M 2.763 0.379 C 5.06 -0.616 7.729 0.415 8.761 2.695 C 9.794 4.974 8.808 7.66 6.546 8.73 C 5.048 9.439 3.286 9.284 1.934 8.327 C 0.583 7.369 -0.147 5.757 0.025 4.11 C 0.197 2.463 1.244 1.036 2.763 0.379 Z" fill="currentColor" fill-rule="nonzero"></path></svg>
<svg x="38.738" y="113.664" width="13.723" height="13.641" viewBox="0 0 13.723 13.641" overflow="visible"><path d="M 3.569 0.578 C 6.242 -0.079 8.146 -0.473 10.641 1.083 C 12.138 2.014 13.197 3.508 13.581 5.228 C 13.955 7.024 13.584 8.894 12.553 10.41 C 10.976 12.701 8.429 13.396 5.799 13.641 L 3.901 12.93 C -0.573 9.675 -1.062 6.903 1.737 2.2 L 3.569 0.578 Z" fill="currentColor" fill-rule="nonzero"></path></svg>
<svg x="41.119" y="115.826" width="9.141" height="9.141" viewBox="0 0 9.141 9.141" overflow="visible"><path d="M 2.609 0.442 C 4.096 -0.264 5.848 -0.117 7.195 0.829 C 8.543 1.774 9.278 3.372 9.119 5.01 C 8.961 6.649 7.933 8.076 6.429 8.745 C 4.144 9.762 1.465 8.752 0.42 6.48 C -0.626 4.208 0.349 1.516 2.609 0.442 Z" fill="currentColor" fill-rule="nonzero"></path></svg>
<svg x="0" y="64.21" width="13.552" height="13.553" viewBox="0 0 13.552 13.553" overflow="visible"><path d="M 9.185 13.11 C 6.535 14.118 3.537 13.369 1.672 11.233 C -0.193 9.097 -0.531 6.025 0.826 3.535 C 2.182 1.045 4.946 -0.337 7.752 0.071 C 10.558 0.479 12.813 2.591 13.404 5.365 C 13.566 6.125 13.595 6.907 13.492 7.676 C 13.291 9.173 12.597 10.559 11.519 11.616 C 10.852 12.269 10.058 12.778 9.185 13.11 Z" fill="currentColor" fill-rule="nonzero"></path></svg>
<svg x="2.232" y="66.402" width="9.02" height="9.02" viewBox="0 0 9.020 9.020" overflow="visible"><path d="M 2.945 0.281 C 5.292 -0.587 7.898 0.622 8.75 2.975 C 9.602 5.328 8.374 7.925 6.015 8.76 C 3.68 9.588 1.114 8.375 0.271 6.045 C -0.573 3.716 0.621 1.142 2.945 0.281 Z" fill="currentColor" fill-rule="nonzero"></path></svg>
<svg x="176.412" y="86.045" width="13.543" height="13.543" viewBox="0 0 13.543 13.543" overflow="visible"><path d="M 7.703 0.065 C 10.575 0.464 12.874 2.647 13.421 5.494 C 13.709 6.993 13.482 8.544 12.778 9.897 C 11.329 12.682 8.156 14.105 5.113 13.336 C 2.07 12.567 -0.046 9.808 0.001 6.67 C 0.048 3.531 2.246 0.837 5.31 0.159 C 6.096 -0.014 6.906 -0.046 7.703 0.065 Z" fill="currentColor" fill-rule="nonzero"></path></svg>
<svg x="178.695" y="88.352" width="9.01" height="9.01" viewBox="0 0 9.010 9.010" overflow="visible"><path d="M 2.666 0.393 C 4.148 -0.27 5.872 -0.084 7.18 0.879 C 8.486 1.844 9.173 3.436 8.977 5.048 C 8.781 6.66 7.733 8.042 6.233 8.664 C 3.957 9.609 1.345 8.551 0.369 6.288 C -0.606 4.025 0.417 1.399 2.666 0.393 Z" fill="currentColor" fill-rule="nonzero"></path></svg>
<svg x="118.414" y="83.949" width="13.525" height="13.524" viewBox="0 0 13.525 13.524" overflow="visible"><path d="M 2.291 1.69 C 3.895 0.275 6.075 -0.297 8.167 0.148 C 9.012 0.327 9.815 0.666 10.532 1.148 C 13.514 3.151 14.41 7.136 12.571 10.223 C 10.732 13.309 6.801 14.418 3.62 12.748 C 0.439 11.078 -0.881 7.213 0.615 3.946 C 1.009 3.085 1.58 2.316 2.291 1.69 Z" fill="currentColor" fill-rule="nonzero"></path></svg>
<svg x="120.642" y="86.113" width="9.052" height="9.052" viewBox="0 0 9.052 9.052" overflow="visible"><path d="M 3.406 0.142 C 5.833 -0.478 8.302 0.992 8.914 3.421 C 9.526 5.851 8.047 8.315 5.616 8.918 C 3.196 9.518 0.747 8.048 0.138 5.631 C -0.471 3.214 0.99 0.759 3.406 0.142 Z" fill="currentColor" fill-rule="nonzero"></path></svg>
<svg x="24.275" y="126.594" width="20.262" height="50.767" viewBox="0 0 20.262 50.767" overflow="visible"><path d="M 18.364 0 L 20.262 0.711 C 15.167 16.261 8.293 35.446 2.394 50.767 C 1.649 50.371 0.837 50.117 0 50.018 C 1.539 47.21 4.551 38.082 5.814 34.678 C 10.066 23.219 13.876 11.365 18.364 0 Z" fill="currentColor" fill-rule="nonzero"></path></svg>
<svg x="9.185" y="75.825" width="33.121" height="40.039" viewBox="0 0 33.121 40.039" overflow="visible"><path d="M 0 1.494 C 0.872 1.162 1.667 0.653 2.334 0 C 12.477 12.902 22.739 25.707 33.121 38.417 L 31.289 40.039 C 29.769 39.106 3.397 5.72 0 1.494 Z" fill="currentColor" fill-rule="nonzero"></path></svg>
<svg x="99.236" y="69.223" width="21.469" height="18.672" viewBox="0 0 21.469 18.672" overflow="visible"><path d="M 0 1.742 L 1.498 0 C 8.089 5.551 14.747 11.024 21.469 16.416 C 20.759 17.042 20.188 17.811 19.794 18.672 C 16.175 14.753 4.604 5.577 0 1.742 Z" fill="currentColor" fill-rule="nonzero"></path></svg>
<svg x="189.19" y="91.54" width="25.104" height="11.014" viewBox="0 0 25.104 11.014" overflow="visible"><path d="M 0.643 0 L 1.044 1.963 C 3.451 3.446 21.566 7.938 25.104 8.512 C 24.738 9.299 24.525 10.148 24.477 11.014 C 16.35 8.805 8.046 6.812 0 4.403 C 0.704 3.05 0.931 1.498 0.643 0 Z" fill="currentColor" fill-rule="nonzero"></path></svg>
</svg>