<svg width="316" height="191" viewBox="0 0 316 191" fill="none" xmlns="http://www.w3.org/2000/svg">
<path d="M162.591 12.431C163.342 12.9822 164.196 13.3749 165.103 13.5862L141.726 60.5094C137.808 68.4064 133.502 77.6732 129.325 85.3484C128.606 84.8651 127.801 84.5247 126.954 84.3446C128.643 81.9312 136.046 65.9598 137.844 62.2816C145.965 45.6015 154.214 28.9843 162.591 12.431Z" fill="#151515"/>
<path d="M227.363 100.37C242.981 95.032 258.657 89.8693 274.391 84.882C283.494 82.0336 293.337 79.312 302.256 76.1312C302.349 76.9871 302.601 77.8179 303 78.5808C277.903 86.3666 252.893 94.4321 227.976 102.775C227.919 101.943 227.712 101.128 227.363 100.37Z" fill="#151515"/>
<path d="M13.4431 69.7796C22.8839 69.5055 33.6791 68.4404 43.2055 67.8093L88.2951 65.076L88.192 67.3757L13.5316 72.0974C13.6352 71.3255 13.6055 70.5415 13.4431 69.7796Z" fill="#151515"/>
<path d="M167.63 13.6967C168.507 13.5725 169.352 13.2799 170.119 12.8348C175.819 37.1674 180.669 61.6916 184.658 86.3632C183.858 86.2521 183.046 86.2843 182.258 86.4583C180.269 77.7687 178.674 66.7684 176.941 57.7811C174.03 43.0463 170.926 28.3501 167.63 13.6967Z" fill="#151515"/>
<path d="M302.255 76.1311C301.872 72.5948 304.242 69.3471 307.727 68.635C311.212 67.9229 314.667 69.9802 315.701 73.3838C316.735 76.7874 315.009 80.4188 311.717 81.7661C308.424 83.1129 304.647 81.7329 302.999 78.5808C302.601 77.8179 302.348 76.9871 302.255 76.1311Z" fill="#151515"/>
<path d="M307.891 70.9028C309.508 70.4572 311.241 70.9229 312.417 72.1198C313.592 73.3167 314.027 75.0572 313.553 76.6665C313.078 78.2758 311.769 79.5018 310.131 79.8694C307.683 80.4191 305.243 78.9144 304.634 76.4799C304.026 74.0449 305.472 71.5696 307.891 70.9028Z" fill="#F0F0F0"/>
<path d="M162.591 12.431C160.137 10.6301 159.158 7.4317 160.183 4.56569C161.207 1.69969 163.992 -0.152992 167.031 0.00994589C170.071 0.173387 172.642 2.31322 173.354 5.27226C174.066 8.2313 172.751 11.3065 170.119 12.8348C169.352 13.2799 168.507 13.5725 167.63 13.6968C166.788 13.8165 165.932 13.7787 165.103 13.5861C164.196 13.3749 163.342 12.9822 162.591 12.431Z" fill="#151515"/>
<path d="M165.234 2.48929C167.622 1.69975 170.205 2.95949 171.053 5.32763C171.902 7.69577 170.707 10.3083 168.36 11.2155C166.79 11.8225 165.014 11.5304 163.72 10.4526C162.427 9.37444 161.82 7.67967 162.134 6.02565C162.448 4.37112 163.635 3.01784 165.234 2.48929Z" fill="#F0F0F0"/>
<path d="M214.925 100.346C216.051 97.9249 218.481 96.3784 221.152 96.3835C223.822 96.3885 226.247 97.9445 227.363 100.37C227.712 101.128 227.919 101.943 227.976 102.775C228.147 105.318 226.892 107.746 224.72 109.078C222.547 110.409 219.815 110.425 217.626 109.119C215.438 107.813 214.156 105.4 214.297 102.856C214.345 101.987 214.558 101.135 214.925 100.346Z" fill="#151515"/>
<path d="M219.178 99.02C220.721 98.314 222.527 98.5086 223.885 99.5274C225.242 100.546 225.934 102.226 225.686 103.906C225.439 105.585 224.293 106.994 222.7 107.579C220.364 108.436 217.769 107.295 216.822 104.994C215.875 102.693 216.915 100.055 219.178 99.02Z" fill="#F0F0F0"/>
<path d="M24.3462 177.132C25.1861 177.232 26.0003 177.487 26.7476 177.883C29.8741 179.542 31.2229 183.309 29.8595 186.575C28.4961 189.841 24.8693 191.531 21.4913 190.475C18.1134 189.419 16.0957 185.963 16.8365 182.502C17.5768 179.041 20.8315 176.714 24.3462 177.132Z" fill="#151515"/>
<path d="M22.2812 179.512C24.6699 178.817 27.1759 180.157 27.9257 182.529C28.6755 184.9 27.3951 187.436 25.0416 188.241C23.4695 188.779 21.7295 188.423 20.4949 187.311C19.2603 186.199 18.7252 184.506 19.0958 182.886C19.467 181.267 20.686 179.975 22.2812 179.512Z" fill="#F0F0F0"/>
<path d="M88.2955 65.0762C90.7742 54.3474 105.231 59.8486 101.03 69.4273L99.5282 71.1748C94.4162 74.1238 90.1924 73.1884 88.1924 67.3759L88.2955 65.0762Z" fill="#151515"/>
<path d="M93.1654 61.8366C95.4686 60.8394 98.1455 61.8733 99.181 64.1595C100.216 66.4456 99.2273 69.1397 96.9587 70.2129C95.4571 70.9234 93.6894 70.7685 92.3336 69.8085C90.9783 68.848 90.2466 67.2312 90.4185 65.5792C90.591 63.9271 91.6411 62.4964 93.1654 61.8366Z" fill="#F0F0F0"/>
<path d="M42.4309 114.579C45.1119 113.919 47.0219 113.525 49.5243 115.085C51.0249 116.019 52.0875 117.517 52.4728 119.242C52.8479 121.043 52.4758 122.919 51.4418 124.44C49.8597 126.737 47.305 127.435 44.6678 127.68L42.7644 126.967C38.2765 123.702 37.7862 120.922 40.5934 116.205L42.4309 114.579Z" fill="#151515"/>
<path d="M43.8563 116.611C45.3474 115.902 47.1045 116.05 48.4563 116.999C49.8081 117.947 50.5453 119.549 50.3859 121.192C50.227 122.835 49.1961 124.266 47.6879 124.938C45.3957 125.958 42.7092 124.945 41.6607 122.666C40.6116 120.387 41.5903 117.688 43.8563 116.611Z" fill="#F0F0F0"/>
<path d="M9.21218 77.5468C6.55388 78.5576 3.54716 77.8068 1.67669 75.6645C-0.193782 73.5221 -0.532381 70.4414 0.828003 67.944C2.18844 65.4466 4.9602 64.0602 7.7744 64.4695C10.5891 64.8789 12.8506 66.9976 13.443 69.7796C13.6055 70.5415 13.6352 71.3255 13.5316 72.0974C13.3304 73.5981 12.6344 74.9886 11.5532 76.0482C10.8843 76.7035 10.0872 77.2139 9.21218 77.5468Z" fill="#151515"/>
<path d="M5.19186 66.8796C7.54587 66.0086 10.1592 67.2211 11.0136 69.5812C11.8685 71.9413 10.6374 74.5458 8.27129 75.3836C5.92865 76.2134 3.35574 74.9974 2.50966 72.6604C1.66359 70.324 2.86139 67.7426 5.19186 66.8796Z" fill="#F0F0F0"/>
<path d="M184.657 86.3632C187.538 86.7635 189.844 88.9531 190.393 91.809C190.681 93.3117 190.453 94.8676 189.747 96.2249C188.294 99.0175 185.112 100.445 182.06 99.6738C179.007 98.9029 176.885 96.1354 176.932 92.9878C176.98 89.8402 179.184 87.1376 182.258 86.4582C183.046 86.2842 183.858 86.252 184.657 86.3632Z" fill="#151515"/>
<path d="M181.894 89.0054C183.381 88.3405 185.11 88.5271 186.421 89.4936C187.732 90.4607 188.421 92.0579 188.224 93.6747C188.028 95.2915 186.976 96.677 185.472 97.3016C183.189 98.2491 180.569 97.1875 179.591 94.9184C178.612 92.6488 179.639 90.0147 181.894 89.0054Z" fill="#F0F0F0"/>
<path d="M121.06 85.8914C122.67 84.4728 124.855 83.8989 126.954 84.3445C127.801 84.5245 128.606 84.865 129.325 85.3483C132.317 87.3569 133.215 91.3539 131.371 94.4492C129.526 97.5445 125.583 98.657 122.393 96.9823C119.203 95.3077 117.88 91.4303 119.38 88.1545C119.775 87.291 120.348 86.5195 121.06 85.8914Z" fill="#151515"/>
<path d="M124.413 86.5084C126.848 85.8863 129.324 87.3608 129.938 89.7973C130.551 92.2339 129.068 94.7056 126.629 95.3101C124.203 95.9121 121.746 94.4381 121.136 92.0136C120.525 89.5892 121.991 87.1275 124.413 86.5084Z" fill="#F0F0F0"/>
<path d="M42.7643 126.967L44.6678 127.68C39.5584 143.276 32.6637 162.517 26.7476 177.883C26.0003 177.487 25.1861 177.232 24.3463 177.132C25.8897 174.316 28.9105 165.162 30.1773 161.747C34.4419 150.255 38.2634 138.365 42.7643 126.967Z" fill="#151515"/>
<path d="M9.21225 77.547C10.0873 77.2141 10.8844 76.7037 11.5532 76.0484C21.7258 88.9879 32.0186 101.831 42.431 114.579L40.5935 116.205C39.0692 115.27 12.6194 81.7854 9.21225 77.547Z" fill="#151515"/>
<path d="M99.5279 71.1747L101.03 69.4272C107.641 74.9947 114.319 80.4833 121.06 85.8915C120.348 86.5196 119.775 87.291 119.38 88.1545C115.751 84.2234 104.145 75.0204 99.5279 71.1747Z" fill="#151515"/>
<path d="M190.392 91.8092L190.794 93.7781C193.209 95.2657 211.377 99.7711 214.925 100.346C214.558 101.135 214.345 101.987 214.297 102.856C206.145 100.641 197.817 98.6416 189.747 96.2252C190.453 94.8679 190.681 93.3119 190.392 91.8092Z" fill="#151515"/>
</svg>
