<svg width="321" height="185" viewBox="0 0 321 185" fill="none" xmlns="http://www.w3.org/2000/svg">
<path d="M115.93 0.007293C120.15 -0.145385 122.996 2.10362 123.509 6.33467C132.2 7.04318 141.391 8.16699 150.114 9.06569L201.746 14.3551C209.866 15.2209 217.992 16.0394 226.122 16.8106C227.306 13.885 229.277 11.8636 232.594 11.7284C234.47 11.6373 236.302 12.3197 237.66 13.6167C239.321 15.2117 239.734 16.9388 239.795 19.1421C252.899 21.3569 266.021 23.459 279.162 25.448C279.606 24.452 280.02 23.7119 280.784 22.9183C282.059 21.5825 283.821 20.8212 285.667 20.8085C287.564 20.7821 289.389 21.5247 290.73 22.8667C292.064 24.1934 292.799 26.0071 292.764 27.888C292.722 30.1454 291.772 31.6188 290.214 33.1347C297.481 46.6742 305.267 60.045 312.497 73.6205C313.872 73.4176 314.761 73.3311 316.14 73.7308C317.875 74.2262 319.338 75.4035 320.19 76.9942C321.081 78.6983 321.245 80.691 320.642 82.5174C320.083 84.2293 318.862 85.6465 317.252 86.4542C315.209 87.4666 313.362 87.2817 311.293 86.5591L286.607 119.857C287.225 120.719 287.614 121.278 287.925 122.301C288.488 124.093 288.3 126.036 287.404 127.686C286.496 129.325 284.962 130.524 283.154 131.01C280.879 131.633 279.165 131.087 277.204 129.98L237.492 173.451C238.452 175.023 239.029 176.413 238.92 178.297C238.81 180.072 237.985 181.728 236.636 182.886C235.246 184.118 233.419 184.734 231.57 184.601C227.143 184.262 224.97 180.844 225.354 176.631L214.782 172.779C213.723 174.599 212.125 175.874 210.024 176.246C208.259 176.552 206.444 176.14 204.984 175.105C203.483 174.052 202.474 172.435 202.189 170.623C201.854 168.487 202.464 166.806 203.698 165.107C175.035 137.167 146.211 109.394 117.225 81.7894C115.158 83.4168 112.385 83.9326 109.941 82.8552C108.23 82.0876 106.896 80.6677 106.236 78.9113C105.569 77.1137 105.653 75.123 106.469 73.3877C107.263 71.7241 108.805 70.4988 110.539 69.9239C112.332 69.3217 114.292 69.4667 115.977 70.3262C117.583 71.1328 118.793 72.558 119.327 74.2745C120.013 76.4556 119.629 78.2252 118.611 80.177C128.822 89.5411 139.331 99.9145 149.346 109.554L203.249 161.814L205.225 163.742C206.641 162.993 207.943 162.618 209.57 162.771C211.345 162.929 212.98 163.806 214.095 165.195C215.474 166.918 215.715 168.749 215.482 170.86C218.72 172.185 222.599 173.467 225.96 174.73L226.024 174.622C228.268 170.957 232.29 169.797 235.985 172.136C240.42 166.896 245.997 161.041 250.663 155.937L275.789 128.574C275.48 128.043 275.087 127.296 274.898 126.723C274.285 124.919 274.42 122.944 275.275 121.24C276.081 119.625 277.507 118.404 279.226 117.855C281.315 117.179 283.196 117.572 285.094 118.547L309.64 85.4427C309.272 85.0721 308.929 84.6755 308.619 84.2564C306.152 80.8858 307.434 76.6412 310.718 74.3525C308.231 70.2117 305.529 64.968 303.141 60.6394L288.484 34.1817C282.943 35.7604 279.391 33.0579 278.793 27.4731C274.962 27.0878 268.906 25.9571 264.966 25.3307C256.41 23.9764 247.864 22.5783 239.324 21.1367L239.279 21.2233C239.019 21.7204 238.767 22.2428 238.423 22.6874C237.251 24.2298 235.5 25.2268 233.576 25.4481C231.731 25.6538 229.882 25.1016 228.451 23.9179C226.808 22.5505 226.168 20.9739 225.981 18.9087C222.174 18.4241 217.95 18.0848 214.1 17.6956L190.911 15.3573L123.462 8.57396C122.932 9.95831 122.47 10.9046 121.393 11.9341C120.058 13.2106 118.261 13.8892 116.415 13.814C114.049 13.7247 112.526 12.6942 110.989 11.0239L77.7387 28.6047C78.3375 30.6149 78.4188 32.4925 77.4176 34.4025C76.5296 36.0738 75.0056 37.3167 73.19 37.8503C71.4114 38.3791 69.4956 38.1764 67.8671 37.2872C66.0645 36.2907 65.1423 34.8388 64.5704 32.9231C48.0729 33.9806 30.5563 35.5379 14.0517 36.9648C13.383 40.4587 11.8808 42.1333 8.52068 43.2094C8.49811 53.0873 8.65476 63.3019 8.47657 73.147C11.1894 73.9172 13.315 75.6743 13.9385 78.4939C15.2912 84.6099 8.35639 89.3054 3.20365 85.8546C1.6781 84.8202 0.631362 83.2165 0.298603 81.4034C-0.0572558 79.5593 0.331253 77.6492 1.3792 76.0908C2.68871 74.1642 4.26428 73.5286 6.43955 73.0925C6.18286 63.624 6.43052 52.9757 6.43781 43.4263C1.74322 42.1919 -1.51091 38.5467 0.718025 33.6339C1.50842 31.8858 2.97301 30.5322 4.77783 29.8822C8.99933 28.3676 12.4436 30.7636 13.8379 34.762C18.7284 34.5317 24.3362 33.9651 29.2504 33.5722L64.2911 30.7745C64.5883 29.1037 64.9075 27.9612 66.0655 26.6379C67.2828 25.256 69.0046 24.4218 70.8433 24.3226C73.289 24.1791 74.8352 25.1497 76.5706 26.6808L109.983 9.00524L109.945 8.81939C109.01 4.22931 111.355 0.858922 115.93 0.007293Z" fill="#151515"/>
<path d="M5.88059 75.2839C8.51106 74.6026 11.1955 76.1833 11.8762 78.8142C12.5566 81.4452 10.9753 84.1296 8.34451 84.8095C5.71473 85.4892 3.03199 83.9085 2.35171 81.2786C1.67143 78.6487 3.25117 75.9651 5.88059 75.2839Z" fill="#F0F0F0"/>
<path d="M112.127 71.6158C114.809 71.2868 117.252 73.1886 117.591 75.8696C117.93 78.5504 116.037 81.0006 113.358 81.3495C110.665 81.7006 108.199 79.7955 107.858 77.1004C107.517 74.4055 109.431 71.9465 112.127 71.6158Z" fill="#F0F0F0"/>
<path d="M70.1845 26.4522C72.833 25.8592 75.4586 27.5335 76.0387 30.1851C76.6188 32.8368 74.9322 35.4547 72.2779 36.022C69.6419 36.5855 67.0462 34.9126 66.4699 32.279C65.8939 29.6453 67.554 27.0411 70.1845 26.4522Z" fill="#F0F0F0"/>
<path d="M5.88531 31.6704C8.52359 31.017 11.1893 32.6375 11.8239 35.2807C12.4585 37.924 10.8192 40.5782 8.1719 41.1941C5.55098 41.804 2.9292 40.1844 2.30102 37.5677C1.67267 34.9508 3.27342 32.3172 5.88531 31.6704Z" fill="#F0F0F0"/>
<path d="M284.626 22.9844C287.253 22.3495 289.898 23.9658 290.532 26.594C291.166 29.222 289.549 31.8665 286.922 32.4996C284.294 33.1325 281.652 31.5165 281.018 28.8895C280.384 26.2625 282 23.6191 284.626 22.9844Z" fill="#F0F0F0"/>
<path d="M280.53 119.589C282.267 119.289 284.031 119.948 285.144 121.314C286.259 122.679 286.553 124.539 285.912 126.181C285.271 127.823 283.797 128.993 282.051 129.242C279.408 129.62 276.951 127.804 276.534 125.166C276.119 122.527 277.899 120.043 280.53 119.589Z" fill="#F0F0F0"/>
<path d="M232.134 13.7785C234.798 13.375 237.285 15.2071 237.69 17.8709C238.093 20.5349 236.262 23.0222 233.598 23.4273C230.934 23.8323 228.445 22.0002 228.042 19.3352C227.637 16.6702 229.47 14.1822 232.134 13.7785Z" fill="#F0F0F0"/>
<path d="M115.685 2.13718C118.334 1.59994 120.914 3.32004 121.438 5.97203C121.962 8.62418 120.229 11.1961 117.574 11.7062C114.939 12.2127 112.39 10.4945 111.87 7.86166C111.35 5.22861 113.055 2.67042 115.685 2.13718Z" fill="#F0F0F0"/>
<path d="M313.65 75.4546C316.263 75.1583 318.639 76.9903 319.018 79.5929C319.395 82.1954 317.639 84.628 315.049 85.0874C313.301 85.3978 311.522 84.7314 310.409 83.3486C309.294 81.9656 309.021 80.0857 309.695 78.4429C310.371 76.7999 311.885 75.6549 313.65 75.4546Z" fill="#F0F0F0"/>
<path d="M231.03 173.076C232.735 172.69 234.515 173.25 235.694 174.54C236.872 175.832 237.265 177.658 236.724 179.32C236.183 180.982 234.79 182.226 233.077 182.575C230.469 183.11 227.916 181.443 227.355 178.839C226.794 176.235 228.433 173.665 231.03 173.076Z" fill="#F0F0F0"/>
<path d="M208.202 164.747C210.786 164.388 213.188 166.151 213.621 168.725C214.051 171.299 212.356 173.75 209.796 174.254C208.073 174.592 206.305 173.969 205.176 172.624C204.048 171.282 203.737 169.432 204.365 167.794C204.994 166.156 206.463 164.989 208.202 164.747Z" fill="#F0F0F0"/>
</svg>
