<svg width="162" height="225" viewBox="0 0 162 225" fill="none" xmlns="http://www.w3.org/2000/svg">
<path d="M83.9988 120.642C84.6969 120.903 85.2801 121.06 85.8591 121.524C81.3467 126.521 74.8166 135.474 70.4584 140.985L41.7791 176.894L20.7743 203.218C18.9958 205.445 12.1081 213.754 10.888 215.775C10.4589 215.129 9.90724 214.573 9.26444 214.139L83.9988 120.642Z" fill="#151515"/>
<path d="M52.804 6.26161C74.6168 11.6777 96.3781 17.3121 118.076 23.1645C128.509 25.9345 140.007 28.7794 150.305 31.861C149.985 32.5297 149.79 33.2513 149.73 33.9899C117.322 25.253 84.8632 16.7153 52.3523 8.3773C52.6286 7.70471 52.7814 6.98827 52.804 6.26161Z" fill="#151515"/>
<path d="M151.684 38.9922C152.258 39.5171 152.922 39.9283 153.65 40.2037C133.579 64.0978 113.384 89.0373 92.7723 112.42C92.4275 112.085 91.7975 111.314 91.4527 110.917C97.8295 102.828 105.718 93.8825 112.409 85.9523C125.614 70.3941 138.709 54.7406 151.684 38.9922Z" fill="#151515"/>
<path d="M150.304 31.8608C151.731 28.8758 155.272 27.5677 158.295 28.9099C161.317 30.2521 162.722 33.7573 161.466 36.8163C160.206 39.8753 156.741 41.3771 153.65 40.2035C152.922 39.9281 152.258 39.5169 151.684 38.992C150.296 37.7162 149.572 35.87 149.73 33.9897C149.789 33.2511 149.985 32.5296 150.304 31.8608Z" fill="#151515"/>
<path d="M155.102 30.3658C157.303 29.9827 159.414 31.4054 159.887 33.59C160.359 35.7747 159.023 37.9427 156.86 38.5029C155.379 38.8856 153.808 38.4276 152.769 37.3093C151.726 36.1906 151.381 34.5917 151.867 33.1426C152.352 31.694 153.595 30.6281 155.102 30.3658Z" fill="#F0F0F0"/>
<path d="M52.3523 8.37722C51.1591 11.2851 47.9443 12.8014 44.9419 11.873C41.9391 10.9446 40.1414 7.87831 40.7974 4.8044C41.4534 1.73091 44.3468 -0.334122 47.4667 0.0447427C50.5866 0.423182 52.9023 3.11994 52.804 6.26154C52.7814 6.98819 52.6286 7.70463 52.3523 8.37722Z" fill="#151515"/>
<path d="M45.242 2.21457C47.3641 1.3866 49.7565 2.42315 50.6045 4.53713C51.452 6.65112 50.4384 9.05329 48.3325 9.92128C46.1981 10.8008 43.7564 9.77016 42.8973 7.62766C42.0378 5.48515 43.0914 3.05318 45.242 2.21457Z" fill="#F0F0F0"/>
<path d="M83.9986 120.642C83.2537 119.741 82.4576 118.808 82.0872 117.692C81.5466 116.039 81.6956 114.238 82.4959 112.695C83.1898 111.388 84.3775 110.413 85.7908 109.988C88.0427 109.297 89.49 109.882 91.4525 110.916C91.7973 111.314 92.4273 112.085 92.7721 112.42C95.3901 118.12 91.8271 122.098 85.8589 121.524C85.2799 121.059 84.6968 120.903 83.9986 120.642Z" fill="#151515"/>
<path d="M86.7743 111.695C88.2259 111.354 89.7499 111.835 90.746 112.949C91.7421 114.062 92.0486 115.631 91.5421 117.037C91.0397 118.444 89.8095 119.463 88.3366 119.695C86.1698 120.035 84.1222 118.6 83.7008 116.447C83.2794 114.295 84.6373 112.195 86.7743 111.695Z" fill="#F0F0F0"/>
<path d="M10.8882 215.776C12.5782 218.322 12.0605 221.734 9.69153 223.665C7.32256 225.595 3.87489 225.413 1.72302 223.243C-0.429277 221.074 -0.584214 217.625 1.36545 215.272C3.31469 212.918 6.73213 212.428 9.26456 214.139C9.90736 214.573 10.4591 215.129 10.8882 215.776Z" fill="#151515"/>
<path d="M5.1607 215.13C7.27426 214.685 9.35845 216.002 9.86162 218.102C10.3648 220.203 9.10431 222.322 7.01842 222.882C5.61747 223.258 4.12289 222.845 3.1157 221.801C2.10809 220.757 1.74666 219.25 2.17193 217.863C2.59719 216.476 3.74187 215.43 5.1607 215.13Z" fill="#F0F0F0"/>
</svg>
