<svg width="204" height="237" viewBox="0 0 204 237" fill="none" xmlns="http://www.w3.org/2000/svg">
<path d="M181.674 131.675C182.243 131.907 182.853 132.03 183.466 132.039C180.917 139.967 177.693 156.05 175.594 164.816L160.353 227.39C159.872 227.171 159.361 227.029 158.834 226.969C161.531 217.364 163.982 205.829 166.373 195.912L181.674 131.675Z" fill="#151515"/>
<path d="M151.969 7.31973C162.516 18.0823 172.999 28.9111 183.413 39.8051C185.671 42.1695 195.192 52.4627 196.752 53.6079C196.078 53.9383 195.491 54.4164 195.029 55.0066C180.864 39.5316 165.346 23.8221 150.84 8.58128C150.977 8.34715 151.735 7.56825 151.969 7.31973Z" fill="#151515"/>
<path d="M197.196 62.7065C197.771 62.9228 198.385 63.03 198.999 63.0221C193.741 81.6869 190.335 103.564 185.361 122.52C184.876 122.327 184.36 122.213 183.841 122.18C185.508 116.254 187.16 107.698 188.531 101.563L197.196 62.7065Z" fill="#151515"/>
<path d="M12.6081 89.5032C19.4916 89.7984 26.6631 89.2786 33.5391 89.3752C45.4841 89.5426 58.289 89.3487 70.1922 89.8946C69.9005 90.4818 69.73 91.1216 69.6921 91.7759C66.3431 91.327 56.7698 91.4281 52.7162 91.3736C39.3582 91.1751 25.9964 91.1671 12.6383 91.3505C12.7444 90.7383 12.7331 90.1113 12.6081 89.5032Z" fill="#151515"/>
<path d="M77.6101 125.787C77.8033 126.453 78.1367 127.071 78.5837 127.6L46.3594 144.575C43.7529 145.951 33.8613 151.444 31.5163 152.36C31.3458 151.822 31.0844 151.318 30.7397 150.871L60.5887 135.034C65.8091 132.263 72.689 128.843 77.6101 125.787Z" fill="#151515"/>
<path d="M158.834 226.969C159.361 227.029 159.872 227.171 160.353 227.39C162.744 228.478 163.895 231.22 162.997 233.687C162.1 236.154 159.459 237.517 156.928 236.817C154.398 236.117 152.833 233.589 153.329 231.012C153.829 228.435 156.228 226.674 158.834 226.969Z" fill="#151515"/>
<path d="M157.633 228.7C159.414 228.351 161.145 229.49 161.531 231.261C161.918 233.034 160.812 234.788 159.05 235.209C157.876 235.488 156.644 235.112 155.826 234.225C155.008 233.338 154.735 232.079 155.11 230.933C155.485 229.787 156.451 228.933 157.633 228.7Z" fill="#F0F0F0"/>
<path d="M9.8427 65.5744C19.6623 65.3968 29.4819 65.3468 39.3015 65.4237C44.128 65.4555 50.629 65.7593 55.2054 65.5843C55.1334 66.0832 55.1372 66.5897 55.2168 67.0872L9.83891 67.0697C9.91846 66.5742 9.91847 66.0704 9.8427 65.5744Z" fill="#151515"/>
<path d="M55.2052 65.5842C55.4742 63.7495 56.7358 62.2148 58.486 61.6022C60.2363 60.9896 62.1835 61.4007 63.536 62.669C63.8997 63.01 64.2104 63.404 64.4566 63.8378C65.4416 65.5691 65.3014 67.7217 64.0967 69.3086C62.892 70.896 60.8576 71.6116 58.9217 71.1278C56.9896 70.6444 55.5311 69.0544 55.2166 67.0871C55.1371 66.5897 55.1333 66.0832 55.2052 65.5842Z" fill="#151515"/>
<path d="M59.2021 63.1343C60.8879 62.6308 62.6685 63.5506 63.233 65.2157C63.8012 66.8807 62.9488 68.695 61.3046 69.3219C60.187 69.7489 58.9217 69.5307 58.0125 68.7525C57.1033 67.9748 56.6903 66.7613 56.9404 65.5903C57.1866 64.419 58.0542 63.4768 59.2021 63.1343Z" fill="#F0F0F0"/>
<path d="M196.752 53.6077C198.582 52.7091 200.772 53.0205 202.28 54.3923C203.787 55.7645 204.303 57.9182 203.579 59.8234C202.852 61.7282 201.037 62.997 198.999 63.022C198.385 63.03 197.771 62.9227 197.196 62.7064C195.718 62.1518 194.593 60.9259 194.165 59.4052C193.737 57.8845 194.059 56.2509 195.029 55.0064C195.491 54.4162 196.078 53.9381 196.752 53.6077Z" fill="#151515"/>
<path d="M198.548 54.7951C199.719 54.6511 200.874 55.1512 201.571 56.1025C202.268 57.0538 202.397 58.3077 201.908 59.381C201.42 60.4542 200.389 61.1794 199.215 61.2767C197.446 61.4229 195.885 60.1277 195.703 58.3627C195.521 56.5976 196.786 55.0118 198.548 54.7951Z" fill="#F0F0F0"/>
<path d="M36.8579 191.635C39.3999 191.871 41.3472 194.001 41.351 196.553C41.3548 199.106 39.4189 201.243 36.8768 201.489C34.3386 201.734 32.0276 200.006 31.5427 197.5C31.0616 194.993 32.5618 192.531 35.0129 191.814C35.6115 191.638 36.2366 191.578 36.8579 191.635Z" fill="#151515"/>
<path d="M35.4864 193.433C37.195 192.907 39.0097 193.859 39.5476 195.565C40.0856 197.27 39.146 199.09 37.445 199.64C35.7251 200.196 33.8839 199.245 33.3384 197.522C32.7966 195.799 33.7589 193.964 35.4864 193.433Z" fill="#F0F0F0"/>
<path d="M4.63338 71.249C2.04209 71.0838 0.0190761 68.9434 0.000133923 66.3464C-0.0188082 63.7494 1.97388 61.5794 4.56137 61.3763C7.15266 61.1733 9.45605 63.0061 9.84247 65.5743C9.91824 66.0702 9.91824 66.5741 9.83868 67.0696C9.53561 69.0271 8.0922 70.6152 6.17525 71.105C5.67139 71.2335 5.15239 71.2819 4.63338 71.249Z" fill="#151515"/>
<path d="M4.27739 63.1278C5.45181 62.8797 6.66413 63.3014 7.42939 64.2227C8.19466 65.1444 8.38785 66.4143 7.92945 67.5217C7.47105 68.629 6.44061 69.3916 5.24725 69.5026C3.54246 69.6614 2.01194 68.4635 1.75433 66.7719C1.49672 65.0804 2.6029 63.4821 4.27739 63.1278Z" fill="#F0F0F0"/>
<path d="M183.841 122.18C184.36 122.213 184.876 122.327 185.361 122.52C187.573 123.4 188.842 125.734 188.376 128.069C187.91 130.404 185.845 132.074 183.466 132.039C182.853 132.03 182.243 131.907 181.674 131.675C179.435 130.763 178.189 128.364 178.727 126.008C179.265 123.652 181.428 122.031 183.841 122.18Z" fill="#151515"/>
<path d="M182.375 124.11C184.035 123.445 185.921 124.245 186.596 125.901C187.27 127.556 186.482 129.445 184.83 130.13C183.167 130.822 181.254 130.025 180.576 128.355C179.894 126.685 180.701 124.78 182.375 124.11Z" fill="#F0F0F0"/>
<path d="M77.1668 50.7313C76.0075 48.606 76.5644 45.9541 78.4776 44.4732C80.3945 42.9919 83.0995 43.1192 84.8649 44.7732C85.3195 45.1964 85.687 45.701 85.9521 46.2606C86.9485 48.365 86.3386 50.8806 84.486 52.2929C82.6335 53.7056 80.046 53.6298 78.2806 52.1114C77.8298 51.7223 77.4509 51.2549 77.1668 50.7313Z" fill="#151515"/>
<path d="M80.4779 45.3138C82.1448 44.7523 83.9557 45.6233 84.5581 47.2758C85.1566 48.9283 84.3308 50.7589 82.6942 51.3991C81.5993 51.8268 80.3567 51.6283 79.4513 50.8797C78.5458 50.1311 78.114 48.9503 78.3299 47.7944C78.5421 46.6386 79.3641 45.6892 80.4779 45.3138Z" fill="#F0F0F0"/>
<path d="M105.19 30.7382C103.629 25.617 108.63 22.5109 113.388 25.4954L114.403 26.9736C115.835 32.8082 110.687 36.0617 106.016 32.2551L105.19 30.7382Z" fill="#151515"/>
<path d="M108.842 25.9769C110.52 25.4329 112.323 26.333 112.899 28.0011C113.475 29.6691 112.608 31.4906 110.952 32.0968C109.85 32.4987 108.618 32.2756 107.732 31.5133C106.842 30.7511 106.436 29.568 106.664 28.4201C106.895 27.2722 107.728 26.3376 108.842 25.9769Z" fill="#F0F0F0"/>
<path d="M142.972 6.72447C141.616 1.08425 147.09 -1.73056 150.806 1.13501C151.757 1.87717 152.367 2.97619 152.492 4.17751C152.591 5.17045 152.39 6.41343 151.969 7.31963C151.735 7.56815 150.977 8.34705 150.841 8.58118C147.836 10.3545 146.491 10.2746 143.752 8.0936L142.972 6.72447Z" fill="#151515"/>
<path d="M146.673 1.75244C148.336 1.25198 150.098 2.15136 150.67 3.79213C151.242 5.4329 150.42 7.23316 148.806 7.87568C147.7 8.31665 146.438 8.11435 145.521 7.34795C144.608 6.58193 144.188 5.37607 144.427 4.20734C144.669 3.03861 145.529 2.09605 146.673 1.75244Z" fill="#F0F0F0"/>
<path d="M82.0803 119.523C84.3799 119.408 86.4521 120.906 87.0582 123.125C87.6682 125.345 86.6529 127.69 84.6185 128.765C82.5841 129.84 80.0724 129.355 78.5835 127.6C78.1365 127.071 77.8031 126.453 77.6099 125.787C76.9128 123.37 78.1554 120.817 80.4891 119.874C80.9968 119.669 81.5348 119.551 82.0803 119.523Z" fill="#151515"/>
<path d="M81.0576 121.458C82.1525 120.991 83.4178 121.164 84.346 121.91C85.2741 122.656 85.7174 123.852 85.4976 125.023C85.2779 126.193 84.4293 127.148 83.2928 127.505C81.6524 128.022 79.8945 127.161 79.296 125.547C78.7012 123.933 79.474 122.134 81.0576 121.458Z" fill="#F0F0F0"/>
<path d="M8.05051 85.6208C10.2781 85.7292 12.1458 87.3245 12.608 89.5032C12.733 90.1113 12.7444 90.7382 12.6383 91.3505C12.2291 93.7141 10.1682 95.4325 7.76638 95.4101C5.3683 95.3874 3.33769 93.6307 2.974 91.2599C2.60652 88.8891 4.01203 86.602 6.29267 85.8572C6.86093 85.6716 7.45572 85.5917 8.05051 85.6208Z" fill="#151515"/>
<path d="M6.30432 87.7525C7.83864 86.9035 9.7745 87.4517 10.6345 88.9811C11.4982 90.5105 10.9678 92.449 9.4449 93.3245C7.90301 94.211 5.93683 93.6715 5.0617 92.1232C4.19036 90.5749 4.74727 88.6121 6.30432 87.7525Z" fill="#F0F0F0"/>
<path d="M27.0497 158.716C24.7388 158.802 22.6854 157.256 22.1285 155.013C21.5754 152.769 22.6702 150.444 24.7501 149.442C26.8337 148.44 29.3341 149.036 30.7396 150.871C31.0844 151.318 31.3458 151.822 31.5162 152.359C32.2701 154.727 31.126 157.282 28.8567 158.295C28.2885 158.55 27.6748 158.693 27.0497 158.716Z" fill="#151515"/>
<path d="M26.3526 150.661C28.0498 150.375 29.6675 151.491 30.0047 153.179C30.338 154.867 29.2735 156.516 27.5952 156.902C26.4663 157.161 25.2843 156.785 24.5114 155.921C23.7386 155.057 23.4962 153.841 23.8788 152.747C24.2614 151.653 25.2123 150.854 26.3526 150.661Z" fill="#F0F0F0"/>
<path d="M70.1923 89.8945C71.1583 87.9468 73.2988 86.8785 75.4355 87.2805C77.5721 87.682 79.1822 89.4554 79.3754 91.6209C79.5686 93.7863 78.2957 95.8158 76.2651 96.5879C75.7764 96.7727 75.2649 96.8781 74.7421 96.9C73.3745 96.9572 72.0448 96.4333 71.0825 95.457C70.1203 94.4811 69.6164 93.1438 69.6922 91.7758C69.7301 91.1215 69.9006 90.4817 70.1923 89.8945Z" fill="#151515"/>
<path d="M73.0071 89.2622C74.5262 88.4261 76.4318 88.9713 77.2804 90.4833C78.1291 91.9952 77.6025 93.9084 76.0947 94.7695C74.5755 95.6404 72.632 95.1036 71.7758 93.5739C70.9159 92.0441 71.469 90.1078 73.0071 89.2622Z" fill="#F0F0F0"/>
<path d="M113.388 25.4953C123.113 19.643 133.273 12.8442 142.972 6.72441L143.752 8.09355C135.277 13.7644 126.556 19.0493 118.01 24.6062C116.809 25.3874 115.555 26.1163 114.403 26.9736L113.388 25.4953Z" fill="#151515"/>
<path d="M28.8567 158.295L34.4409 181.54C34.7289 182.764 36.5359 190.864 36.8579 191.635C36.2366 191.578 35.6115 191.638 35.0129 191.814C32.4823 180.752 29.8266 169.719 27.0497 158.716C27.6748 158.693 28.2885 158.55 28.8567 158.295Z" fill="#151515"/>
<path d="M105.19 30.7383L106.016 32.2552C99.2684 36.835 92.5781 41.5038 85.9521 46.2606C85.6869 45.7011 85.3194 45.1964 84.8648 44.7733C91.5741 39.9987 98.3479 35.32 105.19 30.7383Z" fill="#151515"/>
<path d="M74.7423 96.9001C75.2651 96.8782 75.7766 96.7728 76.2653 96.588C78.1405 104.117 79.9969 112.078 82.0805 119.523C81.535 119.55 80.997 119.669 80.4894 119.874L74.7423 96.9001Z" fill="#151515"/>
<path d="M77.1665 50.7312C77.4507 51.2548 77.8296 51.7223 78.2804 52.1113C73.6433 55.9842 69.0328 59.8932 64.4564 63.8377C64.2101 63.4039 63.8995 63.0099 63.5358 62.6689C68.0857 58.7653 72.7985 54.817 77.1665 50.7312Z" fill="#151515"/>
<path d="M4.63346 71.2489C5.15247 71.2819 5.67147 71.2334 6.17533 71.105C6.45188 73.2871 7.54298 84.3421 8.05063 85.6207C7.45585 85.5916 6.86106 85.6715 6.29279 85.8571C5.69043 81.0216 5.01609 76.1 4.63346 71.2489Z" fill="#151515"/>
</svg>
