<svg xmlns="http://www.w3.org/2000/svg" viewBox="0.000 0.000 320.945 184.587" width="320.9" height="184.6" fill="none" color="rgba(21,21,21,0.8)">
<svg x="0" y="0" width="320.945" height="184.587" viewBox="0 0 320.945 184.587" overflow="visible"><path d="M 115.91 0.007 C 120.129 -0.145 122.975 2.103 123.488 6.334 C 132.177 7.042 141.367 8.166 150.088 9.064 L 201.712 14.353 C 209.83 15.218 217.955 16.037 226.083 16.808 C 227.267 13.883 229.238 11.862 232.555 11.726 C 234.43 11.635 236.262 12.318 237.62 13.614 C 239.28 15.209 239.693 16.936 239.754 19.139 C 252.856 21.353 265.976 23.455 279.114 25.444 C 279.559 24.448 279.972 23.708 280.736 22.914 C 282.011 21.579 283.773 20.818 285.619 20.805 C 287.515 20.779 289.34 21.521 290.681 22.863 C 292.014 24.189 292.749 26.003 292.714 27.883 C 292.672 30.14 291.723 31.613 290.165 33.129 C 297.43 46.666 305.215 60.035 312.444 73.608 C 313.819 73.405 314.708 73.319 316.087 73.718 C 317.821 74.214 319.283 75.391 320.136 76.981 C 321.027 78.685 321.19 80.677 320.587 82.503 C 320.028 84.215 318.808 85.632 317.198 86.439 C 315.156 87.452 313.308 87.267 311.24 86.544 L 286.558 119.837 C 287.177 120.699 287.565 121.257 287.876 122.28 C 288.439 124.072 288.251 126.014 287.355 127.664 C 286.447 129.303 284.914 130.502 283.106 130.988 C 280.832 131.611 279.118 131.064 277.157 129.958 L 237.452 173.422 C 238.412 174.993 238.988 176.383 238.879 178.267 C 238.77 180.042 237.945 181.697 236.596 182.855 C 235.206 184.086 233.38 184.703 231.53 184.569 C 227.104 184.231 224.932 180.813 225.316 176.601 L 214.746 172.75 C 213.687 174.57 212.089 175.844 209.988 176.216 C 208.224 176.522 206.409 176.11 204.949 175.075 C 203.449 174.023 202.44 172.406 202.155 170.594 C 201.82 168.458 202.429 166.777 203.664 165.079 C 175.006 137.144 146.186 109.375 117.205 81.775 C 115.139 83.403 112.366 83.918 109.923 82.841 C 108.211 82.074 106.877 80.654 106.218 78.898 C 105.551 77.101 105.635 75.11 106.451 73.375 C 107.245 71.712 108.786 70.487 110.52 69.912 C 112.313 69.31 114.272 69.455 115.957 70.314 C 117.563 71.121 118.773 72.546 119.307 74.262 C 119.993 76.443 119.609 78.212 118.591 80.163 C 128.8 89.526 139.308 99.898 149.321 109.536 L 203.214 161.786 L 205.19 163.714 C 206.605 162.965 207.908 162.59 209.535 162.743 C 211.309 162.901 212.943 163.778 214.058 165.167 C 215.437 166.89 215.678 168.721 215.446 170.831 C 218.682 172.156 222.562 173.437 225.922 174.7 L 225.986 174.592 C 228.229 170.928 232.251 169.768 235.944 172.107 C 240.379 166.867 245.955 161.013 250.621 155.911 L 275.742 128.552 C 275.433 128.021 275.041 127.274 274.851 126.702 C 274.238 124.898 274.374 122.923 275.228 121.219 C 276.034 119.604 277.459 118.383 279.178 117.834 C 281.267 117.159 283.148 117.552 285.046 118.527 L 309.587 85.428 C 309.219 85.058 308.877 84.661 308.566 84.242 C 306.1 80.872 307.382 76.628 310.665 74.34 C 308.179 70.2 305.477 64.957 303.089 60.629 L 288.435 34.176 C 282.894 35.754 279.343 33.052 278.746 27.468 C 274.915 27.083 268.861 25.953 264.921 25.326 C 256.367 23.972 247.822 22.574 239.284 21.133 L 239.238 21.22 C 238.978 21.717 238.726 22.239 238.382 22.684 C 237.21 24.226 235.46 25.223 233.536 25.444 C 231.692 25.649 229.843 25.097 228.412 23.914 C 226.769 22.547 226.13 20.97 225.942 18.905 C 222.136 18.421 217.913 18.082 214.063 17.693 L 190.878 15.355 L 123.441 8.573 C 122.911 9.957 122.45 10.903 121.372 11.932 C 120.037 13.208 118.241 13.887 116.396 13.812 C 114.029 13.722 112.507 12.692 110.971 11.022 L 77.725 28.6 C 78.324 30.61 78.405 32.487 77.404 34.397 C 76.517 36.068 74.993 37.31 73.178 37.844 C 71.399 38.373 69.484 38.17 67.856 37.281 C 66.053 36.285 65.131 34.833 64.559 32.918 C 48.065 33.975 30.551 35.532 14.049 36.959 C 13.381 40.452 11.879 42.126 8.519 43.202 C 8.497 53.078 8.653 63.291 8.475 73.135 C 11.187 73.905 13.313 75.661 13.936 78.481 C 15.289 84.595 8.355 89.29 3.203 85.84 C 1.678 84.806 0.631 83.202 0.299 81.39 C -0.057 79.546 0.331 77.636 1.379 76.078 C 2.688 74.152 4.264 73.516 6.438 73.08 C 6.182 63.613 6.429 52.967 6.437 43.419 C 1.743 42.185 -1.511 38.54 0.718 33.628 C 1.508 31.88 2.973 30.527 4.777 29.877 C 8.998 28.363 12.442 30.758 13.836 34.756 C 18.725 34.526 24.332 33.959 29.245 33.567 L 64.28 30.769 C 64.577 29.099 64.896 27.956 66.054 26.633 C 67.271 25.252 68.993 24.418 70.831 24.318 C 73.277 24.175 74.822 25.145 76.558 26.676 L 109.965 9.004 L 109.926 8.818 C 108.992 4.229 111.336 0.859 115.91 0.007 Z" fill="currentColor" fill-rule="nonzero"></path></svg>
<svg x="2.193" y="75.113" width="9.839" height="9.84" viewBox="0 0 9.839 9.840" overflow="visible"><path d="M 3.686 0.158 C 6.316 -0.523 9 1.058 9.681 3.688 C 10.361 6.319 8.78 9.003 6.15 9.682 C 3.52 10.362 0.838 8.781 0.158 6.152 C -0.522 3.523 1.057 0.839 3.686 0.158 Z" fill="currentColor" fill-rule="nonzero"></path></svg>
<svg x="107.8" y="71.567" width="9.81" height="9.811" viewBox="0 0 9.810 9.811" overflow="visible"><path d="M 4.308 0.037 C 6.989 -0.292 9.431 1.61 9.77 4.29 C 10.109 6.97 8.217 9.42 5.538 9.769 C 2.845 10.12 0.38 8.215 0.039 5.521 C -0.301 2.826 1.612 0.368 4.308 0.037 Z" fill="currentColor" fill-rule="nonzero"></path></svg>
<svg x="66.344" y="26.328" width="9.795" height="9.797" viewBox="0 0 9.795 9.797" overflow="visible"><path d="M 3.828 0.119 C 6.476 -0.474 9.101 1.2 9.681 3.852 C 10.261 6.503 8.575 9.12 5.921 9.687 C 3.286 10.251 0.69 8.578 0.114 5.945 C -0.462 3.312 1.198 0.708 3.828 0.119 Z" fill="currentColor" fill-rule="nonzero"></path></svg>
<svg x="2.164" y="31.52" width="9.794" height="9.795" viewBox="0 0 9.794 9.795" overflow="visible"><path d="M 3.72 0.145 C 6.358 -0.509 9.023 1.112 9.658 3.754 C 10.292 6.397 8.653 9.051 6.006 9.667 C 3.386 10.277 0.765 8.657 0.136 6.041 C -0.492 3.425 1.109 0.791 3.72 0.145 Z" fill="currentColor" fill-rule="nonzero"></path></svg>
<svg x="280.833" y="22.843" width="9.787" height="9.789" viewBox="0 0 9.787 9.789" overflow="visible"><path d="M 3.744 0.138 C 6.371 -0.497 9.016 1.119 9.65 3.747 C 10.284 6.374 8.667 9.019 6.04 9.652 C 3.413 10.284 0.771 8.669 0.138 6.042 C -0.496 3.416 1.119 0.773 3.744 0.138 Z" fill="currentColor" fill-rule="nonzero"></path></svg>
<svg x="276.427" y="119.498" width="9.771" height="9.772" viewBox="0 0 9.771 9.772" overflow="visible"><path d="M 4.056 0.071 C 5.792 -0.228 7.556 0.43 8.669 1.796 C 9.784 3.161 10.078 5.02 9.437 6.662 C 8.796 8.304 7.322 9.474 5.577 9.723 C 2.934 10.1 0.477 8.285 0.06 5.647 C -0.355 3.009 1.425 0.525 4.056 0.071 Z" fill="currentColor" fill-rule="nonzero"></path></svg>
<svg x="227.947" y="13.721" width="9.758" height="9.759" viewBox="0 0 9.758 9.759" overflow="visible"><path d="M 4.147 0.056 C 6.811 -0.348 9.297 1.484 9.702 4.147 C 10.105 6.811 8.275 9.298 5.611 9.703 C 2.947 10.108 0.459 8.276 0.056 5.611 C -0.349 2.947 1.483 0.459 4.147 0.056 Z" fill="currentColor" fill-rule="nonzero"></path></svg>
<svg x="111.758" y="2.039" width="9.753" height="9.754" viewBox="0 0 9.753 9.754" overflow="visible"><path d="M 3.908 0.098 C 6.556 -0.439 9.136 1.281 9.66 3.932 C 10.183 6.584 8.45 9.156 5.796 9.666 C 3.162 10.172 0.613 8.454 0.093 5.822 C -0.426 3.189 1.278 0.631 3.908 0.098 Z" fill="currentColor" fill-rule="nonzero"></path></svg>
<svg x="309.278" y="75.41" width="9.737" height="9.738" viewBox="0 0 9.737 9.738" overflow="visible"><path d="M 4.318 0.031 C 6.932 -0.265 9.307 1.567 9.686 4.169 C 10.063 6.771 8.307 9.203 5.718 9.663 C 3.969 9.973 2.191 9.307 1.078 7.924 C -0.037 6.541 -0.309 4.662 0.365 3.019 C 1.04 1.376 2.554 0.232 4.318 0.031 Z" fill="currentColor" fill-rule="nonzero"></path></svg>
<svg x="227.206" y="172.927" width="9.716" height="9.718" viewBox="0 0 9.716 9.718" overflow="visible"><path d="M 3.784 0.12 C 5.489 -0.266 7.269 0.294 8.448 1.584 C 9.626 2.876 10.018 4.701 9.478 6.363 C 8.936 8.025 7.544 9.269 5.832 9.618 C 3.223 10.153 0.671 8.485 0.11 5.882 C -0.451 3.279 1.188 0.709 3.784 0.12 Z" fill="currentColor" fill-rule="nonzero"></path></svg>
<svg x="204.01" y="164.673" width="9.641" height="9.642" viewBox="0 0 9.641 9.642" overflow="visible"><path d="M 4.156 0.047 C 6.74 -0.313 9.141 1.45 9.574 4.023 C 10.004 6.597 8.31 9.048 5.75 9.551 C 4.027 9.89 2.26 9.266 1.131 7.922 C 0.002 6.58 -0.308 4.73 0.32 3.093 C 0.949 1.455 2.418 0.288 4.156 0.047 Z" fill="currentColor" fill-rule="nonzero"></path></svg>
</svg>