<svg xmlns="http://www.w3.org/2000/svg" viewBox="0.000 0.000 203.783 236.861" width="203.8" height="236.9" fill="none" color="rgba(21,21,21,0.8)">
<svg x="158.741" y="131.598" width="24.618" height="95.659" viewBox="0 0 24.618 95.659" overflow="visible"><path d="M 22.827 0 C 23.395 0.232 24.005 0.355 24.618 0.364 C 22.07 8.288 18.848 24.361 16.75 33.121 L 1.518 95.659 C 1.037 95.44 0.526 95.298 0 95.238 C 2.696 85.638 5.145 74.11 7.535 64.199 L 22.827 0 Z" fill="currentColor" fill-rule="nonzero"></path></svg>
<svg x="150.752" y="7.315" width="45.885" height="47.659" viewBox="0 0 45.885 47.659" overflow="visible"><path d="M 1.128 0 C 11.669 10.756 22.146 21.579 32.554 32.466 C 34.81 34.829 44.325 45.116 45.885 46.261 C 45.211 46.591 44.624 47.069 44.162 47.659 C 30.006 32.193 14.497 16.493 0 1.261 C 0.136 1.027 0.894 0.248 1.128 0 Z" fill="currentColor" fill-rule="nonzero"></path></svg>
<svg x="183.734" y="62.67" width="15.149" height="59.779" viewBox="0 0 15.149 59.779" overflow="visible"><path d="M 13.346 0 C 13.922 0.216 14.535 0.323 15.149 0.315 C 9.893 18.969 6.49 40.834 1.518 59.779 C 1.034 59.586 0.519 59.471 0 59.439 C 1.666 53.516 3.317 44.965 4.687 38.833 L 13.346 0 Z" fill="currentColor" fill-rule="nonzero"></path></svg>
<svg x="12.601" y="89.311" width="57.55" height="2.411" viewBox="0 0 57.550 2.411" overflow="visible"><path d="M 0 0.14 C 6.88 0.435 14.047 -0.084 20.919 0.012 C 32.857 0.18 45.654 -0.014 57.55 0.531 C 57.259 1.118 57.088 1.758 57.051 2.411 C 53.704 1.963 44.136 2.064 40.085 2.009 C 26.734 1.811 13.38 1.803 0.03 1.986 C 0.136 1.374 0.125 0.748 0 0.14 Z" fill="currentColor" fill-rule="nonzero"></path></svg>
<svg x="30.722" y="125.713" width="47.816" height="26.557" viewBox="0 0 47.816 26.557" overflow="visible"><path d="M 46.843 0 C 47.036 0.666 47.369 1.284 47.816 1.812 L 15.611 18.777 C 13.006 20.152 3.12 25.642 0.776 26.557 C 0.606 26.02 0.345 25.517 0 25.07 L 29.831 9.242 C 35.049 6.473 41.925 3.054 46.843 0 Z" fill="currentColor" fill-rule="nonzero"></path></svg>
<svg x="153.148" y="226.804" width="10.058" height="10.057" viewBox="0 0 10.058 10.057" overflow="visible"><path d="M 5.593 0.032 C 6.119 0.092 6.63 0.234 7.111 0.453 C 9.5 1.54 10.651 4.281 9.754 6.746 C 8.857 9.211 6.218 10.574 3.688 9.874 C 1.159 9.174 -0.404 6.648 0.092 4.073 C 0.591 1.497 2.988 -0.262 5.593 0.032 Z" fill="currentColor" fill-rule="nonzero"></path></svg>
<svg x="154.854" y="228.503" width="6.66" height="6.658" viewBox="0 0 6.660 6.658" overflow="visible"><path d="M 2.687 0.063 C 4.466 -0.286 6.197 0.852 6.583 2.622 C 6.969 4.394 5.864 6.147 4.103 6.567 C 2.929 6.847 1.699 6.471 0.881 5.584 C 0.063 4.698 -0.21 3.439 0.165 2.294 C 0.54 1.148 1.506 0.295 2.687 0.063 Z" fill="currentColor" fill-rule="nonzero"></path></svg>
<svg x="9.833" y="65.35" width="45.351" height="1.697" viewBox="0 0 45.351 1.697" overflow="visible"><path d="M 0.004 0.186 C 9.818 0.008 19.631 -0.042 29.445 0.035 C 34.269 0.067 40.766 0.37 45.34 0.195 C 45.268 0.694 45.272 1.2 45.351 1.697 L 0 1.68 C 0.08 1.185 0.08 0.681 0.004 0.186 Z" fill="currentColor" fill-rule="nonzero"></path></svg>
<svg x="55.122" y="61.287" width="9.949" height="9.949" viewBox="0 0 9.949 9.949" overflow="visible"><path d="M 0.051 4.259 C 0.32 2.425 1.581 0.892 3.33 0.279 C 5.079 -0.333 7.025 0.078 8.377 1.346 C 8.741 1.686 9.051 2.08 9.297 2.514 C 10.282 4.244 10.141 6.395 8.937 7.981 C 7.733 9.568 5.7 10.283 3.766 9.799 C 1.835 9.316 0.377 7.727 0.063 5.761 C -0.017 5.264 -0.021 4.758 0.051 4.259 Z" fill="currentColor" fill-rule="nonzero"></path></svg>
<svg x="56.835" y="62.96" width="6.537" height="6.536" viewBox="0 0 6.537 6.536" overflow="visible"><path d="M 2.332 0.138 C 4.017 -0.366 5.797 0.554 6.361 2.218 C 6.929 3.882 6.077 5.695 4.434 6.322 C 3.317 6.748 2.052 6.53 1.143 5.752 C 0.235 4.975 -0.178 3.762 0.072 2.592 C 0.318 1.421 1.185 0.48 2.332 0.138 Z" fill="currentColor" fill-rule="nonzero"></path></svg>
<svg x="193.865" y="53.068" width="9.918" height="9.917" viewBox="0 0 9.918 9.917" overflow="visible"><path d="M 2.772 0.508 C 4.6 -0.39 6.789 -0.079 8.296 1.292 C 9.803 2.664 10.317 4.816 9.594 6.72 C 8.867 8.624 7.054 9.892 5.017 9.917 C 4.403 9.925 3.79 9.818 3.215 9.601 C 1.738 9.047 0.613 7.822 0.186 6.302 C -0.242 4.782 0.08 3.15 1.049 1.906 C 1.511 1.316 2.098 0.838 2.772 0.508 Z" fill="currentColor" fill-rule="nonzero"></path></svg>
<svg x="195.571" y="54.739" width="6.512" height="6.513" viewBox="0 0 6.512 6.513" overflow="visible"><path d="M 2.861 0.024 C 4.031 -0.119 5.186 0.38 5.882 1.331 C 6.579 2.282 6.708 3.535 6.219 4.608 C 5.731 5.68 4.701 6.405 3.527 6.502 C 1.759 6.648 0.199 5.354 0.017 3.59 C -0.164 1.826 1.1 0.241 2.861 0.024 Z" fill="currentColor" fill-rule="nonzero"></path></svg>
<svg x="31.435" y="191.502" width="9.892" height="9.892" viewBox="0 0 9.892 9.892" overflow="visible"><path d="M 5.402 0.021 C 7.942 0.256 9.888 2.385 9.892 4.936 C 9.896 7.487 7.961 9.623 5.42 9.868 C 2.884 10.113 0.574 8.387 0.09 5.882 C -0.391 3.377 1.108 0.916 3.558 0.199 C 4.156 0.024 4.781 -0.036 5.402 0.021 Z" fill="currentColor" fill-rule="nonzero"></path></svg>
<svg x="33.168" y="193.175" width="6.508" height="6.507" viewBox="0 0 6.508 6.507" overflow="visible"><path d="M 2.298 0.144 C 4.005 -0.381 5.819 0.571 6.356 2.275 C 6.894 3.979 5.955 5.798 4.255 6.348 C 2.536 6.904 0.696 5.954 0.151 4.232 C -0.391 2.51 0.571 0.675 2.298 0.144 Z" fill="currentColor" fill-rule="nonzero"></path></svg>
<svg x="0" y="61.325" width="9.893" height="9.892" viewBox="0 0 9.893 9.892" overflow="visible"><path d="M 4.631 9.882 C 2.041 9.717 0.019 7.578 0 4.982 C -0.019 2.387 1.973 0.218 4.559 0.015 C 7.148 -0.188 9.45 1.644 9.837 4.211 C 9.912 4.706 9.912 5.21 9.833 5.705 C 9.53 7.662 8.087 9.249 6.172 9.738 C 5.668 9.867 5.149 9.915 4.631 9.882 Z" fill="currentColor" fill-rule="nonzero"></path></svg>
<svg x="1.716" y="63.021" width="6.454" height="6.455" viewBox="0 0 6.454 6.455" overflow="visible"><path d="M 2.559 0.07 C 3.732 -0.178 4.944 0.243 5.709 1.164 C 6.474 2.085 6.667 3.355 6.209 4.461 C 5.751 5.568 4.721 6.33 3.528 6.441 C 1.824 6.6 0.295 5.403 0.037 3.712 C -0.22 2.021 0.885 0.424 2.559 0.07 Z" fill="currentColor" fill-rule="nonzero"></path></svg>
<svg x="178.498" y="122.099" width="9.864" height="9.863" viewBox="0 0 9.864 9.863" overflow="visible"><path d="M 5.236 0.009 C 5.755 0.042 6.269 0.156 6.754 0.349 C 8.965 1.228 10.234 3.561 9.768 5.894 C 9.302 8.228 7.239 9.898 4.861 9.863 C 4.248 9.854 3.638 9.73 3.07 9.498 C 0.832 8.587 -0.413 6.19 0.124 3.835 C 0.662 1.48 2.824 -0.139 5.236 0.009 Z" fill="currentColor" fill-rule="nonzero"></path></svg>
<svg x="180.228" y="123.803" width="6.499" height="6.5" viewBox="0 0 6.499 6.500" overflow="visible"><path d="M 2.041 0.234 C 3.699 -0.43 5.584 0.369 6.258 2.023 C 6.932 3.678 6.145 5.566 4.494 6.251 C 2.832 6.942 0.92 6.145 0.242 4.476 C -0.439 2.808 0.367 0.904 2.041 0.234 Z" fill="currentColor" fill-rule="nonzero"></path></svg>
<svg x="76.52" y="43.417" width="9.857" height="9.856" viewBox="0 0 9.857 9.856" overflow="visible"><path d="M 0.602 7.285 C -0.557 5.161 0 2.511 1.912 1.031 C 3.827 -0.45 6.531 -0.323 8.295 1.33 C 8.75 1.753 9.117 2.258 9.382 2.817 C 10.378 4.92 9.768 7.434 7.917 8.846 C 6.065 10.258 3.479 10.182 1.715 8.664 C 1.264 8.275 0.886 7.808 0.602 7.285 Z" fill="currentColor" fill-rule="nonzero"></path></svg>
<svg x="78.229" y="45.117" width="6.474" height="6.474" viewBox="0 0 6.474 6.474" overflow="visible"><path d="M 2.202 0.17 C 3.867 -0.391 5.677 0.48 6.279 2.131 C 6.878 3.783 6.052 5.612 4.417 6.252 C 3.322 6.679 2.08 6.481 1.175 5.733 C 0.271 4.985 -0.161 3.805 0.055 2.649 C 0.267 1.494 1.088 0.545 2.202 0.17 Z" fill="currentColor" fill-rule="nonzero"></path></svg>
<svg x="104.837" y="24.315" width="9.743" height="9.56" viewBox="0 0 9.743 9.560" overflow="visible"><path d="M 0.291 6.405 C -1.269 1.287 3.729 -1.818 8.484 1.165 L 9.499 2.642 C 10.93 8.473 5.785 11.725 1.116 7.921 L 0.291 6.405 Z" fill="currentColor" fill-rule="nonzero"></path></svg>
<svg x="106.539" y="25.803" width="6.472" height="6.471" viewBox="0 0 6.472 6.471" overflow="visible"><path d="M 2.239 0.158 C 3.916 -0.385 5.719 0.514 6.294 2.181 C 6.87 3.848 6.003 5.669 4.348 6.275 C 3.246 6.676 2.016 6.453 1.13 5.692 C 0.24 4.93 -0.165 3.747 0.062 2.6 C 0.293 1.453 1.126 0.519 2.239 0.158 Z" fill="currentColor" fill-rule="nonzero"></path></svg>
<svg x="142.677" y="0" width="9.751" height="9.822" viewBox="0 0 9.751 9.822" overflow="visible"><path d="M 0.211 6.721 C -1.144 1.084 4.327 -1.73 8.041 1.134 C 8.991 1.876 9.601 2.974 9.726 4.175 C 9.824 5.167 9.624 6.41 9.203 7.315 C 8.969 7.564 8.211 8.342 8.075 8.576 C 5.073 10.348 3.729 10.269 0.991 8.089 L 0.211 6.721 Z" fill="currentColor" fill-rule="nonzero"></path></svg>
<svg x="144.276" y="1.613" width="6.487" height="6.488" viewBox="0 0 6.487 6.488" overflow="visible"><path d="M 2.311 0.138 C 3.973 -0.362 5.734 0.537 6.305 2.177 C 6.877 3.816 6.056 5.616 4.443 6.258 C 3.337 6.698 2.076 6.496 1.16 5.73 C 0.248 4.965 -0.173 3.76 0.066 2.592 C 0.308 1.424 1.168 0.482 2.311 0.138 Z" fill="currentColor" fill-rule="nonzero"></path></svg>
<svg x="77.371" y="119.447" width="9.812" height="9.811" viewBox="0 0 9.812 9.811" overflow="visible"><path d="M 4.661 0.006 C 6.959 -0.109 9.03 1.388 9.636 3.606 C 10.245 5.825 9.231 8.169 7.197 9.243 C 5.164 10.317 2.654 9.833 1.166 8.079 C 0.719 7.55 0.386 6.932 0.193 6.266 C -0.504 3.851 0.738 1.3 3.071 0.358 C 3.578 0.152 4.116 0.034 4.661 0.006 Z" fill="currentColor" fill-rule="nonzero"></path></svg>
<svg x="79.049" y="121.128" width="6.453" height="6.452" viewBox="0 0 6.453 6.452" overflow="visible"><path d="M 1.961 0.259 C 3.055 -0.208 4.319 -0.035 5.247 0.71 C 6.175 1.456 6.618 2.651 6.398 3.821 C 6.178 4.991 5.33 5.945 4.194 6.302 C 2.555 6.819 0.798 5.958 0.2 4.345 C -0.394 2.732 0.378 0.935 1.961 0.259 Z" fill="currentColor" fill-rule="nonzero"></path></svg>
<svg x="2.914" y="85.565" width="9.789" height="9.79" viewBox="0 0 9.789 9.790" overflow="visible"><path d="M 5.132 0.006 C 7.358 0.114 9.225 1.709 9.686 3.886 C 9.811 4.494 9.823 5.12 9.717 5.732 C 9.308 8.094 7.248 9.812 4.848 9.789 C 2.451 9.767 0.422 8.011 0.058 5.642 C -0.309 3.272 1.096 0.986 3.375 0.242 C 3.943 0.057 4.537 -0.023 5.132 0.006 Z" fill="currentColor" fill-rule="nonzero"></path></svg>
<svg x="4.647" y="87.302" width="6.395" height="6.395" viewBox="0 0 6.395 6.395" overflow="visible"><path d="M 1.653 0.399 C 3.187 -0.449 5.122 0.099 5.981 1.627 C 6.844 3.156 6.314 5.093 4.792 5.968 C 3.251 6.854 1.286 6.315 0.412 4.767 C -0.459 3.22 0.097 1.258 1.653 0.399 Z" fill="currentColor" fill-rule="nonzero"></path></svg>
<svg x="21.973" y="148.872" width="9.756" height="9.755" viewBox="0 0 9.756 9.755" overflow="visible"><path d="M 5.061 9.751 C 2.751 9.837 0.699 8.292 0.142 6.05 C -0.41 3.808 0.684 1.484 2.762 0.483 C 4.845 -0.519 7.344 0.077 8.748 1.911 C 9.093 2.358 9.354 2.861 9.525 3.398 C 10.278 5.764 9.135 8.318 6.867 9.331 C 6.299 9.585 5.685 9.728 5.061 9.751 Z" fill="currentColor" fill-rule="nonzero"></path></svg>
<svg x="23.687" y="150.528" width="6.362" height="6.362" viewBox="0 0 6.362 6.362" overflow="visible"><path d="M 2.651 0.045 C 4.347 -0.241 5.964 0.874 6.301 2.561 C 6.634 4.248 5.57 5.896 3.893 6.281 C 2.764 6.54 1.583 6.165 0.811 5.301 C 0.038 4.437 -0.204 3.222 0.178 2.129 C 0.561 1.036 1.511 0.237 2.651 0.045 Z" fill="currentColor" fill-rule="nonzero"></path></svg>
<svg x="69.644" y="87.145" width="9.704" height="9.702" viewBox="0 0 9.704 9.702" overflow="visible"><path d="M 0.507 2.696 C 1.473 0.75 3.612 -0.318 5.747 0.084 C 7.883 0.485 9.492 2.258 9.685 4.422 C 9.878 6.586 8.606 8.614 6.577 9.386 C 6.088 9.571 5.577 9.676 5.054 9.698 C 3.688 9.755 2.359 9.231 1.397 8.256 C 0.435 7.28 -0.068 5.944 0.007 4.577 C 0.045 3.923 0.216 3.283 0.507 2.696 Z" fill="currentColor" fill-rule="nonzero"></path></svg>
<svg x="71.329" y="88.818" width="6.312" height="6.313" viewBox="0 0 6.312 6.313" overflow="visible"><path d="M 1.636 0.392 C 3.154 -0.444 5.059 0.101 5.907 1.612 C 6.755 3.123 6.228 5.035 4.722 5.896 C 3.203 6.766 1.261 6.23 0.405 4.701 C -0.454 3.172 0.099 1.237 1.636 0.392 Z" fill="currentColor" fill-rule="nonzero"></path></svg>
<svg x="113.321" y="6.721" width="30.346" height="20.237" viewBox="0 0 30.346 20.237" overflow="visible"><path d="M 0 18.76 C 9.719 12.911 19.874 6.116 29.567 0 L 30.346 1.368 C 21.877 7.036 13.161 12.318 4.619 17.871 C 3.419 18.652 2.166 19.38 1.015 20.237 L 0 18.76 Z" fill="currentColor" fill-rule="nonzero"></path></svg>
<svg x="27.034" y="158.202" width="9.802" height="33.499" viewBox="0 0 9.802 33.499" overflow="visible"><path d="M 1.806 0 L 7.387 23.231 C 7.675 24.454 9.481 32.549 9.802 33.321 C 9.182 33.263 8.557 33.324 7.959 33.499 C 5.429 22.444 2.775 11.417 0 0.42 C 0.625 0.397 1.238 0.254 1.806 0 Z" fill="currentColor" fill-rule="nonzero"></path></svg>
<svg x="84.815" y="30.72" width="21.138" height="15.513" viewBox="0 0 21.138 15.513" overflow="visible"><path d="M 20.313 0 L 21.138 1.516 C 14.395 6.093 7.709 10.759 1.087 15.513 C 0.822 14.954 0.454 14.45 0 14.027 C 6.705 9.255 13.475 4.579 20.313 0 Z" fill="currentColor" fill-rule="nonzero"></path></svg>
<svg x="74.699" y="96.531" width="7.334" height="23.273" viewBox="0 0 7.334 23.273" overflow="visible"><path d="M 0 0.312 C 0.522 0.29 1.034 0.185 1.522 0 C 3.396 7.525 5.252 15.481 7.334 22.921 C 6.789 22.949 6.251 23.067 5.744 23.273 L 0 0.312 Z" fill="currentColor" fill-rule="nonzero"></path></svg>
<svg x="63.499" y="50.701" width="14.736" height="13.099" viewBox="0 0 14.736 13.099" overflow="visible"><path d="M 13.623 0 C 13.907 0.523 14.285 0.99 14.736 1.379 C 10.102 5.25 5.494 9.157 0.92 13.099 C 0.674 12.665 0.363 12.271 0 11.931 C 4.547 8.029 9.257 4.083 13.623 0 Z" fill="currentColor" fill-rule="nonzero"></path></svg>
<svg x="4.631" y="71.063" width="3.415" height="14.743" viewBox="0 0 3.415 14.743" overflow="visible"><path d="M 0 0.144 C 0.519 0.177 1.037 0.128 1.541 0 C 1.817 2.181 2.908 13.229 3.415 14.507 C 2.821 14.478 2.226 14.558 1.658 14.743 C 1.056 9.911 0.382 4.992 0 0.144 Z" fill="currentColor" fill-rule="nonzero"></path></svg>
</svg>