<svg xmlns="http://www.w3.org/2000/svg" viewBox="0.000 0.000 161.714 224.706" width="161.7" height="224.7" fill="none" color="rgba(21,21,21,0.8)">
<svg x="9.252" y="120.484" width="76.494" height="95.009" viewBox="0 0 76.494 95.009" overflow="visible"><path d="M 74.637 0 C 75.334 0.261 75.916 0.417 76.494 0.881 C 71.988 5.872 65.466 14.812 61.114 20.317 L 32.472 56.178 L 11.495 82.468 C 9.719 84.692 2.84 92.99 1.621 95.009 C 1.193 94.363 0.642 93.808 0 93.374 L 74.637 0 Z" fill="currentColor" fill-rule="nonzero"></path></svg>
<svg x="52.284" y="6.253" width="97.824" height="27.692" viewBox="0 0 97.824 27.692" overflow="visible"><path d="M 0.451 0 C 22.235 5.409 43.968 11.036 65.637 16.881 C 76.057 19.647 87.54 22.488 97.824 25.566 C 97.505 26.234 97.31 26.954 97.25 27.692 C 64.885 18.967 32.468 10.44 0 2.113 C 0.276 1.441 0.429 0.726 0.451 0 Z" fill="currentColor" fill-rule="nonzero"></path></svg>
<svg x="91.333" y="38.941" width="62.116" height="73.331" viewBox="0 0 62.116 73.331" overflow="visible"><path d="M 60.152 0 C 60.726 0.524 61.389 0.935 62.116 1.21 C 42.071 25.073 21.903 49.98 1.318 73.331 C 0.974 72.997 0.344 72.227 0 71.83 C 6.369 63.752 14.246 54.818 20.929 46.899 C 34.117 31.361 47.194 15.728 60.152 0 Z" fill="currentColor" fill-rule="nonzero"></path></svg>
<svg x="149.513" y="28.346" width="12.201" height="12.203" viewBox="0 0 12.201 12.203" overflow="visible"><path d="M 0.595 3.473 C 2.019 0.492 5.556 -0.814 8.575 0.526 C 11.593 1.867 12.996 5.367 11.742 8.422 C 10.484 11.477 7.023 12.977 3.937 11.805 C 3.21 11.53 2.547 11.119 1.973 10.595 C 0.587 9.321 -0.136 7.477 0.021 5.599 C 0.081 4.862 0.276 4.141 0.595 3.473 Z" fill="currentColor" fill-rule="nonzero"></path></svg>
<svg x="151.452" y="30.264" width="8.32" height="8.321" viewBox="0 0 8.320 8.321" overflow="visible"><path d="M 3.447 0.062 C 5.645 -0.32 7.754 1.1 8.225 3.282 C 8.697 5.464 7.362 7.629 5.203 8.189 C 3.723 8.571 2.155 8.113 1.117 6.997 C 0.076 5.879 -0.269 4.282 0.216 2.835 C 0.701 1.389 1.942 0.324 3.447 0.062 Z" fill="currentColor" fill-rule="nonzero"></path></svg>
<svg x="40.61" y="0" width="12.128" height="12.129" viewBox="0 0 12.128 12.129" overflow="visible"><path d="M 11.674 8.366 C 10.483 11.27 7.272 12.785 4.274 11.857 C 1.275 10.93 -0.521 7.868 0.135 4.798 C 0.79 1.729 3.679 -0.334 6.795 0.045 C 9.911 0.423 12.224 3.116 12.125 6.253 C 12.103 6.979 11.95 7.695 11.674 8.366 Z" fill="currentColor" fill-rule="nonzero"></path></svg>
<svg x="42.542" y="1.927" width="8.295" height="8.295" viewBox="0 0 8.295 8.295" overflow="visible"><path d="M 2.641 0.285 C 4.76 -0.542 7.149 0.493 7.996 2.604 C 8.843 4.715 7.83 7.114 5.727 7.981 C 3.596 8.86 1.157 7.83 0.299 5.691 C -0.559 3.551 0.493 1.122 2.641 0.285 Z" fill="currentColor" fill-rule="nonzero"></path></svg>
<svg x="81.66" y="109.545" width="11.861" height="11.875" viewBox="0 0 11.861 11.875" overflow="visible"><path d="M 2.229 10.939 C 1.485 10.04 0.69 9.108 0.32 7.993 C -0.22 6.342 -0.071 4.544 0.728 3.003 C 1.421 1.697 2.607 0.724 4.018 0.3 C 6.267 -0.391 7.713 0.193 9.673 1.226 C 10.017 1.623 10.646 2.393 10.991 2.728 C 13.605 8.421 10.047 12.393 4.086 11.82 C 3.508 11.356 2.926 11.2 2.229 10.939 Z" fill="currentColor" fill-rule="nonzero"></path></svg>
<svg x="83.515" y="111.441" width="8.148" height="8.147" viewBox="0 0 8.148 8.147" overflow="visible"><path d="M 3.146 0.108 C 4.596 -0.233 6.118 0.248 7.113 1.36 C 8.107 2.472 8.413 4.039 7.907 5.444 C 7.406 6.848 6.177 7.866 4.706 8.097 C 2.542 8.437 0.497 7.004 0.077 4.854 C -0.344 2.704 1.012 0.608 3.146 0.108 Z" fill="currentColor" fill-rule="nonzero"></path></svg>
<svg x="0" y="212.842" width="11.864" height="11.864" viewBox="0 0 11.864 11.864" overflow="visible"><path d="M 10.874 2.651 C 12.562 5.194 12.045 8.602 9.679 10.53 C 7.313 12.458 3.87 12.276 1.721 10.11 C -0.429 7.943 -0.583 4.499 1.364 2.148 C 3.31 -0.202 6.723 -0.692 9.252 1.017 C 9.894 1.45 10.445 2.006 10.874 2.651 Z" fill="currentColor" fill-rule="nonzero"></path></svg>
<svg x="1.994" y="214.762" width="7.965" height="7.965" viewBox="0 0 7.965 7.965" overflow="visible"><path d="M 3.16 0.086 C 5.271 -0.359 7.352 0.957 7.855 3.055 C 8.357 5.152 7.098 7.269 5.015 7.829 C 3.616 8.204 2.123 7.791 1.118 6.749 C 0.111 5.706 -0.25 4.201 0.175 2.815 C 0.6 1.431 1.743 0.386 3.16 0.086 Z" fill="currentColor" fill-rule="nonzero"></path></svg>
</svg>