<svg width="512" height="512" viewBox="0 0 512 512" fill="none" xmlns="http://www.w3.org/2000/svg">
<style>
.bird { fill: #355C4B; }
@media (prefers-color-scheme: dark) { .bird { fill: #F0F0F0; } }
</style>
<path class="bird" d="M379.446 195.5C383.519 195.081 399.574 194.343 403 196.228C400.317 197.65 394.856 200.897 390.562 202.335C379.707 205.971 368.141 211.386 358.28 217.07C332.768 231.776 309.627 256.543 294.166 280.945C288.591 289.742 283.877 305.835 281.12 316C268.912 316 260.668 315.432 249.686 311.106C229.015 302.963 219.549 283.636 205.148 268.771C197.9 261.29 189.744 256.153 180.779 251.034C156.706 238.116 135.051 234.455 108 233.391C117.455 227.72 134.513 224.2 145.221 221.458C168.012 215.686 191.244 215.208 212.308 226.042C232.573 236.465 247.413 264.235 272.827 248.857C285.434 240.693 296.199 230.222 308.384 221.345C332.027 204.12 349.613 197.072 379.446 195.5Z"/>
</svg>
